VelekaWorld-Bold.ufo
<glyph name="A" format="2">
  <advance width="686"/>
  <unicode hex="0041"/>
  <anchor x="343" y="748" name="top"/>
  <anchor x="340" y="625" name="t.ring"/>
  <anchor x="624" y="0" name="b.ogonek"/>
  <anchor x="331" y="-60" name="bottom"/>
  <anchor x="329" y="323" name="c.OCS"/>
  <anchor x="36" y="748" name="left.OCSn"/>
  <outline>
    <contour>
      <point x="5" y="0" type="line"/>
      <point x="5" y="51" type="line"/>
      <point x="61" y="59" type="line"/>
      <point x="285" y="687" type="line"/>
      <point x="399" y="687" type="line"/>
      <point x="621" y="77" type="line"/>
      <point x="625" y="65"/>
      <point x="629" y="61"/>
      <point x="643" y="58" type="curve"/>
      <point x="681" y="51" type="line"/>
      <point x="681" y="0" type="line"/>
      <point x="405" y="0" type="line"/>
      <point x="405" y="51" type="line"/>
      <point x="464" y="58" type="line"/>
      <point x="470" y="59"/>
      <point x="474" y="64"/>
      <point x="474" y="69" type="curve" smooth="yes"/>
      <point x="474" y="70"/>
      <point x="474" y="73"/>
      <point x="473" y="76" type="curve" smooth="yes"/>
      <point x="419" y="234" type="line"/>
      <point x="205" y="234" type="line"/>
      <point x="150" y="80" type="line"/>
      <point x="149" y="76"/>
      <point x="149" y="74"/>
      <point x="149" y="72" type="curve" smooth="yes"/>
      <point x="149" y="63"/>
      <point x="154" y="59"/>
      <point x="164" y="58" type="curve" smooth="yes"/>
      <point x="220" y="51" type="line"/>
      <point x="220" y="0" type="line"/>
    </contour>
    <contour>
      <point x="224" y="293" type="line"/>
      <point x="394" y="293" type="line"/>
      <point x="308" y="533" type="line"/>
    </contour>
  </outline>
  <guideline angle="0" x="0" y="814"/>
  <guideline angle="90" x="5" y="0"/>
</glyph>
<glyph name="B" format="2">
  <advance width="641"/>
  <unicode hex="0042"/>
  <anchor x="299" y="748" name="top"/>
  <anchor x="317" y="-60" name="bottom"/>
  <anchor x="334" y="323" name="c.OCS"/>
  <anchor x="-43" y="748" name="left.OCSn"/>
  <outline>
    <contour>
      <point x="30" y="0" type="line"/>
      <point x="30" y="51" type="line"/>
      <point x="84" y="56" type="line" smooth="yes"/>
      <point x="96" y="57"/>
      <point x="106" y="65"/>
      <point x="106" y="78" type="curve" smooth="yes"/>
      <point x="106" y="593" type="line" smooth="yes"/>
      <point x="106" y="606"/>
      <point x="96" y="614"/>
      <point x="84" y="615" type="curve" smooth="yes"/>
      <point x="30" y="620" type="line"/>
      <point x="30" y="671" type="line"/>
      <point x="352" y="671" type="line" smooth="yes"/>
      <point x="424" y="671"/>
      <point x="565" y="656"/>
      <point x="565" y="516" type="curve" smooth="yes"/>
      <point x="565" y="396"/>
      <point x="455" y="364"/>
      <point x="423" y="357" type="curve"/>
      <point x="497" y="357"/>
      <point x="604" y="327"/>
      <point x="604" y="195" type="curve" smooth="yes"/>
      <point x="604" y="8"/>
      <point x="472" y="0"/>
      <point x="373" y="0" type="curve" smooth="yes"/>
    </contour>
    <contour>
      <point x="249" y="59" type="line"/>
      <point x="264" y="58"/>
      <point x="290" y="57"/>
      <point x="296" y="57" type="curve" smooth="yes"/>
      <point x="398" y="57"/>
      <point x="454" y="92"/>
      <point x="454" y="188" type="curve" smooth="yes"/>
      <point x="454" y="274"/>
      <point x="407" y="315"/>
      <point x="299" y="315" type="curve" smooth="yes"/>
      <point x="289" y="315"/>
      <point x="277" y="315"/>
      <point x="249" y="314" type="curve"/>
    </contour>
    <contour>
      <point x="249" y="375" type="line"/>
      <point x="253" y="374"/>
      <point x="262" y="374"/>
      <point x="274" y="374" type="curve" smooth="yes"/>
      <point x="388" y="374"/>
      <point x="418" y="429"/>
      <point x="418" y="500" type="curve" smooth="yes"/>
      <point x="418" y="559"/>
      <point x="397" y="615"/>
      <point x="290" y="615" type="curve" smooth="yes"/>
      <point x="276" y="615"/>
      <point x="259" y="614"/>
      <point x="249" y="613" type="curve"/>
    </contour>
  </outline>
</glyph>
<glyph name="D" format="2">
  <advance width="724"/>
  <unicode hex="0044"/>
  <anchor x="330" y="748" name="top"/>
  <anchor x="342" y="10" name="b.cedilla"/>
  <anchor x="331" y="-60" name="bottom"/>
  <outline>
    <contour>
      <point x="26" y="0" type="line"/>
      <point x="26" y="51" type="line"/>
      <point x="81" y="56" type="line" smooth="yes"/>
      <point x="93" y="57"/>
      <point x="104" y="65"/>
      <point x="104" y="78" type="curve" smooth="yes"/>
      <point x="104" y="593" type="line" smooth="yes"/>
      <point x="104" y="606"/>
      <point x="93" y="614"/>
      <point x="81" y="615" type="curve" smooth="yes"/>
      <point x="26" y="620" type="line"/>
      <point x="26" y="671" type="line"/>
      <point x="332" y="671" type="line" smooth="yes"/>
      <point x="560" y="671"/>
      <point x="687" y="538"/>
      <point x="687" y="343" type="curve" smooth="yes"/>
      <point x="687" y="114"/>
      <point x="550" y="0"/>
      <point x="338" y="0" type="curve" smooth="yes"/>
    </contour>
    <contour>
      <point x="247" y="59" type="line"/>
      <point x="330" y="59" type="line" smooth="yes"/>
      <point x="416" y="59"/>
      <point x="526" y="116"/>
      <point x="526" y="332" type="curve" smooth="yes"/>
      <point x="526" y="562"/>
      <point x="413" y="613"/>
      <point x="310" y="613" type="curve" smooth="yes"/>
      <point x="247" y="613" type="line"/>
    </contour>
  </outline>
</glyph>
<glyph name="G" format="2">
  <advance width="715"/>
  <unicode hex="0047"/>
  <anchor x="368" y="748" name="top"/>
  <anchor x="365" y="-60" name="bottom"/>
  <outline>
    <contour>
      <point x="37" y="337" type="curve" smooth="yes"/>
      <point x="37" y="546"/>
      <point x="181" y="687"/>
      <point x="395" y="687" type="curve" smooth="yes"/>
      <point x="492" y="687"/>
      <point x="557" y="676"/>
      <point x="620" y="648" type="curve"/>
      <point x="620" y="475" type="line"/>
      <point x="542" y="475" type="line"/>
      <point x="522" y="583" type="line" smooth="yes"/>
      <point x="518" y="604"/>
      <point x="478" y="621"/>
      <point x="432" y="621" type="curve" smooth="yes"/>
      <point x="284" y="621"/>
      <point x="192" y="513"/>
      <point x="192" y="341" type="curve" smooth="yes"/>
      <point x="192" y="164"/>
      <point x="283" y="59"/>
      <point x="436" y="59" type="curve" smooth="yes"/>
      <point x="451" y="59"/>
      <point x="473" y="61"/>
      <point x="481" y="63" type="curve"/>
      <point x="481" y="254" type="line" smooth="yes"/>
      <point x="481" y="266"/>
      <point x="471" y="275"/>
      <point x="458" y="276" type="curve" smooth="yes"/>
      <point x="391" y="281" type="line"/>
      <point x="391" y="332" type="line"/>
      <point x="693" y="332" type="line"/>
      <point x="693" y="281" type="line"/>
      <point x="642" y="276" type="line"/>
      <point x="628" y="275"/>
      <point x="619" y="266"/>
      <point x="619" y="254" type="curve" smooth="yes"/>
      <point x="619" y="31" type="line"/>
      <point x="539" y="-7"/>
      <point x="496" y="-16"/>
      <point x="387" y="-16" type="curve" smooth="yes"/>
      <point x="181" y="-16"/>
      <point x="37" y="130"/>
    </contour>
  </outline>
</glyph>
<glyph name="I" format="2">
  <advance width="358"/>
  <unicode hex="0049"/>
  <anchor x="178" y="748" name="top"/>
  <anchor x="179" y="-60" name="bottom"/>
  <anchor x="233" y="0" name="b.ogonek"/>
  <outline>
    <contour>
      <point x="23" y="0" type="line"/>
      <point x="23" y="51" type="line"/>
      <point x="85" y="56" type="line" smooth="yes"/>
      <point x="97" y="57"/>
      <point x="107" y="65"/>
      <point x="107" y="78" type="curve" smooth="yes"/>
      <point x="107" y="593" type="line" smooth="yes"/>
      <point x="107" y="606"/>
      <point x="97" y="614"/>
      <point x="85" y="615" type="curve" smooth="yes"/>
      <point x="23" y="620" type="line"/>
      <point x="23" y="671" type="line"/>
      <point x="335" y="671" type="line"/>
      <point x="335" y="620" type="line"/>
      <point x="273" y="615" type="line" smooth="yes"/>
      <point x="262" y="614"/>
      <point x="250" y="606"/>
      <point x="250" y="593" type="curve" smooth="yes"/>
      <point x="250" y="78" type="line" smooth="yes"/>
      <point x="250" y="65"/>
      <point x="262" y="57"/>
      <point x="273" y="56" type="curve" smooth="yes"/>
      <point x="335" y="51" type="line"/>
      <point x="335" y="0" type="line"/>
    </contour>
  </outline>
</glyph>
<glyph name="L" format="2">
  <advance width="554"/>
  <unicode hex="004C"/>
  <anchor x="203" y="748" name="top"/>
  <anchor x="369" y="740" name="t.r.caron"/>
  <anchor x="282" y="-60" name="bottom"/>
  <anchor x="411" y="340" name="center"/>
  <anchor x="297" y="340" name="c.OCS"/>
  <outline>
    <contour>
      <point x="27" y="0" type="line"/>
      <point x="27" y="51" type="line"/>
      <point x="82" y="56" type="line" smooth="yes"/>
      <point x="94" y="57"/>
      <point x="104" y="65"/>
      <point x="104" y="78" type="curve" smooth="yes"/>
      <point x="104" y="593" type="line" smooth="yes"/>
      <point x="104" y="606"/>
      <point x="94" y="614"/>
      <point x="82" y="615" type="curve" smooth="yes"/>
      <point x="27" y="620" type="line"/>
      <point x="27" y="671" type="line"/>
      <point x="325" y="671" type="line"/>
      <point x="325" y="620" type="line"/>
      <point x="269" y="615" type="line" smooth="yes"/>
      <point x="257" y="614"/>
      <point x="247" y="606"/>
      <point x="247" y="593" type="curve" smooth="yes"/>
      <point x="247" y="61" type="line"/>
      <point x="421" y="61" type="line" smooth="yes"/>
      <point x="435" y="61"/>
      <point x="444" y="76"/>
      <point x="445" y="84" type="curve" smooth="yes"/>
      <point x="458" y="199" type="line"/>
      <point x="538" y="199" type="line"/>
      <point x="538" y="0" type="line"/>
    </contour>
  </outline>
</glyph>
<glyph name="Y" format="2">
  <advance width="663"/>
  <unicode hex="0059"/>
  <anchor x="362" y="748" name="top"/>
  <anchor x="352" y="-60" name="bottom"/>
  <outline>
    <contour>
      <point x="10" y="620" type="line"/>
      <point x="10" y="671" type="line"/>
      <point x="294" y="671" type="line"/>
      <point x="294" y="620" type="line"/>
      <point x="241" y="615" type="line"/>
      <point x="236" y="615"/>
      <point x="233" y="610"/>
      <point x="233" y="603" type="curve" smooth="yes"/>
      <point x="233" y="599"/>
      <point x="234" y="595"/>
      <point x="236" y="591" type="curve" smooth="yes"/>
      <point x="362" y="354" type="line"/>
      <point x="498" y="592" type="line" smooth="yes"/>
      <point x="501" y="597"/>
      <point x="502" y="601"/>
      <point x="502" y="605" type="curve" smooth="yes"/>
      <point x="502" y="611"/>
      <point x="499" y="616"/>
      <point x="493" y="616" type="curve"/>
      <point x="432" y="620" type="line"/>
      <point x="432" y="671" type="line"/>
      <point x="653" y="671" type="line"/>
      <point x="653" y="620" type="line"/>
      <point x="595" y="611" type="line"/>
      <point x="410" y="290" type="line"/>
      <point x="410" y="78" type="line" smooth="yes"/>
      <point x="410" y="65"/>
      <point x="420" y="57"/>
      <point x="432" y="56" type="curve" smooth="yes"/>
      <point x="493" y="51" type="line"/>
      <point x="493" y="0" type="line"/>
      <point x="183" y="0" type="line"/>
      <point x="183" y="51" type="line"/>
      <point x="244" y="56" type="line" smooth="yes"/>
      <point x="255" y="57"/>
      <point x="267" y="65"/>
      <point x="267" y="78" type="curve" smooth="yes"/>
      <point x="267" y="262" type="line"/>
      <point x="74" y="611" type="line"/>
    </contour>
  </outline>
</glyph>
<glyph name="bracketleft" format="2">
  <advance width="364"/>
  <unicode hex="005B"/>
  <outline>
    <contour>
      <point x="60" y="-132" type="line"/>
      <point x="60" y="708" type="line"/>
      <point x="338" y="708" type="line"/>
      <point x="338" y="648" type="line"/>
      <point x="184" y="648" type="line"/>
      <point x="184" y="-74" type="line"/>
      <point x="338" y="-74" type="line"/>
      <point x="338" y="-132" type="line"/>
    </contour>
  </outline>
</glyph>
<glyph name="bracketright" format="2">
  <advance width="364"/>
  <unicode hex="005D"/>
  <outline>
    <contour>
      <point x="27" y="-74" type="line"/>
      <point x="180" y="-74" type="line"/>
      <point x="180" y="648" type="line"/>
      <point x="27" y="648" type="line"/>
      <point x="27" y="708" type="line"/>
      <point x="304" y="708" type="line"/>
      <point x="304" y="-132" type="line"/>
      <point x="27" y="-132" type="line"/>
    </contour>
  </outline>
</glyph>
<glyph name="grave" format="2">
  <advance width="287"/>
  <unicode hex="0060"/>
  <outline>
    <contour>
      <point x="20" y="690" type="curve" smooth="yes"/>
      <point x="20" y="714"/>
      <point x="34" y="743"/>
      <point x="77" y="743" type="curve" smooth="yes"/>
      <point x="104" y="743"/>
      <point x="117" y="736"/>
      <point x="140" y="711" type="curve" smooth="yes"/>
      <point x="277" y="560" type="line"/>
      <point x="207" y="560" type="line"/>
      <point x="45" y="648" type="line" smooth="yes"/>
      <point x="31" y="656"/>
      <point x="20" y="677"/>
    </contour>
  </outline>
</glyph>
<glyph name="b" format="2">
  <advance width="598"/>
  <unicode hex="0062"/>
  <anchor x="336" y="748" name="top"/>
  <anchor x="323" y="-60" name="bottom"/>
  <outline>
    <contour>
      <point x="20" y="649" type="line"/>
      <point x="20" y="690" type="line"/>
      <point x="173" y="740" type="line"/>
      <point x="224" y="740" type="line"/>
      <point x="224" y="454" type="line"/>
      <point x="263" y="483"/>
      <point x="317" y="500"/>
      <point x="369" y="500" type="curve" smooth="yes"/>
      <point x="476" y="500"/>
      <point x="566" y="417"/>
      <point x="566" y="274" type="curve" smooth="yes"/>
      <point x="566" y="120"/>
      <point x="460" y="0"/>
      <point x="273" y="0" type="curve" smooth="yes"/>
      <point x="90" y="0" type="line"/>
      <point x="90" y="649" type="line"/>
    </contour>
    <contour>
      <point x="224" y="59" type="line"/>
      <point x="229" y="56"/>
      <point x="239" y="53"/>
      <point x="245" y="53" type="curve" smooth="yes"/>
      <point x="356" y="53"/>
      <point x="421" y="100"/>
      <point x="421" y="243" type="curve" smooth="yes"/>
      <point x="421" y="352"/>
      <point x="371" y="417"/>
      <point x="277" y="417" type="curve" smooth="yes"/>
      <point x="253" y="417"/>
      <point x="235" y="414"/>
      <point x="224" y="411" type="curve"/>
    </contour>
  </outline>
</glyph>
<glyph name="e" format="2">
  <advance width="526"/>
  <unicode hex="0065"/>
  <anchor x="268" y="560" name="top"/>
  <anchor x="268" y="-60" name="bottom"/>
  <anchor x="322" y="0" name="b.ogonek"/>
  <outline>
    <contour>
      <point x="30" y="238" type="curve" smooth="yes"/>
      <point x="30" y="389"/>
      <point x="130" y="500"/>
      <point x="282" y="500" type="curve" smooth="yes"/>
      <point x="439" y="500"/>
      <point x="496" y="388"/>
      <point x="496" y="272" type="curve" smooth="yes"/>
      <point x="496" y="248" type="line"/>
      <point x="168" y="248" type="line"/>
      <point x="168" y="139"/>
      <point x="224" y="71"/>
      <point x="322" y="71" type="curve" smooth="yes"/>
      <point x="423" y="71"/>
      <point x="489" y="121"/>
      <point x="496" y="127" type="curve"/>
      <point x="496" y="47" type="line"/>
      <point x="488" y="41"/>
      <point x="412" y="-12"/>
      <point x="285" y="-12" type="curve" smooth="yes"/>
      <point x="115" y="-12"/>
      <point x="30" y="99"/>
    </contour>
    <contour>
      <point x="173" y="304" type="curve"/>
      <point x="353" y="304" type="line"/>
      <point x="353" y="326" type="line" smooth="yes"/>
      <point x="353" y="390"/>
      <point x="330" y="441"/>
      <point x="271" y="441" type="curve" smooth="yes"/>
      <point x="197" y="441"/>
      <point x="173" y="367"/>
    </contour>
  </outline>
</glyph>
<glyph name="f" format="2">
  <advance width="347"/>
  <unicode hex="0066"/>
  <anchor x="274" y="748" name="top"/>
  <anchor x="161" y="-60" name="bottom"/>
  <anchor x="311" y="20" name="b.0321"/>
  <outline>
    <contour>
      <point x="21" y="0" type="line"/>
      <point x="21" y="47" type="line"/>
      <point x="72" y="50" type="line" smooth="yes"/>
      <point x="84" y="51"/>
      <point x="94" y="61"/>
      <point x="94" y="73" type="curve" smooth="yes"/>
      <point x="94" y="412" type="line"/>
      <point x="29" y="412" type="line"/>
      <point x="29" y="452" type="line"/>
      <point x="93" y="485" type="line"/>
      <point x="93" y="621"/>
      <point x="201" y="740"/>
      <point x="324" y="740" type="curve" smooth="yes"/>
      <point x="364" y="740"/>
      <point x="420" y="717"/>
      <point x="420" y="660" type="curve" smooth="yes"/>
      <point x="420" y="633"/>
      <point x="396" y="607"/>
      <point x="358" y="594" type="curve"/>
      <point x="259" y="687" type="line"/>
      <point x="239" y="657"/>
      <point x="227" y="625"/>
      <point x="227" y="534" type="curve" smooth="yes"/>
      <point x="227" y="476" type="line"/>
      <point x="336" y="476" type="line"/>
      <point x="336" y="412" type="line"/>
      <point x="228" y="412" type="line"/>
      <point x="228" y="73" type="line" smooth="yes"/>
      <point x="228" y="61"/>
      <point x="237" y="51"/>
      <point x="250" y="50" type="curve"/>
      <point x="311" y="47" type="line"/>
      <point x="311" y="0" type="line"/>
    </contour>
  </outline>
</glyph>
<glyph name="l" format="2">
  <advance width="333"/>
  <unicode hex="006C"/>
  <anchor x="167" y="748" name="top"/>
  <anchor x="167" y="-60" name="bottom"/>
  <anchor x="279" y="740" name="t.r.caron"/>
  <anchor x="355" y="340" name="center"/>
  <anchor x="305" y="20" name="b.0321"/>
  <outline>
    <contour>
      <point x="29" y="649" type="line"/>
      <point x="29" y="690" type="line"/>
      <point x="182" y="740" type="line"/>
      <point x="233" y="740" type="line"/>
      <point x="233" y="73" type="line" smooth="yes"/>
      <point x="233" y="60"/>
      <point x="242" y="51"/>
      <point x="255" y="50" type="curve" smooth="yes"/>
      <point x="305" y="47" type="line"/>
      <point x="305" y="0" type="line"/>
      <point x="29" y="0" type="line"/>
      <point x="29" y="47" type="line"/>
      <point x="78" y="50" type="line" smooth="yes"/>
      <point x="91" y="51"/>
      <point x="100" y="60"/>
      <point x="100" y="73" type="curve" smooth="yes"/>
      <point x="100" y="649" type="line"/>
    </contour>
  </outline>
</glyph>
<glyph name="r" format="2">
  <advance width="432"/>
  <unicode hex="0072"/>
  <anchor x="223" y="560" name="top"/>
  <anchor x="180" y="-60" name="bottom"/>
  <anchor x="310" y="20" name="b.0321"/>
  <outline>
    <contour>
      <point x="17" y="408" type="line"/>
      <point x="17" y="449" type="line"/>
      <point x="172" y="500" type="line"/>
      <point x="224" y="500" type="line"/>
      <point x="224" y="394" type="line"/>
      <point x="249" y="426"/>
      <point x="313" y="500"/>
      <point x="359" y="500" type="curve" smooth="yes"/>
      <point x="382" y="500"/>
      <point x="410" y="491"/>
      <point x="422" y="482" type="curve"/>
      <point x="422" y="330" type="line"/>
      <point x="354" y="330" type="line"/>
      <point x="346" y="343"/>
      <point x="328" y="370"/>
      <point x="289" y="370" type="curve" smooth="yes"/>
      <point x="256" y="370"/>
      <point x="238" y="362"/>
      <point x="224" y="352" type="curve"/>
      <point x="224" y="72" type="line" smooth="yes"/>
      <point x="224" y="60"/>
      <point x="233" y="50"/>
      <point x="246" y="49" type="curve"/>
      <point x="310" y="46" type="line"/>
      <point x="310" y="-1" type="line"/>
      <point x="24" y="-1" type="line"/>
      <point x="24" y="46" type="line"/>
      <point x="68" y="49" type="line" smooth="yes"/>
      <point x="80" y="50"/>
      <point x="90" y="60"/>
      <point x="90" y="72" type="curve" smooth="yes"/>
      <point x="90" y="408" type="line"/>
    </contour>
  </outline>
</glyph>
<glyph name="u" format="2">
  <advance width="620"/>
  <unicode hex="0075"/>
  <anchor x="316" y="560" name="top"/>
  <anchor x="322" y="-60" name="bottom"/>
  <anchor x="316" y="560" name="t.ring"/>
  <anchor x="546" y="0" name="b.ogonek"/>
  <outline>
    <contour>
      <point x="25" y="396" type="line"/>
      <point x="25" y="437" type="line"/>
      <point x="172" y="488" type="line"/>
      <point x="224" y="488" type="line"/>
      <point x="224" y="190" type="line" smooth="yes"/>
      <point x="224" y="141"/>
      <point x="231" y="79"/>
      <point x="316" y="79" type="curve" smooth="yes"/>
      <point x="346" y="79"/>
      <point x="376" y="85"/>
      <point x="396" y="96" type="curve"/>
      <point x="396" y="396" type="line"/>
      <point x="333" y="396" type="line"/>
      <point x="333" y="437" type="line"/>
      <point x="479" y="488" type="line"/>
      <point x="530" y="488" type="line"/>
      <point x="530" y="73" type="line" smooth="yes"/>
      <point x="530" y="61"/>
      <point x="541" y="51"/>
      <point x="553" y="50" type="curve" smooth="yes"/>
      <point x="597" y="47" type="line"/>
      <point x="597" y="0" type="line"/>
      <point x="396" y="0" type="line"/>
      <point x="396" y="55" type="line"/>
      <point x="345" y="15"/>
      <point x="282" y="-12"/>
      <point x="238" y="-12" type="curve" smooth="yes"/>
      <point x="124" y="-12"/>
      <point x="90" y="49"/>
      <point x="90" y="151" type="curve" smooth="yes"/>
      <point x="90" y="396" type="line"/>
    </contour>
  </outline>
</glyph>
<glyph name="v" format="2">
  <advance width="565"/>
  <unicode hex="0076"/>
  <anchor x="274" y="560" name="top"/>
  <anchor x="270" y="-60" name="bottom"/>
  <outline>
    <contour>
      <point x="10" y="441" type="line"/>
      <point x="10" y="488" type="line"/>
      <point x="273" y="488" type="line"/>
      <point x="273" y="441" type="line"/>
      <point x="227" y="438" type="line"/>
      <point x="218" y="437"/>
      <point x="212" y="431"/>
      <point x="212" y="423" type="curve" smooth="yes"/>
      <point x="212" y="421"/>
      <point x="212" y="418"/>
      <point x="213" y="416" type="curve"/>
      <point x="311" y="139" type="line"/>
      <point x="420" y="416" type="line"/>
      <point x="421" y="418"/>
      <point x="421" y="419"/>
      <point x="421" y="421" type="curve"/>
      <point x="421" y="429"/>
      <point x="414" y="437"/>
      <point x="405" y="438" type="curve"/>
      <point x="363" y="441" type="line"/>
      <point x="363" y="488" type="line"/>
      <point x="557" y="488" type="line"/>
      <point x="557" y="441" type="line"/>
      <point x="500" y="434" type="line"/>
      <point x="328" y="0" type="line"/>
      <point x="229" y="0" type="line"/>
      <point x="69" y="435" type="line"/>
    </contour>
  </outline>
</glyph>
<glyph name="x" format="2">
  <advance width="545"/>
  <unicode hex="0078"/>
  <anchor x="270" y="560" name="top"/>
  <anchor x="270" y="-60" name="bottom"/>
  <anchor x="537" y="20" name="b.0321"/>
  <outline>
    <contour>
      <point x="10" y="0" type="line"/>
      <point x="10" y="47" type="line"/>
      <point x="70" y="55" type="line"/>
      <point x="213" y="228" type="line"/>
      <point x="65" y="434" type="line"/>
      <point x="12" y="441" type="line"/>
      <point x="12" y="488" type="line"/>
      <point x="258" y="488" type="line"/>
      <point x="258" y="441" type="line"/>
      <point x="229" y="438" type="line"/>
      <point x="222" y="437"/>
      <point x="219" y="433"/>
      <point x="219" y="428" type="curve" smooth="yes"/>
      <point x="219" y="425"/>
      <point x="220" y="423"/>
      <point x="222" y="420" type="curve"/>
      <point x="292" y="323" type="line"/>
      <point x="372" y="420" type="line"/>
      <point x="374" y="422"/>
      <point x="375" y="425"/>
      <point x="375" y="428" type="curve" smooth="yes"/>
      <point x="375" y="433"/>
      <point x="372" y="437"/>
      <point x="365" y="438" type="curve"/>
      <point x="333" y="441" type="line"/>
      <point x="333" y="488" type="line"/>
      <point x="519" y="488" type="line"/>
      <point x="519" y="441" type="line"/>
      <point x="463" y="434" type="line"/>
      <point x="330" y="270" type="line"/>
      <point x="484" y="55" type="line"/>
      <point x="537" y="47" type="line"/>
      <point x="537" y="0" type="line"/>
      <point x="283" y="0" type="line"/>
      <point x="283" y="47" type="line"/>
      <point x="322" y="51" type="line"/>
      <point x="329" y="52"/>
      <point x="333" y="56"/>
      <point x="333" y="61" type="curve" smooth="yes"/>
      <point x="333" y="63"/>
      <point x="332" y="65"/>
      <point x="330" y="68" type="curve"/>
      <point x="251" y="176" type="line"/>
      <point x="163" y="68" type="line"/>
      <point x="161" y="66"/>
      <point x="160" y="62"/>
      <point x="160" y="60" type="curve" smooth="yes"/>
      <point x="160" y="55"/>
      <point x="163" y="52"/>
      <point x="170" y="51" type="curve"/>
      <point x="205" y="47" type="line"/>
      <point x="205" y="0" type="line"/>
    </contour>
  </outline>
</glyph>
<glyph name="sterling" format="2">
  <advance width="586"/>
  <unicode hex="00A3"/>
  <outline>
    <contour>
      <point x="42" y="0" type="line"/>
      <point x="42" y="76" type="line"/>
      <point x="73" y="76"/>
      <point x="145" y="102"/>
      <point x="145" y="253" type="curve" smooth="yes"/>
      <point x="145" y="297" type="line"/>
      <point x="75" y="297" type="line"/>
      <point x="75" y="361" type="line"/>
      <point x="144" y="361" type="line"/>
      <point x="142" y="371"/>
      <point x="140" y="403"/>
      <point x="140" y="431" type="curve" smooth="yes"/>
      <point x="140" y="577"/>
      <point x="209" y="687"/>
      <point x="372" y="687" type="curve" smooth="yes"/>
      <point x="443" y="687"/>
      <point x="544" y="652"/>
      <point x="544" y="567" type="curve" smooth="yes"/>
      <point x="544" y="521"/>
      <point x="504" y="497"/>
      <point x="463" y="497" type="curve" smooth="yes"/>
      <point x="447" y="497"/>
      <point x="436" y="499"/>
      <point x="420" y="506" type="curve"/>
      <point x="420" y="628" type="line"/>
      <point x="414" y="630"/>
      <point x="402" y="632"/>
      <point x="390" y="632" type="curve" smooth="yes"/>
      <point x="276" y="632"/>
      <point x="270" y="493"/>
      <point x="270" y="435" type="curve" smooth="yes"/>
      <point x="270" y="391"/>
      <point x="273" y="368"/>
      <point x="275" y="361" type="curve"/>
      <point x="456" y="361" type="line"/>
      <point x="456" y="297" type="line"/>
      <point x="277" y="297" type="line"/>
      <point x="277" y="199"/>
      <point x="245" y="151"/>
      <point x="169" y="98" type="curve"/>
      <point x="191" y="103"/>
      <point x="219" y="106"/>
      <point x="235" y="106" type="curve" smooth="yes"/>
      <point x="544" y="106" type="line"/>
      <point x="544" y="0" type="line"/>
    </contour>
  </outline>
</glyph>
<glyph name="currency" format="2">
  <advance width="609"/>
  <unicode hex="00A4"/>
  <outline>
    <contour>
      <point x="74" y="427" type="curve" smooth="yes"/>
      <point x="74" y="560"/>
      <point x="179" y="664"/>
      <point x="312" y="664" type="curve" smooth="yes"/>
      <point x="440" y="664"/>
      <point x="546" y="555"/>
      <point x="546" y="428" type="curve" smooth="yes"/>
      <point x="546" y="300"/>
      <point x="441" y="191"/>
      <point x="312" y="191" type="curve" smooth="yes"/>
      <point x="182" y="191"/>
      <point x="74" y="296"/>
    </contour>
    <contour>
      <point x="191" y="427" type="curve" smooth="yes"/>
      <point x="191" y="360"/>
      <point x="245" y="308"/>
      <point x="312" y="308" type="curve" smooth="yes"/>
      <point x="378" y="308"/>
      <point x="429" y="363"/>
      <point x="429" y="428" type="curve" smooth="yes"/>
      <point x="429" y="492"/>
      <point x="377" y="547"/>
      <point x="312" y="547" type="curve" smooth="yes"/>
      <point x="245" y="547"/>
      <point x="191" y="494"/>
    </contour>
    <contour>
      <point x="417" y="593" type="line"/>
      <point x="534" y="710" type="line"/>
      <point x="590" y="654" type="line"/>
      <point x="475" y="539" type="line"/>
    </contour>
    <contour>
      <point x="146" y="538" type="line"/>
      <point x="30" y="654" type="line"/>
      <point x="86" y="710" type="line"/>
      <point x="202" y="594" type="line"/>
    </contour>
    <contour>
      <point x="420" y="264" type="line"/>
      <point x="476" y="320" type="line"/>
      <point x="590" y="206" type="line"/>
      <point x="534" y="150" type="line"/>
    </contour>
    <contour>
      <point x="30" y="206" type="line"/>
      <point x="144" y="320" type="line"/>
      <point x="200" y="264" type="line"/>
      <point x="86" y="150" type="line"/>
    </contour>
  </outline>
  <guideline angle="135" x="136" y="548"/>
  <guideline angle="315" x="96" y="700"/>
  <guideline angle="45" x="427" y="603"/>
  <guideline angle="225" x="580" y="644"/>
  <guideline angle="315" x="544" y="700"/>
  <guideline angle="45" x="40" y="664"/>
  <guideline angle="135" x="76" y="160"/>
  <guideline angle="225" x="580" y="196"/>
  <guideline angle="225" x="192" y="584"/>
  <guideline angle="138.18" x="465" y="549"/>
  <guideline angle="45" x="430" y="274"/>
  <guideline angle="315" x="154" y="310"/>
</glyph>
<glyph name="section" format="2">
  <advance width="500"/>
  <unicode hex="00A7"/>
  <outline>
    <contour>
      <point x="42" y="286" type="curve" smooth="yes"/>
      <point x="42" y="395"/>
      <point x="139" y="435"/>
      <point x="159" y="443" type="curve"/>
      <point x="133" y="455"/>
      <point x="62" y="491"/>
      <point x="62" y="575" type="curve" smooth="yes"/>
      <point x="62" y="674"/>
      <point x="158" y="720"/>
      <point x="266" y="720" type="curve" smooth="yes"/>
      <point x="327" y="720"/>
      <point x="374" y="712"/>
      <point x="427" y="695" type="curve"/>
      <point x="427" y="557" type="line"/>
      <point x="372" y="557" type="line"/>
      <point x="361" y="639" type="line"/>
      <point x="355" y="644"/>
      <point x="324" y="666"/>
      <point x="269" y="666" type="curve" smooth="yes"/>
      <point x="224" y="666"/>
      <point x="178" y="639"/>
      <point x="178" y="589" type="curve" smooth="yes"/>
      <point x="178" y="555"/>
      <point x="208" y="529"/>
      <point x="250" y="509" type="curve" smooth="yes"/>
      <point x="289" y="490" type="line" smooth="yes"/>
      <point x="367" y="452"/>
      <point x="458" y="407"/>
      <point x="458" y="306" type="curve" smooth="yes"/>
      <point x="458" y="186"/>
      <point x="352" y="146"/>
      <point x="337" y="143" type="curve"/>
      <point x="359" y="133"/>
      <point x="438" y="93"/>
      <point x="438" y="13" type="curve" smooth="yes"/>
      <point x="438" y="-103"/>
      <point x="328" y="-143"/>
      <point x="230" y="-143" type="curve" smooth="yes"/>
      <point x="159" y="-143"/>
      <point x="110" y="-133"/>
      <point x="65" y="-110" type="curve"/>
      <point x="65" y="29" type="line"/>
      <point x="126" y="29" type="line"/>
      <point x="139" y="-64" type="line"/>
      <point x="165" y="-80"/>
      <point x="210" y="-87"/>
      <point x="232" y="-87" type="curve" smooth="yes"/>
      <point x="282" y="-87"/>
      <point x="326" y="-56"/>
      <point x="326" y="-10" type="curve" smooth="yes"/>
      <point x="326" y="33"/>
      <point x="288" y="59"/>
      <point x="240" y="83" type="curve" smooth="yes"/>
      <point x="199" y="103" type="line" smooth="yes"/>
      <point x="123" y="140"/>
      <point x="42" y="184"/>
    </contour>
    <contour>
      <point x="131" y="318" type="curve" smooth="yes"/>
      <point x="131" y="237"/>
      <point x="219" y="195"/>
      <point x="285" y="173" type="curve"/>
      <point x="310" y="182"/>
      <point x="366" y="228"/>
      <point x="366" y="272" type="curve" smooth="yes"/>
      <point x="366" y="349"/>
      <point x="277" y="392"/>
      <point x="214" y="413" type="curve"/>
      <point x="196" y="408"/>
      <point x="131" y="378"/>
    </contour>
  </outline>
</glyph>
<glyph name="dieresis" format="2">
  <advance width="348"/>
  <unicode hex="00A8"/>
  <outline>
    <contour>
      <point x="0" y="629" type="curve" smooth="yes"/>
      <point x="0" y="667"/>
      <point x="31" y="698"/>
      <point x="69" y="698" type="curve" smooth="yes"/>
      <point x="107" y="698"/>
      <point x="138" y="667"/>
      <point x="138" y="629" type="curve" smooth="yes"/>
      <point x="138" y="591"/>
      <point x="107" y="560"/>
      <point x="69" y="560" type="curve" smooth="yes"/>
      <point x="31" y="560"/>
      <point x="0" y="591"/>
    </contour>
    <contour>
      <point x="210" y="629" type="curve" smooth="yes"/>
      <point x="210" y="667"/>
      <point x="241" y="698"/>
      <point x="279" y="698" type="curve" smooth="yes"/>
      <point x="317" y="698"/>
      <point x="348" y="667"/>
      <point x="348" y="629" type="curve" smooth="yes"/>
      <point x="348" y="591"/>
      <point x="317" y="560"/>
      <point x="279" y="560" type="curve" smooth="yes"/>
      <point x="241" y="560"/>
      <point x="210" y="591"/>
    </contour>
  </outline>
</glyph>
<glyph name="macron" format="2">
  <advance width="340"/>
  <unicode hex="00AF"/>
  <outline>
    <contour>
      <point x="0" y="560" type="line"/>
      <point x="0" y="641" type="line"/>
      <point x="340" y="641" type="line"/>
      <point x="340" y="560" type="line"/>
    </contour>
  </outline>
</glyph>
<glyph name="degree" format="2">
  <advance width="319"/>
  <unicode hex="00B0"/>
  <outline>
    <contour>
      <point x="40" y="669" type="curve" smooth="yes"/>
      <point x="40" y="737"/>
      <point x="91" y="790"/>
      <point x="159" y="790" type="curve" smooth="yes"/>
      <point x="227" y="790"/>
      <point x="280" y="739"/>
      <point x="280" y="671" type="curve" smooth="yes"/>
      <point x="280" y="603"/>
      <point x="229" y="550"/>
      <point x="161" y="550" type="curve" smooth="yes"/>
      <point x="93" y="550"/>
      <point x="40" y="601"/>
    </contour>
    <contour>
      <point x="100" y="670" type="curve" smooth="yes"/>
      <point x="100" y="636"/>
      <point x="126" y="610"/>
      <point x="160" y="610" type="curve" smooth="yes"/>
      <point x="194" y="610"/>
      <point x="220" y="636"/>
      <point x="220" y="670" type="curve" smooth="yes"/>
      <point x="220" y="704"/>
      <point x="194" y="730"/>
      <point x="160" y="730" type="curve" smooth="yes"/>
      <point x="126" y="730"/>
      <point x="100" y="704"/>
    </contour>
  </outline>
</glyph>
<glyph name="plusminus" format="2">
  <advance width="1000"/>
  <unicode hex="00B1"/>
  <outline>
    <contour>
      <point x="180" y="0" type="line"/>
      <point x="180" y="92" type="line"/>
      <point x="820" y="92" type="line"/>
      <point x="820" y="0" type="line"/>
    </contour>
    <contour>
      <point x="180" y="343" type="line"/>
      <point x="180" y="435" type="line"/>
      <point x="454" y="435" type="line"/>
      <point x="454" y="620" type="line"/>
      <point x="546" y="620" type="line"/>
      <point x="546" y="435" type="line"/>
      <point x="820" y="435" type="line"/>
      <point x="820" y="343" type="line"/>
      <point x="546" y="343" type="line"/>
      <point x="546" y="158" type="line"/>
      <point x="454" y="158" type="line"/>
      <point x="454" y="343" type="line"/>
    </contour>
  </outline>
</glyph>
<glyph name="acute" format="2">
  <advance width="288"/>
  <unicode hex="00B4"/>
  <outline>
    <contour>
      <point x="10" y="560" type="line"/>
      <point x="147" y="711" type="line" smooth="yes"/>
      <point x="170" y="736"/>
      <point x="183" y="743"/>
      <point x="210" y="743" type="curve" smooth="yes"/>
      <point x="253" y="743"/>
      <point x="268" y="714"/>
      <point x="268" y="690" type="curve" smooth="yes"/>
      <point x="268" y="677"/>
      <point x="256" y="656"/>
      <point x="242" y="648" type="curve" smooth="yes"/>
      <point x="80" y="560" type="line"/>
    </contour>
  </outline>
</glyph>
<glyph name="periodcentered" format="2">
  <advance width="187"/>
  <unicode hex="00B7"/>
  <anchor x="94" y="340" name="_center"/>
  <outline>
    <contour>
      <point x="27" y="340" type="curve" smooth="yes"/>
      <point x="27" y="378"/>
      <point x="57" y="407"/>
      <point x="94" y="407" type="curve" smooth="yes"/>
      <point x="132" y="407"/>
      <point x="162" y="378"/>
      <point x="162" y="340" type="curve" smooth="yes"/>
      <point x="162" y="302"/>
      <point x="132" y="273"/>
      <point x="94" y="273" type="curve" smooth="yes"/>
      <point x="56" y="273"/>
      <point x="27" y="302"/>
    </contour>
  </outline>
  <guideline angle="0" x="0" y="340"/>
  <guideline angle="90" x="94" y="0"/>
</glyph>
<glyph name="Eth" format="2">
  <advance width="724"/>
  <unicode hex="00D0"/>
  <outline>
    <component base="D"/>
    <contour>
      <point x="14" y="384" type="line"/>
      <point x="396" y="384" type="line"/>
      <point x="396" y="319" type="line"/>
      <point x="14" y="319" type="line"/>
    </contour>
  </outline>
</glyph>
<glyph name="multiply" format="2">
  <advance width="1000"/>
  <unicode hex="00D7"/>
  <outline>
    <contour>
      <point x="220" y="79" type="line"/>
      <point x="721" y="580" type="line"/>
      <point x="780" y="521" type="line"/>
      <point x="279" y="20" type="line"/>
    </contour>
    <contour>
      <point x="721" y="20" type="line"/>
      <point x="220" y="521" type="line"/>
      <point x="279" y="580" type="line"/>
      <point x="780" y="79" type="line"/>
    </contour>
  </outline>
  <guideline angle="315" x="289" y="570"/>
  <guideline angle="135" x="711" y="30"/>
  <guideline angle="45" x="210" y="69"/>
  <guideline angle="225" x="790" y="531"/>
  <guideline angle="45" x="230" y="531"/>
  <guideline angle="315" x="731" y="570"/>
  <guideline angle="45" x="731" y="30"/>
  <guideline angle="315" x="230" y="69"/>
</glyph>
<glyph name="Oslash" format="2">
  <advance width="755"/>
  <unicode hex="00D8"/>
  <outline>
    <component base="O"/>
    <contour>
      <point x="119" y="-57" type="line"/>
      <point x="579" y="748" type="line"/>
      <point x="631" y="719" type="line"/>
      <point x="170" y="-87" type="line"/>
    </contour>
  </outline>
</glyph>
<glyph name="ae" format="2">
  <advance width="770"/>
  <unicode hex="00E6"/>
  <anchor x="413" y="560" name="top"/>
  <anchor x="414" y="-40" name="bottom"/>
  <outline>
    <contour>
      <point x="32" y="123" type="curve" smooth="yes"/>
      <point x="32" y="206"/>
      <point x="75" y="249"/>
      <point x="190" y="280" type="curve" smooth="yes"/>
      <point x="320" y="314" type="line"/>
      <point x="320" y="342" type="line" smooth="yes"/>
      <point x="320" y="413"/>
      <point x="291" y="446"/>
      <point x="227" y="446" type="curve" smooth="yes"/>
      <point x="215" y="446"/>
      <point x="203" y="445"/>
      <point x="192" y="442" type="curve"/>
      <point x="192" y="346" type="line"/>
      <point x="102" y="346" type="line" smooth="yes"/>
      <point x="63" y="346"/>
      <point x="53" y="355"/>
      <point x="53" y="384" type="curve" smooth="yes"/>
      <point x="53" y="458"/>
      <point x="166" y="501"/>
      <point x="264" y="501" type="curve" smooth="yes"/>
      <point x="330" y="501"/>
      <point x="381" y="483"/>
      <point x="413" y="447" type="curve"/>
      <point x="451" y="484"/>
      <point x="494" y="501"/>
      <point x="553" y="501" type="curve" smooth="yes"/>
      <point x="689" y="501"/>
      <point x="739" y="390"/>
      <point x="739" y="270" type="curve" smooth="yes"/>
      <point x="739" y="263"/>
      <point x="739" y="256"/>
      <point x="738" y="250" type="curve"/>
      <point x="448" y="250" type="line"/>
      <point x="448" y="135" type="line"/>
      <point x="455" y="121"/>
      <point x="495" y="75"/>
      <point x="596" y="75" type="curve" smooth="yes"/>
      <point x="654" y="75"/>
      <point x="698" y="92"/>
      <point x="738" y="129" type="curve"/>
      <point x="738" y="50" type="line"/>
      <point x="691" y="14"/>
      <point x="622" y="-8"/>
      <point x="552" y="-8" type="curve" smooth="yes"/>
      <point x="472" y="-8"/>
      <point x="395" y="20"/>
      <point x="353" y="65" type="curve"/>
      <point x="307" y="21"/>
      <point x="230" y="-8"/>
      <point x="160" y="-8" type="curve" smooth="yes"/>
      <point x="70" y="-8"/>
      <point x="32" y="56"/>
    </contour>
    <contour>
      <point x="170" y="148" type="curve" smooth="yes"/>
      <point x="170" y="108"/>
      <point x="192" y="73"/>
      <point x="234" y="73" type="curve" smooth="yes"/>
      <point x="274" y="73"/>
      <point x="294" y="83"/>
      <point x="320" y="100" type="curve"/>
      <point x="320" y="260" type="line"/>
      <point x="272" y="247"/>
      <point x="239" y="235"/>
      <point x="216" y="222" type="curve" smooth="yes"/>
      <point x="179" y="201"/>
      <point x="170" y="178"/>
    </contour>
    <contour>
      <point x="445" y="306" type="curve"/>
      <point x="602" y="306" type="line"/>
      <point x="602" y="327" type="line" smooth="yes"/>
      <point x="602" y="367"/>
      <point x="597" y="446"/>
      <point x="530" y="446" type="curve" smooth="yes"/>
      <point x="446" y="446"/>
      <point x="445" y="339"/>
    </contour>
  </outline>
</glyph>
<glyph name="oslash" format="2">
  <advance width="583"/>
  <unicode hex="00F8"/>
  <anchor x="291" y="560" name="top"/>
  <anchor x="292" y="-40" name="bottom"/>
  <outline>
    <component base="o"/>
    <contour>
      <point x="90" y="-55" type="line"/>
      <point x="442" y="574" type="line"/>
      <point x="486" y="549" type="line"/>
      <point x="134" y="-83" type="line"/>
    </contour>
  </outline>
</glyph>
<glyph name="thorn" format="2">
  <advance width="604"/>
  <unicode hex="00FE"/>
  <outline>
    <contour>
      <point x="24" y="-172" type="line"/>
      <point x="68" y="-169" type="line" smooth="yes"/>
      <point x="80" y="-168"/>
      <point x="90" y="-159"/>
      <point x="90" y="-146" type="curve" smooth="yes"/>
      <point x="90" y="649" type="line"/>
      <point x="24" y="649" type="line"/>
      <point x="24" y="690" type="line"/>
      <point x="172" y="740" type="line"/>
      <point x="224" y="740" type="line"/>
      <point x="224" y="437" type="line"/>
      <point x="268" y="479"/>
      <point x="319" y="500"/>
      <point x="385" y="500" type="curve" smooth="yes"/>
      <point x="507" y="500"/>
      <point x="572" y="377"/>
      <point x="572" y="258" type="curve" smooth="yes"/>
      <point x="572" y="96"/>
      <point x="467" y="-12"/>
      <point x="302" y="-12" type="curve" smooth="yes"/>
      <point x="273" y="-12"/>
      <point x="242" y="-8"/>
      <point x="224" y="-2" type="curve"/>
      <point x="224" y="-146" type="line" smooth="yes"/>
      <point x="224" y="-159"/>
      <point x="233" y="-168"/>
      <point x="246" y="-169" type="curve" smooth="yes"/>
      <point x="299" y="-172" type="line"/>
      <point x="299" y="-219" type="line"/>
      <point x="24" y="-219" type="line"/>
    </contour>
    <contour>
      <point x="224" y="54" type="line"/>
      <point x="239" y="47"/>
      <point x="262" y="42"/>
      <point x="279" y="42" type="curve" smooth="yes"/>
      <point x="375" y="42"/>
      <point x="424" y="131"/>
      <point x="424" y="243" type="curve" smooth="yes"/>
      <point x="424" y="331"/>
      <point x="385" y="409"/>
      <point x="298" y="409" type="curve" smooth="yes"/>
      <point x="270" y="409"/>
      <point x="240" y="401"/>
      <point x="224" y="394" type="curve"/>
    </contour>
  </outline>
</glyph>
<glyph name="dcroat" format="2">
  <advance width="608"/>
  <unicode hex="0111"/>
  <outline>
    <component base="d"/>
    <contour>
      <point x="241" y="535" type="line"/>
      <point x="241" y="598" type="line"/>
      <point x="609" y="598" type="line"/>
      <point x="609" y="535" type="line"/>
    </contour>
  </outline>
</glyph>
<glyph name="Gcommaaccent" format="2">
  <advance width="715"/>
  <unicode hex="0122"/>
  <outline>
    <component base="G"/>
    <contour>
      <point x="310" y="-134" type="curve" smooth="yes"/>
      <point x="310" y="-95"/>
      <point x="343" y="-76"/>
      <point x="378" y="-76" type="curve" smooth="yes"/>
      <point x="429" y="-76"/>
      <point x="464" y="-114"/>
      <point x="464" y="-161" type="curve" smooth="yes"/>
      <point x="464" y="-229"/>
      <point x="400" y="-277"/>
      <point x="323" y="-292" type="curve"/>
      <point x="323" y="-252" type="line"/>
      <point x="362" y="-241"/>
      <point x="393" y="-210"/>
      <point x="393" y="-178" type="curve"/>
      <point x="330" y="-178" type="line"/>
      <point x="317" y="-166"/>
      <point x="310" y="-150"/>
    </contour>
  </outline>
</glyph>
<glyph name="gcommaaccent" format="2">
  <advance width="555"/>
  <unicode hex="0123"/>
  <outline>
    <component base="g"/>
    <contour>
      <point x="184" y="664" type="curve" smooth="yes"/>
      <point x="184" y="756"/>
      <point x="241" y="829"/>
      <point x="348" y="872" type="curve"/>
      <point x="362" y="834" type="line"/>
      <point x="348" y="829"/>
      <point x="268" y="781"/>
      <point x="268" y="698" type="curve" smooth="yes"/>
      <point x="268" y="687" type="line"/>
      <point x="326" y="687" type="line"/>
      <point x="336" y="675"/>
      <point x="346" y="647"/>
      <point x="346" y="632" type="curve" smooth="yes"/>
      <point x="346" y="586"/>
      <point x="314" y="560"/>
      <point x="274" y="560" type="curve" smooth="yes"/>
      <point x="218" y="560"/>
      <point x="184" y="606"/>
    </contour>
  </outline>
</glyph>
<glyph name="Hbar" format="2">
  <advance width="769"/>
  <unicode hex="0126"/>
  <outline>
    <component base="H"/>
    <contour>
      <point x="30" y="477" type="line"/>
      <point x="30" y="536" type="line"/>
      <point x="739" y="536" type="line"/>
      <point x="739" y="477" type="line"/>
    </contour>
  </outline>
</glyph>
<glyph name="Kcommaaccent" format="2">
  <advance width="682"/>
  <unicode hex="0136"/>
  <outline>
    <component base="K"/>
    <contour>
      <point x="278" y="-118" type="curve" smooth="yes"/>
      <point x="278" y="-79"/>
      <point x="311" y="-60"/>
      <point x="346" y="-60" type="curve" smooth="yes"/>
      <point x="397" y="-60"/>
      <point x="432" y="-98"/>
      <point x="432" y="-145" type="curve" smooth="yes"/>
      <point x="432" y="-213"/>
      <point x="369" y="-261"/>
      <point x="292" y="-276" type="curve"/>
      <point x="292" y="-236" type="line"/>
      <point x="331" y="-225"/>
      <point x="362" y="-194"/>
      <point x="362" y="-162" type="curve"/>
      <point x="298" y="-162" type="line"/>
      <point x="285" y="-150"/>
      <point x="278" y="-134"/>
    </contour>
  </outline>
</glyph>
<glyph name="kcommaaccent" format="2">
  <advance width="591"/>
  <unicode hex="0137"/>
  <outline>
    <component base="k"/>
    <contour>
      <point x="227" y="-118" type="curve" smooth="yes"/>
      <point x="227" y="-79"/>
      <point x="260" y="-60"/>
      <point x="295" y="-60" type="curve" smooth="yes"/>
      <point x="346" y="-60"/>
      <point x="381" y="-98"/>
      <point x="381" y="-145" type="curve" smooth="yes"/>
      <point x="381" y="-213"/>
      <point x="317" y="-261"/>
      <point x="240" y="-276" type="curve"/>
      <point x="240" y="-236" type="line"/>
      <point x="279" y="-225"/>
      <point x="310" y="-194"/>
      <point x="310" y="-162" type="curve"/>
      <point x="247" y="-162" type="line"/>
      <point x="234" y="-150"/>
      <point x="227" y="-134"/>
    </contour>
  </outline>
</glyph>
<glyph name="Lcommaaccent" format="2">
  <advance width="554"/>
  <unicode hex="013B"/>
  <outline>
    <component base="L"/>
    <contour>
      <point x="206" y="-118" type="curve" smooth="yes"/>
      <point x="206" y="-79"/>
      <point x="239" y="-60"/>
      <point x="274" y="-60" type="curve" smooth="yes"/>
      <point x="325" y="-60"/>
      <point x="360" y="-98"/>
      <point x="360" y="-145" type="curve" smooth="yes"/>
      <point x="360" y="-213"/>
      <point x="295" y="-261"/>
      <point x="218" y="-276" type="curve"/>
      <point x="218" y="-236" type="line"/>
      <point x="257" y="-225"/>
      <point x="288" y="-194"/>
      <point x="288" y="-162" type="curve"/>
      <point x="226" y="-162" type="line"/>
      <point x="213" y="-150"/>
      <point x="206" y="-134"/>
    </contour>
  </outline>
</glyph>
<glyph name="lcommaaccent" format="2">
  <advance width="333"/>
  <unicode hex="013C"/>
  <outline>
    <component base="l"/>
    <contour>
      <point x="90" y="-118" type="curve" smooth="yes"/>
      <point x="90" y="-79"/>
      <point x="123" y="-60"/>
      <point x="158" y="-60" type="curve" smooth="yes"/>
      <point x="209" y="-60"/>
      <point x="244" y="-98"/>
      <point x="244" y="-145" type="curve" smooth="yes"/>
      <point x="244" y="-213"/>
      <point x="180" y="-261"/>
      <point x="103" y="-276" type="curve"/>
      <point x="103" y="-236" type="line"/>
      <point x="142" y="-225"/>
      <point x="173" y="-194"/>
      <point x="173" y="-162" type="curve"/>
      <point x="110" y="-162" type="line"/>
      <point x="97" y="-150"/>
      <point x="90" y="-134"/>
    </contour>
  </outline>
</glyph>
<glyph name="Lslash" format="2">
  <advance width="554"/>
  <unicode hex="0141"/>
  <outline>
    <component base="L"/>
    <contour>
      <point x="27" y="220" type="line"/>
      <point x="0" y="269" type="line"/>
      <point x="347" y="499" type="line"/>
      <point x="378" y="453" type="line"/>
    </contour>
  </outline>
</glyph>
<glyph name="lslash" format="2">
  <advance width="333"/>
  <unicode hex="0142"/>
  <outline>
    <component base="l"/>
    <contour>
      <point x="21" y="230" type="line"/>
      <point x="-7" y="278" type="line"/>
      <point x="312" y="501" type="line"/>
      <point x="341" y="454" type="line"/>
    </contour>
  </outline>
</glyph>
<glyph name="Eng" format="2">
  <advance width="757"/>
  <unicode hex="014A"/>
  <outline>
    <contour>
      <point x="27" y="0" type="line"/>
      <point x="27" y="51" type="line"/>
      <point x="82" y="56" type="line" smooth="yes"/>
      <point x="93" y="57"/>
      <point x="104" y="70"/>
      <point x="104" y="83" type="curve" smooth="yes"/>
      <point x="104" y="602" type="line" smooth="yes"/>
      <point x="104" y="608"/>
      <point x="96" y="614"/>
      <point x="89" y="615" type="curve"/>
      <point x="29" y="620" type="line"/>
      <point x="29" y="671" type="line"/>
      <point x="248" y="671" type="line"/>
      <point x="248" y="609" type="line"/>
      <point x="307" y="656"/>
      <point x="391" y="687"/>
      <point x="460" y="687" type="curve" smooth="yes"/>
      <point x="594" y="687"/>
      <point x="668" y="609"/>
      <point x="668" y="467" type="curve" smooth="yes"/>
      <point x="668" y="-37" type="line" smooth="yes"/>
      <point x="668" y="-138"/>
      <point x="597" y="-231"/>
      <point x="503" y="-231" type="curve" smooth="yes"/>
      <point x="398" y="-231"/>
      <point x="326" y="-203"/>
      <point x="326" y="-128" type="curve" smooth="yes"/>
      <point x="326" y="-83"/>
      <point x="360" y="-47"/>
      <point x="399" y="-47" type="curve"/>
      <point x="461" y="-154" type="line"/>
      <point x="507" y="-154"/>
      <point x="525" y="-116"/>
      <point x="525" y="-65" type="curve" smooth="yes"/>
      <point x="525" y="462" type="line" smooth="yes"/>
      <point x="525" y="541"/>
      <point x="480" y="597"/>
      <point x="416" y="597" type="curve" smooth="yes"/>
      <point x="368" y="597"/>
      <point x="304" y="576"/>
      <point x="247" y="541" type="curve"/>
      <point x="247" y="83" type="line" smooth="yes"/>
      <point x="247" y="70"/>
      <point x="259" y="64"/>
      <point x="270" y="62" type="curve" smooth="yes"/>
      <point x="325" y="51" type="line"/>
      <point x="325" y="0" type="line"/>
    </contour>
  </outline>
</glyph>
<glyph name="oe" format="2">
  <advance width="866"/>
  <unicode hex="0153"/>
  <outline>
    <contour>
      <point x="32" y="243" type="curve" smooth="yes"/>
      <point x="32" y="385"/>
      <point x="116" y="501"/>
      <point x="280" y="501" type="curve" smooth="yes"/>
      <point x="362" y="501"/>
      <point x="433" y="466"/>
      <point x="465" y="409" type="curve"/>
      <point x="496" y="466"/>
      <point x="563" y="501"/>
      <point x="640" y="501" type="curve" smooth="yes"/>
      <point x="776" y="501"/>
      <point x="834" y="403"/>
      <point x="834" y="282" type="curve" smooth="yes"/>
      <point x="834" y="274.74"/>
      <point x="834" y="265.26"/>
      <point x="833" y="253" type="curve"/>
      <point x="522" y="253" type="line"/>
      <point x="522" y="173"/>
      <point x="564" y="76"/>
      <point x="677" y="76" type="curve" smooth="yes"/>
      <point x="742" y="76"/>
      <point x="790" y="92"/>
      <point x="834" y="129" type="curve"/>
      <point x="834" y="50" type="line"/>
      <point x="786" y="16"/>
      <point x="726" y="-7"/>
      <point x="642" y="-7" type="curve" smooth="yes"/>
      <point x="494" y="-7"/>
      <point x="460" y="84"/>
      <point x="459" y="88" type="curve"/>
      <point x="399" y="17"/>
      <point x="351" y="-7"/>
      <point x="270" y="-7" type="curve" smooth="yes"/>
      <point x="112" y="-7"/>
      <point x="32" y="110"/>
    </contour>
    <contour>
      <point x="177" y="255" type="curve" smooth="yes"/>
      <point x="177" y="157"/>
      <point x="193" y="48"/>
      <point x="284" y="48" type="curve" smooth="yes"/>
      <point x="369" y="48"/>
      <point x="387" y="156"/>
      <point x="387" y="234" type="curve" smooth="yes"/>
      <point x="387" y="346"/>
      <point x="363" y="446"/>
      <point x="285" y="446" type="curve" smooth="yes"/>
      <point x="192" y="446"/>
      <point x="177" y="326"/>
    </contour>
    <contour>
      <point x="527" y="309" type="curve"/>
      <point x="693" y="309" type="line"/>
      <point x="693" y="328" type="line" smooth="yes"/>
      <point x="693" y="388"/>
      <point x="675" y="446"/>
      <point x="614" y="446" type="curve" smooth="yes"/>
      <point x="548" y="446"/>
      <point x="527" y="363"/>
    </contour>
  </outline>
</glyph>
<glyph name="tcaron" format="2">
  <advance width="375"/>
  <unicode hex="0165"/>
  <outline>
    <component base="t"/>
    <contour>
      <point x="263" y="704" type="curve" smooth="yes"/>
      <point x="263" y="744"/>
      <point x="296" y="762"/>
      <point x="331" y="762" type="curve" smooth="yes"/>
      <point x="382" y="762"/>
      <point x="417" y="725"/>
      <point x="417" y="678" type="curve" smooth="yes"/>
      <point x="417" y="609"/>
      <point x="352" y="561"/>
      <point x="275" y="546" type="curve"/>
      <point x="275" y="586" type="line"/>
      <point x="314" y="597"/>
      <point x="346" y="628"/>
      <point x="346" y="660" type="curve"/>
      <point x="283" y="660" type="line"/>
      <point x="270" y="672"/>
      <point x="263" y="688"/>
    </contour>
  </outline>
</glyph>
<glyph name="Tbar" format="2">
  <advance width="608"/>
  <unicode hex="0166"/>
  <outline>
    <component base="T"/>
    <contour>
      <point x="113" y="323" type="line"/>
      <point x="113" y="386" type="line"/>
      <point x="496" y="386" type="line"/>
      <point x="496" y="323" type="line"/>
    </contour>
  </outline>
</glyph>
<glyph name="tbar" format="2">
  <advance width="375"/>
  <unicode hex="0167"/>
  <outline>
    <component base="t"/>
    <contour>
      <point x="24" y="222" type="line"/>
      <point x="24" y="281" type="line"/>
      <point x="363" y="281" type="line"/>
      <point x="363" y="222" type="line"/>
    </contour>
  </outline>
</glyph>
<glyph name="uni0184" format="2">
  <advance width="639"/>
  <unicode hex="0184"/>
  <outline>
    <contour>
      <point x="21" y="0" type="line"/>
      <point x="21" y="51" type="line"/>
      <point x="82" y="56" type="line" smooth="yes"/>
      <point x="94" y="57"/>
      <point x="104" y="65"/>
      <point x="104" y="78" type="curve" smooth="yes"/>
      <point x="104" y="378" type="line"/>
      <point x="11" y="456" type="line"/>
      <point x="247" y="690" type="line"/>
      <point x="247" y="371" type="line"/>
      <point x="263" y="373"/>
      <point x="283" y="374"/>
      <point x="299" y="374" type="curve" smooth="yes"/>
      <point x="473" y="374"/>
      <point x="602" y="332"/>
      <point x="602" y="195" type="curve" smooth="yes"/>
      <point x="602" y="59"/>
      <point x="510" y="0"/>
      <point x="282" y="0" type="curve" smooth="yes"/>
    </contour>
    <contour>
      <point x="247" y="56" type="line"/>
      <point x="255" y="56"/>
      <point x="266" y="55"/>
      <point x="277" y="55" type="curve" smooth="yes"/>
      <point x="391" y="55"/>
      <point x="452" y="88"/>
      <point x="452" y="188" type="curve" smooth="yes"/>
      <point x="452" y="299"/>
      <point x="373" y="317"/>
      <point x="290" y="317" type="curve" smooth="yes"/>
      <point x="280" y="317"/>
      <point x="260" y="315"/>
      <point x="247" y="313" type="curve"/>
    </contour>
  </outline>
</glyph>
<glyph name="uni0187" format="2">
  <advance width="636"/>
  <unicode hex="0187"/>
  <outline>
    <contour>
      <point x="37" y="336" type="curve" smooth="yes"/>
      <point x="37" y="544"/>
      <point x="191" y="687"/>
      <point x="389" y="687" type="curve" smooth="yes"/>
      <point x="432" y="687"/>
      <point x="464" y="683"/>
      <point x="501" y="674" type="curve"/>
      <point x="501" y="787"/>
      <point x="595" y="851"/>
      <point x="701" y="851" type="curve" smooth="yes"/>
      <point x="740" y="851"/>
      <point x="802" y="806"/>
      <point x="802" y="770" type="curve" smooth="yes"/>
      <point x="802" y="734"/>
      <point x="780" y="703"/>
      <point x="753" y="693" type="curve"/>
      <point x="648" y="790" type="line"/>
      <point x="622" y="780"/>
      <point x="600" y="739"/>
      <point x="600" y="683" type="curve" smooth="yes"/>
      <point x="600" y="475" type="line"/>
      <point x="522" y="475" type="line"/>
      <point x="500" y="587" type="line"/>
      <point x="499" y="593"/>
      <point x="494" y="600"/>
      <point x="487" y="603" type="curve" smooth="yes"/>
      <point x="476" y="608"/>
      <point x="441" y="619"/>
      <point x="416" y="619" type="curve" smooth="yes"/>
      <point x="279" y="619"/>
      <point x="194" y="507"/>
      <point x="194" y="334" type="curve" smooth="yes"/>
      <point x="194" y="194"/>
      <point x="256" y="49"/>
      <point x="424" y="49" type="curve" smooth="yes"/>
      <point x="448" y="49"/>
      <point x="471" y="57"/>
      <point x="482" y="62" type="curve"/>
      <point x="487" y="64"/>
      <point x="498" y="74"/>
      <point x="499" y="81" type="curve"/>
      <point x="521" y="199" type="line"/>
      <point x="600" y="199" type="line"/>
      <point x="600" y="24" type="line"/>
      <point x="568" y="8"/>
      <point x="491" y="-16"/>
      <point x="388" y="-16" type="curve" smooth="yes"/>
      <point x="183" y="-16"/>
      <point x="37" y="130"/>
    </contour>
  </outline>
</glyph>
<glyph name="uni018E" format="2">
  <advance width="598"/>
  <unicode hex="018E"/>
  <outline>
    <contour>
      <point x="30" y="0" type="line"/>
      <point x="30" y="183" type="line"/>
      <point x="103" y="183" type="line"/>
      <point x="118" y="79" type="line" smooth="yes"/>
      <point x="119" y="72"/>
      <point x="128" y="60"/>
      <point x="136" y="60" type="curve" smooth="yes"/>
      <point x="354" y="60" type="line"/>
      <point x="354" y="315" type="line"/>
      <point x="235" y="315" type="line" smooth="yes"/>
      <point x="227" y="315"/>
      <point x="219" y="304"/>
      <point x="218" y="297" type="curve" smooth="yes"/>
      <point x="209" y="229" type="line"/>
      <point x="147" y="229" type="line"/>
      <point x="147" y="464" type="line"/>
      <point x="209" y="464" type="line"/>
      <point x="218" y="396" type="line" smooth="yes"/>
      <point x="219" y="389"/>
      <point x="226" y="378"/>
      <point x="235" y="378" type="curve" smooth="yes"/>
      <point x="354" y="378" type="line"/>
      <point x="354" y="613" type="line"/>
      <point x="168" y="613" type="line" smooth="yes"/>
      <point x="159" y="613"/>
      <point x="152" y="604"/>
      <point x="150" y="594" type="curve" smooth="yes"/>
      <point x="134" y="511" type="line"/>
      <point x="62" y="511" type="line"/>
      <point x="62" y="671" type="line"/>
      <point x="572" y="671" type="line"/>
      <point x="572" y="620" type="line"/>
      <point x="517" y="615" type="line" smooth="yes"/>
      <point x="506" y="614"/>
      <point x="494" y="606"/>
      <point x="494" y="593" type="curve" smooth="yes"/>
      <point x="494" y="78" type="line" smooth="yes"/>
      <point x="494" y="65"/>
      <point x="506" y="57"/>
      <point x="517" y="56" type="curve" smooth="yes"/>
      <point x="572" y="51" type="line"/>
      <point x="572" y="0" type="line"/>
    </contour>
  </outline>
</glyph>
<glyph name="uni0196" format="2">
  <advance width="446"/>
  <unicode hex="0196"/>
  <outline>
    <contour>
      <point x="29" y="620" type="line"/>
      <point x="29" y="671" type="line"/>
      <point x="254" y="671" type="line"/>
      <point x="254" y="133" type="line" smooth="yes"/>
      <point x="254" y="102"/>
      <point x="274" y="86"/>
      <point x="311" y="86" type="curve" smooth="yes"/>
      <point x="330" y="86"/>
      <point x="357" y="114"/>
      <point x="371" y="149" type="curve"/>
      <point x="447" y="149" type="line"/>
      <point x="418" y="48"/>
      <point x="344" y="-16"/>
      <point x="257" y="-16" type="curve" smooth="yes"/>
      <point x="160" y="-16"/>
      <point x="111" y="39"/>
      <point x="111" y="149" type="curve" smooth="yes"/>
      <point x="111" y="593" type="line" smooth="yes"/>
      <point x="111" y="606"/>
      <point x="100" y="614"/>
      <point x="89" y="615" type="curve" smooth="yes"/>
    </contour>
  </outline>
</glyph>
<glyph name="uni019B" format="2">
  <advance width="695"/>
  <unicode hex="019B"/>
  <outline>
    <contour>
      <point x="10" y="0" type="line"/>
      <point x="254" y="463" type="line"/>
      <point x="239" y="500" type="line"/>
      <point x="102" y="377" type="line"/>
      <point x="102" y="461" type="line"/>
      <point x="209" y="556" type="line"/>
      <point x="192" y="605"/>
      <point x="184" y="616"/>
      <point x="168" y="616" type="curve" smooth="yes"/>
      <point x="163" y="616"/>
      <point x="158" y="614"/>
      <point x="156" y="610" type="curve" smooth="yes"/>
      <point x="110" y="522" type="line"/>
      <point x="58" y="522"/>
      <point x="12" y="558"/>
      <point x="12" y="599" type="curve" smooth="yes"/>
      <point x="12" y="663"/>
      <point x="53" y="691"/>
      <point x="146" y="691" type="curve" smooth="yes"/>
      <point x="203" y="691"/>
      <point x="250" y="666"/>
      <point x="283" y="621" type="curve"/>
      <point x="371" y="699" type="line"/>
      <point x="371" y="619" type="line"/>
      <point x="312" y="565" type="line"/>
      <point x="484" y="146" type="line" smooth="yes"/>
      <point x="511" y="81"/>
      <point x="520" y="64"/>
      <point x="531" y="64" type="curve" smooth="yes"/>
      <point x="535" y="64"/>
      <point x="538" y="65"/>
      <point x="543" y="69" type="curve"/>
      <point x="588" y="157" type="line"/>
      <point x="640" y="157"/>
      <point x="687" y="120"/>
      <point x="687" y="78" type="curve" smooth="yes"/>
      <point x="687" y="17"/>
      <point x="644" y="-12"/>
      <point x="552" y="-12" type="curve" smooth="yes"/>
      <point x="483" y="-12"/>
      <point x="439" y="25"/>
      <point x="403" y="113" type="curve" smooth="yes"/>
      <point x="317" y="323" type="line"/>
      <point x="149" y="0" type="line"/>
    </contour>
  </outline>
</glyph>
<glyph name="uni01A5" format="2">
  <advance width="604"/>
  <unicode hex="01A5"/>
  <outline>
    <contour>
      <point x="24" y="-172" type="line"/>
      <point x="68" y="-169" type="line"/>
      <point x="80" y="-169"/>
      <point x="90" y="-159"/>
      <point x="90" y="-146" type="curve" smooth="yes"/>
      <point x="90" y="500" type="line" smooth="yes"/>
      <point x="90" y="644"/>
      <point x="182" y="740"/>
      <point x="319" y="740" type="curve" smooth="yes"/>
      <point x="417" y="740"/>
      <point x="505" y="690"/>
      <point x="505" y="635" type="curve" smooth="yes"/>
      <point x="505" y="599"/>
      <point x="480" y="565"/>
      <point x="453" y="565" type="curve" smooth="yes"/>
      <point x="441" y="565"/>
      <point x="429" y="569"/>
      <point x="420" y="576" type="curve"/>
      <point x="380" y="671" type="line"/>
      <point x="370" y="675"/>
      <point x="355" y="678"/>
      <point x="341" y="678" type="curve" smooth="yes"/>
      <point x="272" y="678"/>
      <point x="224" y="604"/>
      <point x="224" y="500" type="curve" smooth="yes"/>
      <point x="224" y="437" type="line"/>
      <point x="260" y="469"/>
      <point x="339" y="500"/>
      <point x="385" y="500" type="curve" smooth="yes"/>
      <point x="492" y="500"/>
      <point x="572" y="396"/>
      <point x="572" y="258" type="curve" smooth="yes"/>
      <point x="572" y="94"/>
      <point x="466" y="-12"/>
      <point x="302" y="-12" type="curve" smooth="yes"/>
      <point x="275" y="-12"/>
      <point x="241" y="-8"/>
      <point x="224" y="-2" type="curve"/>
      <point x="224" y="-146" type="line" smooth="yes"/>
      <point x="224" y="-159"/>
      <point x="234" y="-169"/>
      <point x="246" y="-169" type="curve"/>
      <point x="299" y="-172" type="line"/>
      <point x="299" y="-219" type="line"/>
      <point x="24" y="-219" type="line"/>
    </contour>
    <contour>
      <point x="224" y="54" type="line"/>
      <point x="237" y="48"/>
      <point x="263" y="42"/>
      <point x="279" y="42" type="curve" smooth="yes"/>
      <point x="367" y="42"/>
      <point x="424" y="120"/>
      <point x="424" y="243" type="curve" smooth="yes"/>
      <point x="424" y="344"/>
      <point x="375" y="409"/>
      <point x="298" y="409" type="curve" smooth="yes"/>
      <point x="277" y="409"/>
      <point x="246" y="403"/>
      <point x="224" y="394" type="curve"/>
    </contour>
  </outline>
</glyph>
<glyph name="uhorn" format="2">
  <advance width="691"/>
  <unicode hex="01B0"/>
  <outline>
    <contour>
      <point x="25" y="409" type="line"/>
      <point x="25" y="450" type="line"/>
      <point x="172" y="500" type="line"/>
      <point x="224" y="500" type="line"/>
      <point x="224" y="190" type="line" smooth="yes"/>
      <point x="224" y="141"/>
      <point x="231" y="79"/>
      <point x="316" y="79" type="curve" smooth="yes"/>
      <point x="358" y="79"/>
      <point x="396" y="96"/>
      <point x="396" y="96" type="curve"/>
      <point x="396" y="409" type="line"/>
      <point x="333" y="409" type="line"/>
      <point x="333" y="450" type="line"/>
      <point x="479" y="500" type="line"/>
      <point x="530" y="500" type="line"/>
      <point x="530" y="432" type="line"/>
      <point x="572" y="449"/>
      <point x="623" y="489"/>
      <point x="623" y="547" type="curve"/>
      <point x="543" y="547" type="line"/>
      <point x="528" y="563"/>
      <point x="521" y="582"/>
      <point x="521" y="603" type="curve" smooth="yes"/>
      <point x="521" y="643"/>
      <point x="551" y="668"/>
      <point x="598" y="668" type="curve" smooth="yes"/>
      <point x="647" y="668"/>
      <point x="682" y="635"/>
      <point x="682" y="570" type="curve" smooth="yes"/>
      <point x="682" y="504"/>
      <point x="620" y="416"/>
      <point x="530" y="389" type="curve"/>
      <point x="530" y="73" type="line" smooth="yes"/>
      <point x="530" y="61"/>
      <point x="541" y="51"/>
      <point x="553" y="50" type="curve" smooth="yes"/>
      <point x="597" y="47" type="line"/>
      <point x="597" y="0" type="line"/>
      <point x="396" y="0" type="line"/>
      <point x="396" y="55" type="line"/>
      <point x="396" y="55"/>
      <point x="311" y="-12"/>
      <point x="238" y="-12" type="curve" smooth="yes"/>
      <point x="124" y="-12"/>
      <point x="90" y="49"/>
      <point x="90" y="151" type="curve" smooth="yes"/>
      <point x="90" y="409" type="line"/>
    </contour>
  </outline>
</glyph>
<glyph name="uni01B8" format="2">
  <advance width="645"/>
  <unicode hex="01B8"/>
  <outline>
    <contour>
      <point x="32" y="64" type="curve" smooth="yes"/>
      <point x="32" y="193"/>
      <point x="150" y="316"/>
      <point x="273" y="316" type="curve"/>
      <point x="64" y="618" type="line"/>
      <point x="64" y="671" type="line"/>
      <point x="576" y="671" type="line"/>
      <point x="576" y="391" type="line"/>
      <point x="504" y="391" type="line"/>
      <point x="496" y="517" type="line"/>
      <point x="496" y="529"/>
      <point x="483" y="544"/>
      <point x="473" y="544" type="curve" smooth="yes"/>
      <point x="220" y="544" type="line"/>
      <point x="401" y="276" type="line"/>
      <point x="372" y="244" type="line"/>
      <point x="365" y="250"/>
      <point x="347" y="253"/>
      <point x="325" y="253" type="curve" smooth="yes"/>
      <point x="245" y="253"/>
      <point x="189" y="178"/>
      <point x="189" y="69" type="curve" smooth="yes"/>
      <point x="189" y="-41"/>
      <point x="277" y="-163"/>
      <point x="356" y="-163" type="curve" smooth="yes"/>
      <point x="384" y="-163"/>
      <point x="423" y="-152"/>
      <point x="450" y="-136" type="curve"/>
      <point x="487" y="7" type="line"/>
      <point x="505" y="17"/>
      <point x="520" y="22"/>
      <point x="536" y="22" type="curve" smooth="yes"/>
      <point x="588" y="22"/>
      <point x="620" y="-13"/>
      <point x="620" y="-68" type="curve" smooth="yes"/>
      <point x="620" y="-156"/>
      <point x="498" y="-231"/>
      <point x="355" y="-231" type="curve" smooth="yes"/>
      <point x="177" y="-231"/>
      <point x="32" y="-98"/>
    </contour>
  </outline>
</glyph>
<glyph name="uni01BB" format="2">
  <advance width="586"/>
  <unicode hex="01BB"/>
  <outline>
    <contour>
      <point x="43" y="0" type="line"/>
      <point x="43" y="83" type="line"/>
      <point x="248" y="219"/>
      <point x="375" y="371"/>
      <point x="375" y="480" type="curve" smooth="yes"/>
      <point x="375" y="562"/>
      <point x="324" y="620"/>
      <point x="251" y="620" type="curve" smooth="yes"/>
      <point x="227" y="620"/>
      <point x="219" y="618"/>
      <point x="194" y="607" type="curve"/>
      <point x="194" y="472" type="line"/>
      <point x="194" y="472"/>
      <point x="158" y="453"/>
      <point x="126" y="453" type="curve" smooth="yes"/>
      <point x="79" y="453"/>
      <point x="51" y="481"/>
      <point x="51" y="527" type="curve" smooth="yes"/>
      <point x="51" y="619"/>
      <point x="155" y="687"/>
      <point x="295" y="687" type="curve" smooth="yes"/>
      <point x="427" y="687"/>
      <point x="522" y="604"/>
      <point x="522" y="489" type="curve" smooth="yes"/>
      <point x="522" y="373"/>
      <point x="436" y="279"/>
      <point x="176" y="108" type="curve"/>
      <point x="460" y="108" type="line"/>
      <point x="479" y="196" type="line"/>
      <point x="543" y="196" type="line"/>
      <point x="543" y="0" type="line"/>
    </contour>
    <contour>
      <point x="63" y="268" type="line"/>
      <point x="63" y="332" type="line"/>
      <point x="570" y="332" type="line"/>
      <point x="570" y="268" type="line"/>
    </contour>
  </outline>
</glyph>
<glyph name="uni01CC" format="2">
  <advance width="949"/>
  <unicode hex="01CC"/>
  <outline>
    <contour>
      <point x="21" y="396" type="line"/>
      <point x="21" y="437" type="line"/>
      <point x="171" y="488" type="line"/>
      <point x="223" y="488" type="line"/>
      <point x="223" y="439" type="line"/>
      <point x="272" y="476"/>
      <point x="340" y="500"/>
      <point x="398" y="500" type="curve" smooth="yes"/>
      <point x="490" y="500"/>
      <point x="534" y="443"/>
      <point x="534" y="326" type="curve" smooth="yes"/>
      <point x="534" y="73" type="line" smooth="yes"/>
      <point x="534" y="61"/>
      <point x="545" y="51"/>
      <point x="557" y="50" type="curve" smooth="yes"/>
      <point x="588" y="47" type="line"/>
      <point x="588" y="0" type="line"/>
      <point x="342" y="0" type="line"/>
      <point x="342" y="47" type="line"/>
      <point x="379" y="50" type="line" smooth="yes"/>
      <point x="391" y="51"/>
      <point x="401" y="61"/>
      <point x="401" y="73" type="curve" smooth="yes"/>
      <point x="401" y="308" type="line" smooth="yes"/>
      <point x="401" y="370"/>
      <point x="370" y="408"/>
      <point x="319" y="408" type="curve" smooth="yes"/>
      <point x="264" y="408"/>
      <point x="223" y="395"/>
      <point x="223" y="395" type="curve"/>
      <point x="223" y="73" type="line" smooth="yes"/>
      <point x="223" y="61"/>
      <point x="234" y="51"/>
      <point x="246" y="50" type="curve" smooth="yes"/>
      <point x="276" y="47" type="line"/>
      <point x="276" y="0" type="line"/>
      <point x="32" y="0" type="line"/>
      <point x="32" y="47" type="line"/>
      <point x="68" y="50" type="line" smooth="yes"/>
      <point x="80" y="51"/>
      <point x="90" y="61"/>
      <point x="90" y="73" type="curve" smooth="yes"/>
      <point x="90" y="396" type="line"/>
    </contour>
    <contour>
      <point x="535" y="-155" type="curve" smooth="yes"/>
      <point x="535" y="-119"/>
      <point x="565" y="-91"/>
      <point x="599" y="-88" type="curve"/>
      <point x="697" y="-187" type="line"/>
      <point x="725" y="-135"/>
      <point x="725" y="-23"/>
      <point x="725" y="-5" type="curve" smooth="yes"/>
      <point x="725" y="409" type="line"/>
      <point x="654" y="409" type="line"/>
      <point x="654" y="450" type="line"/>
      <point x="807" y="500" type="line"/>
      <point x="858" y="500" type="line"/>
      <point x="858" y="47" type="line" smooth="yes"/>
      <point x="858" y="-102"/>
      <point x="789" y="-231"/>
      <point x="635" y="-231" type="curve" smooth="yes"/>
      <point x="581" y="-231"/>
      <point x="535" y="-204"/>
    </contour>
    <contour>
      <point x="713" y="663" type="curve" smooth="yes"/>
      <point x="713" y="706"/>
      <point x="748" y="740"/>
      <point x="791" y="740" type="curve" smooth="yes"/>
      <point x="834" y="740"/>
      <point x="868" y="706"/>
      <point x="868" y="663" type="curve" smooth="yes"/>
      <point x="868" y="620"/>
      <point x="834" y="585"/>
      <point x="791" y="585" type="curve" smooth="yes"/>
      <point x="748" y="585"/>
      <point x="713" y="620"/>
    </contour>
  </outline>
</glyph>
<glyph name="uni01ED" format="2">
  <advance width="582"/>
  <unicode hex="01ED"/>
  <outline>
    <contour>
      <point x="192" y="-130" type="curve" smooth="yes"/>
      <point x="192" y="-88"/>
      <point x="224" y="-40"/>
      <point x="274" y="-5" type="curve"/>
      <point x="336" y="-5" type="line"/>
      <point x="294" y="-37"/>
      <point x="274" y="-69"/>
      <point x="274" y="-104" type="curve" smooth="yes"/>
      <point x="274" y="-136"/>
      <point x="294" y="-156"/>
      <point x="324" y="-156" type="curve" smooth="yes"/>
      <point x="340" y="-156"/>
      <point x="360" y="-147"/>
      <point x="370" y="-137" type="curve"/>
      <point x="398" y="-183" type="line"/>
      <point x="370" y="-204"/>
      <point x="341" y="-214"/>
      <point x="304" y="-214" type="curve" smooth="yes"/>
      <point x="237" y="-214"/>
      <point x="192" y="-180"/>
    </contour>
    <contour>
      <point x="30" y="242" type="curve" smooth="yes"/>
      <point x="30" y="406"/>
      <point x="139" y="500"/>
      <point x="294" y="500" type="curve" smooth="yes"/>
      <point x="459" y="500"/>
      <point x="552" y="393"/>
      <point x="552" y="241" type="curve" smooth="yes"/>
      <point x="552" y="92"/>
      <point x="453" y="-12"/>
      <point x="287" y="-12" type="curve" smooth="yes"/>
      <point x="135" y="-12"/>
      <point x="30" y="84"/>
    </contour>
    <contour>
      <point x="180" y="246" type="curve" smooth="yes"/>
      <point x="180" y="160"/>
      <point x="198" y="45"/>
      <point x="291" y="45" type="curve" smooth="yes"/>
      <point x="382" y="45"/>
      <point x="402" y="153"/>
      <point x="402" y="242" type="curve" smooth="yes"/>
      <point x="402" y="327"/>
      <point x="382" y="443"/>
      <point x="290" y="443" type="curve" smooth="yes"/>
      <point x="200" y="443"/>
      <point x="180" y="332"/>
    </contour>
    <contour>
      <point x="124" y="560" type="line"/>
      <point x="124" y="641" type="line"/>
      <point x="464" y="641" type="line"/>
      <point x="464" y="560" type="line"/>
    </contour>
  </outline>
</glyph>
<glyph name="uni01F1" format="2">
  <advance width="1305"/>
  <unicode hex="01F1"/>
  <outline>
    <contour>
      <point x="26" y="0" type="line"/>
      <point x="26" y="51" type="line"/>
      <point x="81" y="56" type="line" smooth="yes"/>
      <point x="93" y="57"/>
      <point x="104" y="65"/>
      <point x="104" y="78" type="curve" smooth="yes"/>
      <point x="104" y="593" type="line" smooth="yes"/>
      <point x="104" y="606"/>
      <point x="93" y="614"/>
      <point x="81" y="615" type="curve" smooth="yes"/>
      <point x="26" y="620" type="line"/>
      <point x="26" y="671" type="line"/>
      <point x="332" y="671" type="line" smooth="yes"/>
      <point x="560" y="671"/>
      <point x="687" y="538"/>
      <point x="687" y="343" type="curve" smooth="yes"/>
      <point x="687" y="114"/>
      <point x="550" y="0"/>
      <point x="338" y="0" type="curve" smooth="yes"/>
    </contour>
    <contour>
      <point x="247" y="59" type="line"/>
      <point x="330" y="61" type="line" smooth="yes"/>
      <point x="416" y="63"/>
      <point x="526" y="118"/>
      <point x="526" y="332" type="curve" smooth="yes"/>
      <point x="526" y="562"/>
      <point x="413" y="613"/>
      <point x="310" y="613" type="curve" smooth="yes"/>
      <point x="247" y="613" type="line"/>
    </contour>
    <contour>
      <point x="761" y="0" type="line"/>
      <point x="761" y="59" type="line"/>
      <point x="1104" y="610" type="line"/>
      <point x="883" y="610" type="line" smooth="yes"/>
      <point x="875" y="610"/>
      <point x="870" y="606"/>
      <point x="869" y="598" type="curve"/>
      <point x="851" y="489" type="line"/>
      <point x="778" y="489" type="line"/>
      <point x="778" y="671" type="line"/>
      <point x="1263" y="671" type="line"/>
      <point x="1263" y="612" type="line"/>
      <point x="921" y="62" type="line"/>
      <point x="1160" y="62" type="line" smooth="yes"/>
      <point x="1168" y="62"/>
      <point x="1173" y="66"/>
      <point x="1175" y="73" type="curve"/>
      <point x="1195" y="197" type="line"/>
      <point x="1268" y="197" type="line"/>
      <point x="1268" y="0" type="line"/>
    </contour>
  </outline>
</glyph>
<glyph name="uni0205" format="2">
  <advance width="528"/>
  <unicode hex="0205"/>
  <outline>
    <contour>
      <point x="32" y="238" type="curve" smooth="yes"/>
      <point x="32" y="389"/>
      <point x="132" y="500"/>
      <point x="284" y="500" type="curve" smooth="yes"/>
      <point x="441" y="500"/>
      <point x="498" y="388"/>
      <point x="498" y="272" type="curve" smooth="yes"/>
      <point x="498" y="248" type="line"/>
      <point x="170" y="248" type="line"/>
      <point x="170" y="139"/>
      <point x="226" y="71"/>
      <point x="324" y="71" type="curve" smooth="yes"/>
      <point x="425" y="71"/>
      <point x="498" y="127"/>
      <point x="498" y="127" type="curve"/>
      <point x="498" y="47" type="line"/>
      <point x="498" y="47"/>
      <point x="414" y="-12"/>
      <point x="287" y="-12" type="curve" smooth="yes"/>
      <point x="117" y="-12"/>
      <point x="32" y="99"/>
    </contour>
    <contour>
      <point x="175" y="304" type="curve"/>
      <point x="355" y="304" type="line"/>
      <point x="355" y="326" type="line" smooth="yes"/>
      <point x="355" y="390"/>
      <point x="332" y="441"/>
      <point x="273" y="441" type="curve" smooth="yes"/>
      <point x="199" y="441"/>
      <point x="175" y="367"/>
    </contour>
    <contour>
      <point x="-46" y="690" type="curve" smooth="yes"/>
      <point x="-46" y="722"/>
      <point x="-23" y="743"/>
      <point x="11" y="743" type="curve" smooth="yes"/>
      <point x="38" y="743"/>
      <point x="52" y="736"/>
      <point x="75" y="711" type="curve" smooth="yes"/>
      <point x="211" y="560" type="line"/>
      <point x="142" y="560" type="line"/>
      <point x="-20" y="648" type="line"/>
      <point x="-33" y="656"/>
      <point x="-46" y="676"/>
    </contour>
    <contour>
      <point x="169" y="690" type="curve" smooth="yes"/>
      <point x="169" y="722"/>
      <point x="192" y="743"/>
      <point x="226" y="743" type="curve" smooth="yes"/>
      <point x="253" y="743"/>
      <point x="267" y="736"/>
      <point x="289" y="711" type="curve" smooth="yes"/>
      <point x="426" y="560" type="line"/>
      <point x="356" y="560" type="line"/>
      <point x="195" y="648" type="line"/>
      <point x="181" y="655"/>
      <point x="169" y="675"/>
    </contour>
  </outline>
</glyph>
<glyph name="uni020B" format="2">
  <advance width="333"/>
  <unicode hex="020B"/>
  <outline>
    <contour>
      <point x="10" y="560" type="line"/>
      <point x="10" y="650"/>
      <point x="61" y="723"/>
      <point x="166" y="723" type="curve" smooth="yes"/>
      <point x="271" y="723"/>
      <point x="322" y="650"/>
      <point x="322" y="560" type="curve"/>
      <point x="270" y="560" type="line"/>
      <point x="257" y="620"/>
      <point x="211" y="641"/>
      <point x="166" y="641" type="curve" smooth="yes"/>
      <point x="122" y="641"/>
      <point x="75" y="620"/>
      <point x="62" y="560" type="curve"/>
    </contour>
    <contour>
      <point x="32" y="0" type="line"/>
      <point x="32" y="47" type="line"/>
      <point x="78" y="50" type="line" smooth="yes"/>
      <point x="90" y="51"/>
      <point x="100" y="61"/>
      <point x="100" y="73" type="curve" smooth="yes"/>
      <point x="100" y="409" type="line"/>
      <point x="36" y="409" type="line"/>
      <point x="36" y="450" type="line"/>
      <point x="182" y="500" type="line"/>
      <point x="233" y="500" type="line"/>
      <point x="233" y="73" type="line" smooth="yes"/>
      <point x="233" y="61"/>
      <point x="244" y="51"/>
      <point x="256" y="50" type="curve" smooth="yes"/>
      <point x="304" y="47" type="line"/>
      <point x="304" y="0" type="line"/>
    </contour>
  </outline>
</glyph>
<glyph name="uni020C" format="2">
  <advance width="755"/>
  <unicode hex="020C"/>
  <outline>
    <contour>
      <point x="37" y="340" type="curve" smooth="yes"/>
      <point x="37" y="537"/>
      <point x="162" y="687"/>
      <point x="375" y="687" type="curve" smooth="yes"/>
      <point x="583" y="687"/>
      <point x="720" y="526"/>
      <point x="720" y="332" type="curve" smooth="yes"/>
      <point x="720" y="141"/>
      <point x="585" y="-16"/>
      <point x="384" y="-16" type="curve" smooth="yes"/>
      <point x="184" y="-16"/>
      <point x="37" y="113"/>
    </contour>
    <contour>
      <point x="197" y="337" type="curve" smooth="yes"/>
      <point x="197" y="195"/>
      <point x="251" y="47"/>
      <point x="374" y="47" type="curve" smooth="yes"/>
      <point x="508" y="47"/>
      <point x="559" y="199"/>
      <point x="559" y="328" type="curve" smooth="yes"/>
      <point x="559" y="485"/>
      <point x="500" y="620"/>
      <point x="384" y="620" type="curve" smooth="yes"/>
      <point x="245" y="620"/>
      <point x="197" y="471"/>
    </contour>
    <contour>
      <point x="45" y="877" type="curve" smooth="yes"/>
      <point x="45" y="909"/>
      <point x="68" y="930"/>
      <point x="102" y="930" type="curve" smooth="yes"/>
      <point x="129" y="930"/>
      <point x="143" y="923"/>
      <point x="166" y="898" type="curve" smooth="yes"/>
      <point x="302" y="747" type="line"/>
      <point x="233" y="747" type="line"/>
      <point x="71" y="835" type="line"/>
      <point x="58" y="843"/>
      <point x="45" y="863"/>
    </contour>
    <contour>
      <point x="260" y="877" type="curve" smooth="yes"/>
      <point x="260" y="909"/>
      <point x="283" y="930"/>
      <point x="317" y="930" type="curve" smooth="yes"/>
      <point x="344" y="930"/>
      <point x="358" y="923"/>
      <point x="380" y="898" type="curve" smooth="yes"/>
      <point x="517" y="747" type="line"/>
      <point x="447" y="747" type="line"/>
      <point x="286" y="835" type="line"/>
      <point x="272" y="842"/>
      <point x="260" y="862"/>
    </contour>
  </outline>
</glyph>
<glyph name="uni020D" format="2">
  <advance width="582"/>
  <unicode hex="020D"/>
  <outline>
    <contour>
      <point x="24" y="690" type="curve" smooth="yes"/>
      <point x="24" y="722"/>
      <point x="47" y="743"/>
      <point x="81" y="743" type="curve" smooth="yes"/>
      <point x="108" y="743"/>
      <point x="122" y="736"/>
      <point x="145" y="711" type="curve" smooth="yes"/>
      <point x="281" y="560" type="line"/>
      <point x="212" y="560" type="line"/>
      <point x="50" y="648" type="line"/>
      <point x="37" y="656"/>
      <point x="24" y="676"/>
    </contour>
    <contour>
      <point x="30" y="242" type="curve" smooth="yes"/>
      <point x="30" y="406"/>
      <point x="139" y="500"/>
      <point x="294" y="500" type="curve" smooth="yes"/>
      <point x="459" y="500"/>
      <point x="552" y="393"/>
      <point x="552" y="241" type="curve" smooth="yes"/>
      <point x="552" y="92"/>
      <point x="453" y="-12"/>
      <point x="287" y="-12" type="curve" smooth="yes"/>
      <point x="135" y="-12"/>
      <point x="30" y="84"/>
    </contour>
    <contour>
      <point x="180" y="246" type="curve" smooth="yes"/>
      <point x="180" y="160"/>
      <point x="198" y="45"/>
      <point x="291" y="45" type="curve" smooth="yes"/>
      <point x="382" y="45"/>
      <point x="402" y="153"/>
      <point x="402" y="242" type="curve" smooth="yes"/>
      <point x="402" y="327"/>
      <point x="382" y="443"/>
      <point x="290" y="443" type="curve" smooth="yes"/>
      <point x="200" y="443"/>
      <point x="180" y="332"/>
    </contour>
    <contour>
      <point x="239" y="690" type="curve" smooth="yes"/>
      <point x="239" y="722"/>
      <point x="262" y="743"/>
      <point x="296" y="743" type="curve" smooth="yes"/>
      <point x="323" y="743"/>
      <point x="337" y="736"/>
      <point x="359" y="711" type="curve" smooth="yes"/>
      <point x="496" y="560" type="line"/>
      <point x="426" y="560" type="line"/>
      <point x="265" y="648" type="line"/>
      <point x="251" y="655"/>
      <point x="239" y="675"/>
    </contour>
  </outline>
</glyph>
<glyph name="uni0211" format="2">
  <advance width="432"/>
  <unicode hex="0211"/>
  <outline>
    <contour>
      <point x="-110" y="690" type="curve" smooth="yes"/>
      <point x="-110" y="722"/>
      <point x="-88" y="743"/>
      <point x="-54" y="743" type="curve" smooth="yes"/>
      <point x="-27" y="743"/>
      <point x="-13" y="736"/>
      <point x="10" y="711" type="curve" smooth="yes"/>
      <point x="146" y="560" type="line"/>
      <point x="78" y="560" type="line"/>
      <point x="-84" y="648" type="line"/>
      <point x="-97" y="656"/>
      <point x="-110" y="676"/>
    </contour>
    <contour>
      <point x="17" y="408" type="line"/>
      <point x="17" y="449" type="line"/>
      <point x="172" y="500" type="line"/>
      <point x="224" y="500" type="line"/>
      <point x="224" y="394" type="line"/>
      <point x="249" y="426"/>
      <point x="313" y="500"/>
      <point x="359" y="500" type="curve" smooth="yes"/>
      <point x="382" y="500"/>
      <point x="410" y="491"/>
      <point x="422" y="482" type="curve"/>
      <point x="422" y="330" type="line"/>
      <point x="354" y="330" type="line"/>
      <point x="346" y="343"/>
      <point x="328" y="370"/>
      <point x="289" y="370" type="curve" smooth="yes"/>
      <point x="251" y="370"/>
      <point x="224" y="352"/>
      <point x="224" y="352" type="curve"/>
      <point x="224" y="72" type="line" smooth="yes"/>
      <point x="224" y="60"/>
      <point x="233" y="49"/>
      <point x="246" y="49" type="curve"/>
      <point x="310" y="46" type="line"/>
      <point x="310" y="-1" type="line"/>
      <point x="24" y="-1" type="line"/>
      <point x="24" y="46" type="line"/>
      <point x="68" y="49" type="line" smooth="yes"/>
      <point x="80" y="50"/>
      <point x="90" y="60"/>
      <point x="90" y="72" type="curve" smooth="yes"/>
      <point x="90" y="408" type="line"/>
    </contour>
    <contour>
      <point x="104" y="690" type="curve" smooth="yes"/>
      <point x="104" y="722"/>
      <point x="128" y="743"/>
      <point x="162" y="743" type="curve" smooth="yes"/>
      <point x="189" y="743"/>
      <point x="202" y="736"/>
      <point x="224" y="711" type="curve" smooth="yes"/>
      <point x="362" y="560" type="line"/>
      <point x="292" y="560" type="line"/>
      <point x="130" y="648" type="line"/>
      <point x="116" y="655"/>
      <point x="104" y="675"/>
    </contour>
  </outline>
</glyph>
<glyph name="uni021C" format="2">
  <advance width="547"/>
  <unicode hex="021C"/>
  <outline>
    <contour>
      <point x="36" y="485" type="line"/>
      <point x="36" y="637" type="line"/>
      <point x="125" y="679"/>
      <point x="193" y="687"/>
      <point x="261" y="687" type="curve" smooth="yes"/>
      <point x="384" y="687"/>
      <point x="490" y="622"/>
      <point x="490" y="520" type="curve" smooth="yes"/>
      <point x="490" y="442"/>
      <point x="442" y="381"/>
      <point x="351" y="326" type="curve"/>
      <point x="442" y="307"/>
      <point x="508" y="249"/>
      <point x="508" y="166" type="curve" smooth="yes"/>
      <point x="508" y="18"/>
      <point x="281" y="-104"/>
      <point x="59" y="-161" type="curve"/>
      <point x="59" y="-92" type="line"/>
      <point x="229" y="-40"/>
      <point x="352" y="63"/>
      <point x="352" y="156" type="curve" smooth="yes"/>
      <point x="352" y="213"/>
      <point x="331" y="278"/>
      <point x="266" y="281" type="curve"/>
      <point x="225" y="262"/>
      <point x="179" y="245"/>
      <point x="128" y="227" type="curve"/>
      <point x="128" y="296" type="line"/>
      <point x="253" y="340"/>
      <point x="336" y="423"/>
      <point x="336" y="506" type="curve" smooth="yes"/>
      <point x="336" y="577"/>
      <point x="289" y="617"/>
      <point x="237" y="617" type="curve" smooth="yes"/>
      <point x="188" y="617"/>
      <point x="147" y="602"/>
      <point x="125" y="576" type="curve"/>
      <point x="109" y="485" type="line"/>
    </contour>
  </outline>
</glyph>
<glyph name="uni021D" format="2">
  <advance width="478"/>
  <unicode hex="021D"/>
  <outline>
    <contour>
      <point x="35" y="319" type="line"/>
      <point x="35" y="463" type="line"/>
      <point x="103" y="489"/>
      <point x="161" y="500"/>
      <point x="231" y="500" type="curve" smooth="yes"/>
      <point x="357" y="500"/>
      <point x="433" y="454"/>
      <point x="433" y="377" type="curve" smooth="yes"/>
      <point x="433" y="306"/>
      <point x="392" y="244"/>
      <point x="309" y="192" type="curve"/>
      <point x="397" y="177"/>
      <point x="444" y="135"/>
      <point x="444" y="72" type="curve" smooth="yes"/>
      <point x="444" y="-46"/>
      <point x="288" y="-169"/>
      <point x="49" y="-237" type="curve"/>
      <point x="49" y="-174" type="line"/>
      <point x="203" y="-102"/>
      <point x="295" y="-14"/>
      <point x="295" y="62" type="curve" smooth="yes"/>
      <point x="295" y="119"/>
      <point x="275" y="148"/>
      <point x="233" y="153" type="curve"/>
      <point x="196" y="136"/>
      <point x="157" y="121"/>
      <point x="116" y="108" type="curve"/>
      <point x="116" y="170" type="line"/>
      <point x="232" y="222"/>
      <point x="284" y="282"/>
      <point x="284" y="362" type="curve" smooth="yes"/>
      <point x="284" y="401"/>
      <point x="249" y="429"/>
      <point x="200" y="429" type="curve" smooth="yes"/>
      <point x="162" y="429"/>
      <point x="132" y="421"/>
      <point x="109" y="404" type="curve"/>
      <point x="97" y="319" type="line"/>
    </contour>
  </outline>
</glyph>
<glyph name="uni0221" format="2">
  <advance width="681"/>
  <unicode hex="0221"/>
  <outline>
    <contour>
      <point x="32" y="231" type="curve" smooth="yes"/>
      <point x="32" y="403"/>
      <point x="142" y="500"/>
      <point x="293" y="500" type="curve" smooth="yes"/>
      <point x="330" y="500"/>
      <point x="372" y="493"/>
      <point x="386" y="488" type="curve"/>
      <point x="386" y="649" type="line"/>
      <point x="312" y="649" type="line"/>
      <point x="312" y="690" type="line"/>
      <point x="468" y="740" type="line"/>
      <point x="519" y="740" type="line"/>
      <point x="519" y="183" type="line"/>
      <point x="548" y="195"/>
      <point x="579" y="203"/>
      <point x="610" y="203" type="curve" smooth="yes"/>
      <point x="667" y="203"/>
      <point x="700" y="164"/>
      <point x="700" y="120" type="curve" smooth="yes"/>
      <point x="700" y="22"/>
      <point x="619" y="-16"/>
      <point x="538" y="-16" type="curve" smooth="yes"/>
      <point x="497" y="-16"/>
      <point x="443" y="-9"/>
      <point x="412" y="35" type="curve"/>
      <point x="370" y="-18"/>
      <point x="337" y="-81"/>
      <point x="317" y="-128" type="curve"/>
      <point x="266" y="-109" type="line"/>
      <point x="280" y="-67"/>
      <point x="304" y="-20"/>
      <point x="334" y="24" type="curve"/>
      <point x="304" y="6"/>
      <point x="265" y="-12"/>
      <point x="228" y="-12" type="curve" smooth="yes"/>
      <point x="106" y="-12"/>
      <point x="32" y="91"/>
    </contour>
    <contour>
      <point x="178" y="254" type="curve" smooth="yes"/>
      <point x="178" y="150"/>
      <point x="221" y="82"/>
      <point x="308" y="82" type="curve" smooth="yes"/>
      <point x="336" y="82"/>
      <point x="366" y="90"/>
      <point x="388" y="100" type="curve"/>
      <point x="387" y="110"/>
      <point x="386" y="120"/>
      <point x="386" y="132" type="curve" smooth="yes"/>
      <point x="386" y="425" type="line"/>
      <point x="373" y="431"/>
      <point x="344" y="440"/>
      <point x="315" y="440" type="curve" smooth="yes"/>
      <point x="222" y="440"/>
      <point x="178" y="358"/>
    </contour>
    <contour>
      <point x="521" y="128" type="curve"/>
      <point x="521" y="82"/>
      <point x="531" y="33"/>
      <point x="559" y="33" type="curve" smooth="yes"/>
      <point x="598" y="33"/>
      <point x="635" y="69"/>
      <point x="635" y="104" type="curve" smooth="yes"/>
      <point x="635" y="131"/>
      <point x="615" y="143"/>
      <point x="586" y="143" type="curve" smooth="yes"/>
      <point x="563" y="143"/>
      <point x="541" y="138"/>
    </contour>
  </outline>
</glyph>
<glyph name="uni0230" format="2">
  <advance width="755"/>
  <unicode hex="0230"/>
  <outline>
    <contour>
      <point x="307" y="820" type="curve" smooth="yes"/>
      <point x="307" y="857"/>
      <point x="335" y="888"/>
      <point x="375" y="888" type="curve" smooth="yes"/>
      <point x="413" y="888"/>
      <point x="443" y="858"/>
      <point x="443" y="820" type="curve" smooth="yes"/>
      <point x="443" y="783"/>
      <point x="414" y="752"/>
      <point x="375" y="752" type="curve" smooth="yes"/>
      <point x="336" y="752"/>
      <point x="307" y="781"/>
    </contour>
    <contour>
      <point x="37" y="340" type="curve" smooth="yes"/>
      <point x="37" y="537"/>
      <point x="162" y="687"/>
      <point x="375" y="687" type="curve" smooth="yes"/>
      <point x="583" y="687"/>
      <point x="720" y="526"/>
      <point x="720" y="332" type="curve" smooth="yes"/>
      <point x="720" y="141"/>
      <point x="585" y="-16"/>
      <point x="384" y="-16" type="curve" smooth="yes"/>
      <point x="184" y="-16"/>
      <point x="37" y="113"/>
    </contour>
    <contour>
      <point x="197" y="337" type="curve" smooth="yes"/>
      <point x="197" y="195"/>
      <point x="251" y="47"/>
      <point x="374" y="47" type="curve" smooth="yes"/>
      <point x="508" y="47"/>
      <point x="559" y="199"/>
      <point x="559" y="328" type="curve" smooth="yes"/>
      <point x="559" y="485"/>
      <point x="500" y="620"/>
      <point x="384" y="620" type="curve" smooth="yes"/>
      <point x="245" y="620"/>
      <point x="197" y="471"/>
    </contour>
    <contour>
      <point x="205" y="948" type="line"/>
      <point x="205" y="1029" type="line"/>
      <point x="545" y="1029" type="line"/>
      <point x="545" y="948" type="line"/>
    </contour>
  </outline>
</glyph>
<glyph name="uni0239" format="2">
  <advance width="893"/>
  <unicode hex="0239"/>
  <outline>
    <contour>
      <point x="32" y="229" type="curve" smooth="yes"/>
      <point x="32" y="403"/>
      <point x="148" y="500"/>
      <point x="355" y="500" type="curve" smooth="yes"/>
      <point x="408" y="500"/>
      <point x="483" y="494"/>
      <point x="513" y="488" type="curve"/>
      <point x="513" y="437" type="line"/>
      <point x="556" y="473"/>
      <point x="625" y="500"/>
      <point x="674" y="500" type="curve" smooth="yes"/>
      <point x="781" y="500"/>
      <point x="861" y="396"/>
      <point x="861" y="258" type="curve" smooth="yes"/>
      <point x="861" y="94"/>
      <point x="755" y="-12"/>
      <point x="591" y="-12" type="curve" smooth="yes"/>
      <point x="563" y="-12"/>
      <point x="529" y="-8"/>
      <point x="513" y="-2" type="curve"/>
      <point x="513" y="-146" type="line" smooth="yes"/>
      <point x="513" y="-159"/>
      <point x="523" y="-169"/>
      <point x="535" y="-169" type="curve"/>
      <point x="576" y="-172" type="line"/>
      <point x="576" y="-219" type="line"/>
      <point x="302" y="-219" type="line"/>
      <point x="302" y="-172" type="line"/>
      <point x="357" y="-169" type="line"/>
      <point x="370" y="-169"/>
      <point x="379" y="-159"/>
      <point x="379" y="-146" type="curve" smooth="yes"/>
      <point x="379" y="39" type="line"/>
      <point x="345" y="10"/>
      <point x="279" y="-12"/>
      <point x="228" y="-12" type="curve" smooth="yes"/>
      <point x="116" y="-12"/>
      <point x="32" y="91"/>
    </contour>
    <contour>
      <point x="178" y="252" type="curve" smooth="yes"/>
      <point x="178" y="142"/>
      <point x="230" y="75"/>
      <point x="315" y="75" type="curve" smooth="yes"/>
      <point x="339" y="75"/>
      <point x="365" y="77"/>
      <point x="379" y="79" type="curve"/>
      <point x="379" y="437" type="line"/>
      <point x="371" y="439"/>
      <point x="353" y="441"/>
      <point x="339" y="441" type="curve" smooth="yes"/>
      <point x="234" y="441"/>
      <point x="178" y="375"/>
    </contour>
    <contour>
      <point x="513" y="54" type="line"/>
      <point x="526" y="47"/>
      <point x="551" y="42"/>
      <point x="568" y="42" type="curve" smooth="yes"/>
      <point x="656" y="42"/>
      <point x="713" y="120"/>
      <point x="713" y="243" type="curve" smooth="yes"/>
      <point x="713" y="344"/>
      <point x="664" y="409"/>
      <point x="587" y="409" type="curve" smooth="yes"/>
      <point x="560" y="409"/>
      <point x="534" y="404"/>
      <point x="513" y="394" type="curve"/>
    </contour>
  </outline>
</glyph>
<glyph name="uni023A" format="2">
  <advance width="686"/>
  <unicode hex="023A"/>
  <outline>
    <contour>
      <point x="5" y="0" type="line"/>
      <point x="5" y="51" type="line"/>
      <point x="61" y="59" type="line"/>
      <point x="285" y="687" type="line"/>
      <point x="399" y="687" type="line"/>
      <point x="621" y="77" type="line"/>
      <point x="626" y="65"/>
      <point x="629" y="61"/>
      <point x="643" y="58" type="curve"/>
      <point x="681" y="51" type="line"/>
      <point x="681" y="0" type="line"/>
      <point x="405" y="0" type="line"/>
      <point x="405" y="51" type="line"/>
      <point x="464" y="58" type="line"/>
      <point x="469" y="59"/>
      <point x="474" y="65"/>
      <point x="474" y="71" type="curve"/>
      <point x="474" y="72"/>
      <point x="474" y="74"/>
      <point x="473" y="75" type="curve"/>
      <point x="419" y="234" type="line"/>
      <point x="205" y="234" type="line"/>
      <point x="150" y="79" type="line"/>
      <point x="149" y="77"/>
      <point x="149" y="76"/>
      <point x="149" y="74" type="curve"/>
      <point x="149" y="66"/>
      <point x="157" y="59"/>
      <point x="164" y="58" type="curve" smooth="yes"/>
      <point x="220" y="51" type="line"/>
      <point x="220" y="0" type="line"/>
    </contour>
    <contour>
      <point x="75" y="-57" type="line"/>
      <point x="535" y="748" type="line"/>
      <point x="587" y="719" type="line"/>
      <point x="126" y="-87" type="line"/>
    </contour>
    <contour>
      <point x="224" y="293" type="line"/>
      <point x="394" y="293" type="line"/>
      <point x="308" y="533" type="line"/>
    </contour>
  </outline>
</glyph>
<glyph name="uni0254" format="2">
  <advance width="501"/>
  <unicode hex="0254"/>
  <outline>
    <contour>
      <point x="32" y="367" type="curve"/>
      <point x="32" y="443" type="line"/>
      <point x="91" y="480"/>
      <point x="158" y="500"/>
      <point x="228" y="500" type="curve" smooth="yes"/>
      <point x="371" y="500"/>
      <point x="471" y="399"/>
      <point x="471" y="253" type="curve" smooth="yes"/>
      <point x="471" y="102"/>
      <point x="360" y="-12"/>
      <point x="213" y="-12" type="curve" smooth="yes"/>
      <point x="109" y="-12"/>
      <point x="39" y="32"/>
      <point x="39" y="98" type="curve" smooth="yes"/>
      <point x="39" y="140"/>
      <point x="71" y="172"/>
      <point x="111" y="172" type="curve" smooth="yes"/>
      <point x="145" y="172"/>
      <point x="159" y="168"/>
      <point x="178" y="151" type="curve"/>
      <point x="178" y="41" type="line"/>
      <point x="185" y="39"/>
      <point x="187" y="39"/>
      <point x="197" y="39" type="curve" smooth="yes"/>
      <point x="270" y="39"/>
      <point x="324" y="118"/>
      <point x="324" y="225" type="curve" smooth="yes"/>
      <point x="324" y="342"/>
      <point x="265" y="416"/>
      <point x="172" y="416" type="curve" smooth="yes"/>
      <point x="133" y="416"/>
      <point x="60" y="391"/>
    </contour>
  </outline>
</glyph>
<glyph name="uni0255" format="2">
  <advance width="501"/>
  <unicode hex="0255"/>
  <outline>
    <contour>
      <point x="32" y="234" type="curve" smooth="yes"/>
      <point x="32" y="387"/>
      <point x="142" y="500"/>
      <point x="290" y="500" type="curve" smooth="yes"/>
      <point x="393" y="500"/>
      <point x="463" y="455"/>
      <point x="463" y="390" type="curve" smooth="yes"/>
      <point x="463" y="348"/>
      <point x="431" y="315"/>
      <point x="392" y="315" type="curve" smooth="yes"/>
      <point x="359" y="315"/>
      <point x="344" y="320"/>
      <point x="325" y="336" type="curve"/>
      <point x="325" y="447" type="line"/>
      <point x="320" y="448"/>
      <point x="312" y="449"/>
      <point x="306" y="449" type="curve" smooth="yes"/>
      <point x="235" y="449"/>
      <point x="179" y="364"/>
      <point x="179" y="256" type="curve" smooth="yes"/>
      <point x="179" y="165"/>
      <point x="194" y="119"/>
      <point x="234" y="88" type="curve"/>
      <point x="256" y="177"/>
      <point x="302" y="218"/>
      <point x="378" y="218" type="curve" smooth="yes"/>
      <point x="435" y="218"/>
      <point x="478" y="178"/>
      <point x="478" y="124" type="curve" smooth="yes"/>
      <point x="478" y="46"/>
      <point x="405" y="-12"/>
      <point x="307" y="-12" type="curve" smooth="yes"/>
      <point x="299" y="-12"/>
      <point x="285" y="-10"/>
      <point x="276" y="-8" type="curve"/>
      <point x="269" y="-49"/>
      <point x="265" y="-90"/>
      <point x="265" y="-126" type="curve"/>
      <point x="212" y="-126" type="line"/>
      <point x="212" y="-87"/>
      <point x="216" y="-40"/>
      <point x="224" y="1" type="curve"/>
      <point x="110" y="32"/>
      <point x="32" y="127"/>
    </contour>
    <contour>
      <point x="294" y="65" type="curve"/>
      <point x="306" y="62"/>
      <point x="311" y="62"/>
      <point x="330" y="62" type="curve" smooth="yes"/>
      <point x="370" y="62"/>
      <point x="394" y="85"/>
      <point x="394" y="122" type="curve" smooth="yes"/>
      <point x="394" y="140"/>
      <point x="381" y="151"/>
      <point x="360" y="151" type="curve" smooth="yes"/>
      <point x="330" y="151"/>
      <point x="309" y="123"/>
    </contour>
  </outline>
</glyph>
<glyph name="uni0256" format="2">
  <advance width="625"/>
  <unicode hex="0256"/>
  <outline>
    <contour>
      <point x="32" y="233" type="curve" smooth="yes"/>
      <point x="32" y="396"/>
      <point x="133" y="500"/>
      <point x="293" y="500" type="curve" smooth="yes"/>
      <point x="321" y="500"/>
      <point x="368" y="495"/>
      <point x="386" y="491" type="curve"/>
      <point x="386" y="649" type="line"/>
      <point x="312" y="649" type="line"/>
      <point x="312" y="690" type="line"/>
      <point x="468" y="740" type="line"/>
      <point x="519" y="740" type="line"/>
      <point x="519" y="-17" type="line" smooth="yes"/>
      <point x="519" y="-125"/>
      <point x="530" y="-157"/>
      <point x="575" y="-175" type="curve"/>
      <point x="668" y="-67" type="line"/>
      <point x="702" y="-83"/>
      <point x="722" y="-111"/>
      <point x="722" y="-146" type="curve" smooth="yes"/>
      <point x="722" y="-198"/>
      <point x="667" y="-231"/>
      <point x="580" y="-231" type="curve" smooth="yes"/>
      <point x="460" y="-231"/>
      <point x="386" y="-149"/>
      <point x="386" y="-17" type="curve" smooth="yes"/>
      <point x="386" y="58" type="line"/>
      <point x="346" y="20"/>
      <point x="273" y="-12"/>
      <point x="228" y="-12" type="curve" smooth="yes"/>
      <point x="111" y="-12"/>
      <point x="32" y="86"/>
    </contour>
    <contour>
      <point x="178" y="256" type="curve" smooth="yes"/>
      <point x="178" y="145"/>
      <point x="226" y="80"/>
      <point x="308" y="80" type="curve" smooth="yes"/>
      <point x="336" y="80"/>
      <point x="362" y="86"/>
      <point x="386" y="99" type="curve"/>
      <point x="386" y="425" type="line"/>
      <point x="368" y="433"/>
      <point x="335" y="440"/>
      <point x="315" y="440" type="curve" smooth="yes"/>
      <point x="230" y="440"/>
      <point x="178" y="370"/>
    </contour>
  </outline>
</glyph>
<glyph name="uni0258" format="2">
  <advance width="528"/>
  <unicode hex="0258"/>
  <outline>
    <contour>
      <point x="31" y="248" type="line"/>
      <point x="31" y="282" type="line" smooth="yes"/>
      <point x="31" y="416"/>
      <point x="119" y="500"/>
      <point x="258" y="500" type="curve" smooth="yes"/>
      <point x="400" y="500"/>
      <point x="498" y="393"/>
      <point x="498" y="238" type="curve" smooth="yes"/>
      <point x="498" y="95"/>
      <point x="394" y="-12"/>
      <point x="253" y="-12" type="curve" smooth="yes"/>
      <point x="149" y="-12"/>
      <point x="87" y="11"/>
      <point x="40" y="66" type="curve"/>
      <point x="40" y="133" type="line"/>
      <point x="95" y="76"/>
      <point x="168" y="43"/>
      <point x="241" y="43" type="curve" smooth="yes"/>
      <point x="310" y="43"/>
      <point x="350" y="118"/>
      <point x="350" y="248" type="curve"/>
    </contour>
    <contour>
      <point x="155" y="304" type="curve"/>
      <point x="345" y="304" type="line"/>
      <point x="338" y="387"/>
      <point x="299" y="443"/>
      <point x="250" y="443" type="curve" smooth="yes"/>
      <point x="204" y="443"/>
      <point x="162" y="382"/>
    </contour>
  </outline>
</glyph>
<glyph name="uni025D" format="2">
  <advance width="618"/>
  <unicode hex="025D"/>
  <outline>
    <contour>
      <point x="23" y="66" type="curve"/>
      <point x="23" y="145" type="line"/>
      <point x="91" y="82"/>
      <point x="149" y="54"/>
      <point x="208" y="54" type="curve" smooth="yes"/>
      <point x="257" y="54"/>
      <point x="287" y="88"/>
      <point x="287" y="143" type="curve" smooth="yes"/>
      <point x="287" y="189"/>
      <point x="260" y="209"/>
      <point x="195" y="211" type="curve" smooth="yes"/>
      <point x="168" y="212" type="line"/>
      <point x="168" y="260" type="line"/>
      <point x="242" y="260"/>
      <point x="268" y="285"/>
      <point x="268" y="353" type="curve" smooth="yes"/>
      <point x="268" y="401"/>
      <point x="241" y="441"/>
      <point x="209" y="441" type="curve" smooth="yes"/>
      <point x="190" y="441"/>
      <point x="169" y="437"/>
      <point x="154" y="431" type="curve"/>
      <point x="154" y="349" type="line"/>
      <point x="144" y="329"/>
      <point x="121" y="317"/>
      <point x="93" y="317" type="curve" smooth="yes"/>
      <point x="57" y="317"/>
      <point x="27" y="349"/>
      <point x="27" y="386" type="curve" smooth="yes"/>
      <point x="27" y="454"/>
      <point x="99" y="500"/>
      <point x="206" y="500" type="curve" smooth="yes"/>
      <point x="310" y="500"/>
      <point x="391" y="436"/>
      <point x="391" y="353" type="curve" smooth="yes"/>
      <point x="391" y="316"/>
      <point x="370" y="274"/>
      <point x="334" y="241" type="curve"/>
      <point x="329" y="257" type="line"/>
      <point x="384" y="233"/>
      <point x="414" y="193"/>
      <point x="414" y="142" type="curve" smooth="yes"/>
      <point x="414" y="42"/>
      <point x="342" y="-12"/>
      <point x="207" y="-12" type="curve" smooth="yes"/>
      <point x="140" y="-12"/>
      <point x="78" y="14"/>
    </contour>
    <contour>
      <point x="316" y="398" type="line"/>
      <point x="457" y="491" type="line"/>
      <point x="496" y="471" type="line"/>
      <point x="496" y="375" type="line" smooth="yes"/>
      <point x="496" y="337"/>
      <point x="502" y="303"/>
      <point x="535" y="303" type="curve" smooth="yes"/>
      <point x="578" y="303"/>
      <point x="587" y="354"/>
      <point x="594" y="394" type="curve"/>
      <point x="632" y="373" type="line"/>
      <point x="623" y="327"/>
      <point x="606" y="257"/>
      <point x="530" y="257" type="curve" smooth="yes"/>
      <point x="482" y="257"/>
      <point x="448" y="305"/>
      <point x="448" y="349" type="curve" smooth="yes"/>
      <point x="448" y="431" type="line"/>
      <point x="337" y="356" type="line"/>
    </contour>
  </outline>
</glyph>
<glyph name="uni025F" format="2">
  <advance width="324"/>
  <unicode hex="025F"/>
  <anchor x="167" y="560" name="top"/>
  <outline>
    <component base="uni0237"/>
    <contour>
      <point x="13" y="217" type="line"/>
      <point x="13" y="280" type="line"/>
      <point x="311" y="280" type="line"/>
      <point x="311" y="217" type="line"/>
    </contour>
  </outline>
</glyph>
<glyph name="uni0260" format="2">
  <advance width="606"/>
  <unicode hex="0260"/>
  <outline>
    <contour>
      <point x="32" y="231" type="curve" smooth="yes"/>
      <point x="32" y="395"/>
      <point x="127" y="500"/>
      <point x="275" y="500" type="curve" smooth="yes"/>
      <point x="310" y="500"/>
      <point x="348" y="484"/>
      <point x="385" y="453" type="curve"/>
      <point x="385" y="467" type="line" smooth="yes"/>
      <point x="385" y="647"/>
      <point x="466" y="740"/>
      <point x="622" y="740" type="curve" smooth="yes"/>
      <point x="678" y="740"/>
      <point x="718" y="708"/>
      <point x="718" y="664" type="curve" smooth="yes"/>
      <point x="718" y="637"/>
      <point x="694" y="611"/>
      <point x="656" y="598" type="curve"/>
      <point x="557" y="691" type="line"/>
      <point x="527" y="676"/>
      <point x="518" y="650"/>
      <point x="518" y="582" type="curve" smooth="yes"/>
      <point x="518" y="10" type="line" smooth="yes"/>
      <point x="518" y="-150"/>
      <point x="432" y="-231"/>
      <point x="264" y="-231" type="curve" smooth="yes"/>
      <point x="150" y="-231"/>
      <point x="66" y="-182"/>
      <point x="66" y="-116" type="curve" smooth="yes"/>
      <point x="66" y="-87"/>
      <point x="99" y="-57"/>
      <point x="131" y="-57" type="curve" smooth="yes"/>
      <point x="145" y="-57"/>
      <point x="167" y="-62"/>
      <point x="167" y="-62" type="curve"/>
      <point x="204" y="-156" type="line"/>
      <point x="228" y="-173"/>
      <point x="245" y="-178"/>
      <point x="276" y="-178" type="curve" smooth="yes"/>
      <point x="340" y="-178"/>
      <point x="385" y="-100"/>
      <point x="385" y="10" type="curve" smooth="yes"/>
      <point x="385" y="57" type="line"/>
      <point x="340" y="16"/>
      <point x="277" y="-12"/>
      <point x="228" y="-12" type="curve" smooth="yes"/>
      <point x="111" y="-12"/>
      <point x="32" y="85"/>
    </contour>
    <contour>
      <point x="177" y="254" type="curve" smooth="yes"/>
      <point x="177" y="143"/>
      <point x="225" y="79"/>
      <point x="307" y="79" type="curve" smooth="yes"/>
      <point x="333" y="79"/>
      <point x="369" y="88"/>
      <point x="385" y="98" type="curve"/>
      <point x="385" y="389" type="line"/>
      <point x="370" y="413"/>
      <point x="324" y="440"/>
      <point x="297" y="440" type="curve" smooth="yes"/>
      <point x="216" y="440"/>
      <point x="177" y="379"/>
    </contour>
  </outline>
</glyph>
<glyph name="uni0262" format="2">
  <advance width="575"/>
  <unicode hex="0262"/>
  <outline>
    <contour>
      <point x="32" y="245" type="curve" smooth="yes"/>
      <point x="32" y="397"/>
      <point x="147" y="500"/>
      <point x="317" y="500" type="curve" smooth="yes"/>
      <point x="373" y="500"/>
      <point x="473" y="484"/>
      <point x="500" y="470" type="curve"/>
      <point x="500" y="337" type="line"/>
      <point x="428" y="337" type="line"/>
      <point x="413" y="419" type="line"/>
      <point x="412" y="422"/>
      <point x="406" y="428"/>
      <point x="401" y="430" type="curve"/>
      <point x="384" y="438"/>
      <point x="365" y="442"/>
      <point x="347" y="442" type="curve" smooth="yes"/>
      <point x="234" y="442"/>
      <point x="165" y="368"/>
      <point x="165" y="248" type="curve" smooth="yes"/>
      <point x="165" y="125"/>
      <point x="234" y="53"/>
      <point x="350" y="53" type="curve" smooth="yes"/>
      <point x="361" y="53"/>
      <point x="369" y="54"/>
      <point x="380" y="55" type="curve"/>
      <point x="380" y="182" type="line" smooth="yes"/>
      <point x="380" y="189"/>
      <point x="373" y="196"/>
      <point x="367" y="196" type="curve"/>
      <point x="309" y="200" type="line"/>
      <point x="309" y="247" type="line"/>
      <point x="557" y="247" type="line"/>
      <point x="557" y="200" type="line"/>
      <point x="512" y="196" type="line"/>
      <point x="506" y="195"/>
      <point x="499" y="188"/>
      <point x="499" y="182" type="curve" smooth="yes"/>
      <point x="499" y="23" type="line"/>
      <point x="455" y="1"/>
      <point x="386" y="-12"/>
      <point x="312" y="-12" type="curve" smooth="yes"/>
      <point x="148" y="-12"/>
      <point x="32" y="94"/>
    </contour>
  </outline>
</glyph>
<glyph name="uni0267" format="2">
  <advance width="606"/>
  <unicode hex="0267"/>
  <outline>
    <contour>
      <point x="27" y="0" type="line"/>
      <point x="27" y="47" type="line"/>
      <point x="68" y="50" type="line" smooth="yes"/>
      <point x="80" y="51"/>
      <point x="90" y="61"/>
      <point x="90" y="73" type="curve" smooth="yes"/>
      <point x="90" y="500" type="line" smooth="yes"/>
      <point x="90" y="644"/>
      <point x="182" y="740"/>
      <point x="319" y="740" type="curve" smooth="yes"/>
      <point x="417" y="740"/>
      <point x="505" y="690"/>
      <point x="505" y="635" type="curve" smooth="yes"/>
      <point x="505" y="599"/>
      <point x="480" y="565"/>
      <point x="453" y="565" type="curve" smooth="yes"/>
      <point x="441" y="565"/>
      <point x="429" y="569"/>
      <point x="420" y="576" type="curve"/>
      <point x="380" y="671" type="line"/>
      <point x="368" y="676"/>
      <point x="356" y="678"/>
      <point x="341" y="678" type="curve" smooth="yes"/>
      <point x="272" y="678"/>
      <point x="224" y="604"/>
      <point x="224" y="500" type="curve" smooth="yes"/>
      <point x="224" y="438" type="line"/>
      <point x="281" y="476"/>
      <point x="349" y="500"/>
      <point x="399" y="500" type="curve" smooth="yes"/>
      <point x="484" y="500"/>
      <point x="536" y="440"/>
      <point x="536" y="343" type="curve" smooth="yes"/>
      <point x="536" y="50" type="line" smooth="yes"/>
      <point x="536" y="-132"/>
      <point x="464" y="-231"/>
      <point x="331" y="-231" type="curve" smooth="yes"/>
      <point x="234" y="-231"/>
      <point x="172" y="-199"/>
      <point x="172" y="-149" type="curve" smooth="yes"/>
      <point x="172" y="-109"/>
      <point x="190" y="-82"/>
      <point x="229" y="-61" type="curve"/>
      <point x="336" y="-172" type="line"/>
      <point x="376" y="-172"/>
      <point x="402" y="-103"/>
      <point x="402" y="6" type="curve" smooth="yes"/>
      <point x="402" y="309" type="line" smooth="yes"/>
      <point x="402" y="369"/>
      <point x="369" y="408"/>
      <point x="318" y="408" type="curve" smooth="yes"/>
      <point x="290" y="408"/>
      <point x="255" y="403"/>
      <point x="224" y="395" type="curve"/>
      <point x="224" y="73" type="line" smooth="yes"/>
      <point x="224" y="61"/>
      <point x="234" y="51"/>
      <point x="246" y="50" type="curve" smooth="yes"/>
      <point x="281" y="47" type="line"/>
      <point x="281" y="0" type="line"/>
    </contour>
  </outline>
</glyph>
<glyph name="uni0268" format="2">
  <advance width="333"/>
  <unicode hex="0268"/>
  <outline>
    <contour>
      <point x="27" y="217" type="line"/>
      <point x="27" y="281" type="line"/>
      <point x="307" y="281" type="line"/>
      <point x="307" y="217" type="line"/>
    </contour>
    <contour>
      <point x="32" y="0" type="line"/>
      <point x="32" y="47" type="line"/>
      <point x="78" y="50" type="line" smooth="yes"/>
      <point x="90" y="51"/>
      <point x="100" y="61"/>
      <point x="100" y="73" type="curve" smooth="yes"/>
      <point x="100" y="409" type="line"/>
      <point x="36" y="409" type="line"/>
      <point x="36" y="450" type="line"/>
      <point x="182" y="500" type="line"/>
      <point x="233" y="500" type="line"/>
      <point x="233" y="73" type="line" smooth="yes"/>
      <point x="233" y="61"/>
      <point x="244" y="51"/>
      <point x="256" y="50" type="curve" smooth="yes"/>
      <point x="304" y="47" type="line"/>
      <point x="304" y="0" type="line"/>
    </contour>
    <contour>
      <point x="92" y="663" type="curve" smooth="yes"/>
      <point x="92" y="706"/>
      <point x="126" y="740"/>
      <point x="169" y="740" type="curve" smooth="yes"/>
      <point x="212" y="740"/>
      <point x="247" y="706"/>
      <point x="247" y="663" type="curve" smooth="yes"/>
      <point x="247" y="620"/>
      <point x="212" y="585"/>
      <point x="169" y="585" type="curve" smooth="yes"/>
      <point x="126" y="585"/>
      <point x="92" y="620"/>
    </contour>
  </outline>
</glyph>
<glyph name="uni026C" format="2">
  <advance width="384"/>
  <unicode hex="026C"/>
  <outline>
    <contour>
      <point x="-11" y="383" type="curve" smooth="yes"/>
      <point x="-11" y="459"/>
      <point x="52" y="483"/>
      <point x="86" y="483" type="curve" smooth="yes"/>
      <point x="112" y="483"/>
      <point x="131" y="476"/>
      <point x="143" y="468" type="curve"/>
      <point x="143" y="410" type="line"/>
      <point x="120" y="428"/>
      <point x="100" y="432"/>
      <point x="77" y="432" type="curve" smooth="yes"/>
      <point x="58" y="432"/>
      <point x="40" y="419"/>
      <point x="40" y="391" type="curve" smooth="yes"/>
      <point x="40" y="333"/>
      <point x="68" y="310"/>
      <point x="143" y="310" type="curve"/>
      <point x="143" y="258" type="line"/>
      <point x="64" y="258"/>
      <point x="-11" y="287"/>
    </contour>
    <contour>
      <point x="52" y="649" type="line"/>
      <point x="52" y="690" type="line"/>
      <point x="205" y="740" type="line"/>
      <point x="256" y="740" type="line"/>
      <point x="256" y="73" type="line" smooth="yes"/>
      <point x="256" y="60"/>
      <point x="265" y="51"/>
      <point x="278" y="50" type="curve" smooth="yes"/>
      <point x="328" y="47" type="line"/>
      <point x="328" y="0" type="line"/>
      <point x="52" y="0" type="line"/>
      <point x="52" y="47" type="line"/>
      <point x="101" y="50" type="line" smooth="yes"/>
      <point x="114" y="51"/>
      <point x="123" y="60"/>
      <point x="123" y="73" type="curve" smooth="yes"/>
      <point x="123" y="649" type="line"/>
    </contour>
    <contour>
      <point x="236" y="255" type="curve"/>
      <point x="236" y="308" type="line"/>
      <point x="296" y="323"/>
      <point x="344" y="354"/>
      <point x="374" y="381" type="curve"/>
      <point x="385" y="335" type="line"/>
      <point x="352" y="305"/>
      <point x="287" y="268"/>
    </contour>
  </outline>
</glyph>
<glyph name="uni026E" format="2">
  <advance width="646"/>
  <unicode hex="026E"/>
  <outline>
    <contour>
      <point x="20" y="649" type="line"/>
      <point x="20" y="690" type="line"/>
      <point x="172" y="740" type="line"/>
      <point x="223" y="740" type="line"/>
      <point x="223" y="488" type="line"/>
      <point x="588" y="488" type="line"/>
      <point x="588" y="442" type="line"/>
      <point x="406" y="201" type="line"/>
      <point x="519" y="201"/>
      <point x="616" y="119"/>
      <point x="616" y="24" type="curve" smooth="yes"/>
      <point x="616" y="-107"/>
      <point x="486" y="-219"/>
      <point x="335" y="-219" type="curve" smooth="yes"/>
      <point x="210" y="-219"/>
      <point x="104" y="-160"/>
      <point x="104" y="-91" type="curve" smooth="yes"/>
      <point x="104" y="-48"/>
      <point x="133" y="-20"/>
      <point x="177" y="-20" type="curve" smooth="yes"/>
      <point x="193" y="-20"/>
      <point x="206" y="-24"/>
      <point x="220" y="-32" type="curve"/>
      <point x="253" y="-144" type="line"/>
      <point x="275" y="-150"/>
      <point x="318" y="-156"/>
      <point x="344" y="-156" type="curve" smooth="yes"/>
      <point x="409" y="-156"/>
      <point x="469" y="-70"/>
      <point x="469" y="23" type="curve" smooth="yes"/>
      <point x="469" y="107"/>
      <point x="431" y="152"/>
      <point x="361" y="152" type="curve" smooth="yes"/>
      <point x="346" y="152"/>
      <point x="332" y="149"/>
      <point x="322" y="144" type="curve"/>
      <point x="295" y="170" type="line"/>
      <point x="447" y="374" type="line"/>
      <point x="223" y="374" type="line"/>
      <point x="223" y="73" type="line" smooth="yes"/>
      <point x="223" y="61"/>
      <point x="232" y="51"/>
      <point x="246" y="50" type="curve" smooth="yes"/>
      <point x="295" y="47" type="line"/>
      <point x="295" y="0" type="line"/>
      <point x="20" y="0" type="line"/>
      <point x="20" y="47" type="line"/>
      <point x="68" y="50" type="line" smooth="yes"/>
      <point x="81" y="51"/>
      <point x="90" y="60"/>
      <point x="90" y="73" type="curve" smooth="yes"/>
      <point x="90" y="649" type="line"/>
    </contour>
  </outline>
</glyph>
<glyph name="uni0270" format="2">
  <advance width="905"/>
  <unicode hex="0270"/>
  <outline>
    <contour>
      <point x="27" y="441" type="line"/>
      <point x="27" y="488" type="line"/>
      <point x="273" y="488" type="line"/>
      <point x="273" y="441" type="line"/>
      <point x="242" y="438" type="line" smooth="yes"/>
      <point x="229" y="437"/>
      <point x="219" y="427"/>
      <point x="219" y="415" type="curve" smooth="yes"/>
      <point x="219" y="174" type="line" smooth="yes"/>
      <point x="219" y="113"/>
      <point x="250" y="80"/>
      <point x="306" y="80" type="curve" smooth="yes"/>
      <point x="338" y="80"/>
      <point x="364" y="85"/>
      <point x="386" y="96" type="curve"/>
      <point x="386" y="415" type="line" smooth="yes"/>
      <point x="386" y="427"/>
      <point x="376" y="437"/>
      <point x="363" y="438" type="curve" smooth="yes"/>
      <point x="333" y="441" type="line"/>
      <point x="333" y="488" type="line"/>
      <point x="573" y="488" type="line"/>
      <point x="573" y="441" type="line"/>
      <point x="542" y="438" type="line" smooth="yes"/>
      <point x="530" y="437"/>
      <point x="520" y="427"/>
      <point x="520" y="415" type="curve" smooth="yes"/>
      <point x="520" y="174" type="line" smooth="yes"/>
      <point x="520" y="115"/>
      <point x="552" y="80"/>
      <point x="606" y="80" type="curve" smooth="yes"/>
      <point x="640" y="80"/>
      <point x="673" y="87"/>
      <point x="687" y="96" type="curve"/>
      <point x="687" y="415" type="line" smooth="yes"/>
      <point x="687" y="427"/>
      <point x="677" y="437"/>
      <point x="664" y="438" type="curve" smooth="yes"/>
      <point x="633" y="441" type="line"/>
      <point x="633" y="488" type="line"/>
      <point x="878" y="488" type="line"/>
      <point x="878" y="441" type="line"/>
      <point x="842" y="438" type="line" smooth="yes"/>
      <point x="830" y="437"/>
      <point x="820" y="427"/>
      <point x="820" y="415" type="curve" smooth="yes"/>
      <point x="820" y="-140" type="line"/>
      <point x="884" y="-140" type="line"/>
      <point x="884" y="-181" type="line"/>
      <point x="737" y="-231" type="line"/>
      <point x="687" y="-231" type="line"/>
      <point x="687" y="49" type="line"/>
      <point x="638" y="15"/>
      <point x="566" y="-11"/>
      <point x="523" y="-11" type="curve" smooth="yes"/>
      <point x="469" y="-11"/>
      <point x="427" y="12"/>
      <point x="402" y="56" type="curve"/>
      <point x="350" y="17"/>
      <point x="275" y="-11"/>
      <point x="224" y="-11" type="curve" smooth="yes"/>
      <point x="142" y="-11"/>
      <point x="86" y="51"/>
      <point x="86" y="141" type="curve" smooth="yes"/>
      <point x="86" y="415" type="line" smooth="yes"/>
      <point x="86" y="427"/>
      <point x="76" y="437"/>
      <point x="64" y="438" type="curve" smooth="yes"/>
    </contour>
  </outline>
</glyph>
<glyph name="uni0277" format="2">
  <advance width="731"/>
  <unicode hex="0277"/>
  <outline>
    <contour>
      <point x="32" y="200" type="curve" smooth="yes"/>
      <point x="32" y="389"/>
      <point x="157" y="500"/>
      <point x="369" y="500" type="curve" smooth="yes"/>
      <point x="577" y="500"/>
      <point x="700" y="389"/>
      <point x="700" y="200" type="curve" smooth="yes"/>
      <point x="700" y="72"/>
      <point x="627" y="-12"/>
      <point x="514" y="-12" type="curve" smooth="yes"/>
      <point x="425" y="-12"/>
      <point x="382" y="21"/>
      <point x="366" y="100" type="curve"/>
      <point x="368" y="100" type="line"/>
      <point x="351" y="20"/>
      <point x="308" y="-12"/>
      <point x="219" y="-12" type="curve" smooth="yes"/>
      <point x="106" y="-12"/>
      <point x="32" y="72"/>
    </contour>
    <contour>
      <point x="177" y="195" type="curve" smooth="yes"/>
      <point x="177" y="92"/>
      <point x="201" y="48"/>
      <point x="256" y="48" type="curve" smooth="yes"/>
      <point x="303" y="48"/>
      <point x="334" y="89"/>
      <point x="334" y="151" type="curve" smooth="yes"/>
      <point x="334" y="190"/>
      <point x="329" y="212"/>
      <point x="318" y="232" type="curve"/>
      <point x="308" y="249"/>
      <point x="305" y="265"/>
      <point x="305" y="295" type="curve" smooth="yes"/>
      <point x="305" y="341"/>
      <point x="332" y="374"/>
      <point x="368" y="374" type="curve" smooth="yes"/>
      <point x="406" y="374"/>
      <point x="430" y="343"/>
      <point x="430" y="293" type="curve" smooth="yes"/>
      <point x="430" y="266"/>
      <point x="427" y="252"/>
      <point x="417" y="235" type="curve" smooth="yes"/>
      <point x="405" y="215"/>
      <point x="400" y="192"/>
      <point x="400" y="152" type="curve" smooth="yes"/>
      <point x="400" y="88"/>
      <point x="430" y="48"/>
      <point x="479" y="48" type="curve" smooth="yes"/>
      <point x="533" y="48"/>
      <point x="558" y="95"/>
      <point x="558" y="195" type="curve" smooth="yes"/>
      <point x="558" y="363"/>
      <point x="497" y="442"/>
      <point x="367" y="442" type="curve" smooth="yes"/>
      <point x="239" y="442"/>
      <point x="177" y="362"/>
    </contour>
  </outline>
</glyph>
<glyph name="uni0278" format="2">
  <advance width="601"/>
  <unicode hex="0278"/>
  <outline>
    <contour>
      <point x="27" y="247" type="curve" smooth="yes"/>
      <point x="27" y="378"/>
      <point x="104" y="470"/>
      <point x="234" y="495" type="curve"/>
      <point x="234" y="598" type="line" smooth="yes"/>
      <point x="234" y="610"/>
      <point x="225" y="620"/>
      <point x="211" y="621" type="curve" smooth="yes"/>
      <point x="162" y="624" type="line"/>
      <point x="162" y="671" type="line"/>
      <point x="439" y="671" type="line"/>
      <point x="439" y="624" type="line"/>
      <point x="390" y="621" type="line" smooth="yes"/>
      <point x="376" y="620"/>
      <point x="367" y="610"/>
      <point x="367" y="598" type="curve" smooth="yes"/>
      <point x="367" y="495" type="line"/>
      <point x="497" y="470"/>
      <point x="574" y="378"/>
      <point x="574" y="247" type="curve" smooth="yes"/>
      <point x="574" y="121"/>
      <point x="494" y="26"/>
      <point x="367" y="-1" type="curve"/>
      <point x="367" y="-146" type="line" smooth="yes"/>
      <point x="367" y="-158"/>
      <point x="376" y="-167"/>
      <point x="390" y="-168" type="curve" smooth="yes"/>
      <point x="439" y="-171" type="line"/>
      <point x="439" y="-219" type="line"/>
      <point x="162" y="-219" type="line"/>
      <point x="162" y="-171" type="line"/>
      <point x="211" y="-168" type="line" smooth="yes"/>
      <point x="225" y="-167"/>
      <point x="234" y="-158"/>
      <point x="234" y="-146" type="curve" smooth="yes"/>
      <point x="234" y="-1" type="line"/>
      <point x="107" y="26"/>
      <point x="27" y="121"/>
    </contour>
    <contour>
      <point x="159" y="247" type="curve" smooth="yes"/>
      <point x="159" y="177"/>
      <point x="190" y="103"/>
      <point x="234" y="70" type="curve"/>
      <point x="234" y="423" type="line"/>
      <point x="190" y="388"/>
      <point x="159" y="315"/>
    </contour>
    <contour>
      <point x="367" y="70" type="line"/>
      <point x="411" y="103"/>
      <point x="442" y="177"/>
      <point x="442" y="247" type="curve" smooth="yes"/>
      <point x="442" y="316"/>
      <point x="411" y="389"/>
      <point x="367" y="423" type="curve"/>
    </contour>
  </outline>
</glyph>
<glyph name="uni027C" format="2">
  <advance width="432"/>
  <unicode hex="027C"/>
  <outline>
    <contour>
      <point x="17" y="408" type="line"/>
      <point x="17" y="449" type="line"/>
      <point x="172" y="500" type="line"/>
      <point x="224" y="500" type="line"/>
      <point x="224" y="394" type="line"/>
      <point x="273" y="457"/>
      <point x="328" y="500"/>
      <point x="359" y="500" type="curve" smooth="yes"/>
      <point x="380" y="500"/>
      <point x="409" y="492"/>
      <point x="422" y="482" type="curve"/>
      <point x="422" y="330" type="line"/>
      <point x="354" y="330" type="line"/>
      <point x="341" y="355"/>
      <point x="317" y="370"/>
      <point x="289" y="370" type="curve" smooth="yes"/>
      <point x="251" y="370"/>
      <point x="224" y="352"/>
      <point x="224" y="352" type="curve"/>
      <point x="224" y="-146" type="line" smooth="yes"/>
      <point x="224" y="-159"/>
      <point x="234" y="-169"/>
      <point x="246" y="-169" type="curve"/>
      <point x="310" y="-172" type="line"/>
      <point x="310" y="-219" type="line"/>
      <point x="24" y="-219" type="line"/>
      <point x="24" y="-172" type="line"/>
      <point x="68" y="-169" type="line"/>
      <point x="80" y="-169"/>
      <point x="90" y="-158"/>
      <point x="90" y="-146" type="curve" smooth="yes"/>
      <point x="90" y="408" type="line"/>
    </contour>
  </outline>
</glyph>
<glyph name="uni0280" format="2">
  <advance width="562"/>
  <unicode hex="0280"/>
  <outline>
    <contour>
      <point x="22" y="0" type="line"/>
      <point x="22" y="47" type="line"/>
      <point x="69" y="50" type="line"/>
      <point x="77" y="51"/>
      <point x="82" y="55"/>
      <point x="82" y="62" type="curve" smooth="yes"/>
      <point x="82" y="425" type="line" smooth="yes"/>
      <point x="82" y="433"/>
      <point x="78" y="436"/>
      <point x="69" y="437" type="curve" smooth="yes"/>
      <point x="22" y="441" type="line"/>
      <point x="22" y="488" type="line"/>
      <point x="288" y="488" type="line" smooth="yes"/>
      <point x="392" y="488"/>
      <point x="464" y="438"/>
      <point x="464" y="364" type="curve" smooth="yes"/>
      <point x="464" y="302"/>
      <point x="422" y="256"/>
      <point x="349" y="239" type="curve"/>
      <point x="399" y="223"/>
      <point x="420" y="197"/>
      <point x="445" y="124" type="curve" smooth="yes"/>
      <point x="465" y="66"/>
      <point x="493" y="48"/>
      <point x="563" y="48" type="curve"/>
      <point x="563" y="0" type="line"/>
      <point x="548" y="-1"/>
      <point x="537" y="-3"/>
      <point x="527" y="-6" type="curve"/>
      <point x="512" y="-10"/>
      <point x="496" y="-12"/>
      <point x="480" y="-12" type="curve" smooth="yes"/>
      <point x="409" y="-12"/>
      <point x="369" y="11"/>
      <point x="340" y="68" type="curve" smooth="yes"/>
      <point x="330" y="87"/>
      <point x="323" y="102"/>
      <point x="318" y="117" type="curve" smooth="yes"/>
      <point x="294" y="186"/>
      <point x="272" y="209"/>
      <point x="230" y="209" type="curve" smooth="yes"/>
      <point x="205" y="209" type="line"/>
      <point x="205" y="62" type="line" smooth="yes"/>
      <point x="205" y="55"/>
      <point x="209" y="50"/>
      <point x="217" y="50" type="curve"/>
      <point x="266" y="47" type="line"/>
      <point x="266" y="0" type="line"/>
    </contour>
    <contour>
      <point x="205" y="263" type="line"/>
      <point x="209" y="262"/>
      <point x="216" y="262"/>
      <point x="226" y="262" type="curve" smooth="yes"/>
      <point x="297" y="262"/>
      <point x="336" y="293"/>
      <point x="336" y="351" type="curve" smooth="yes"/>
      <point x="336" y="406"/>
      <point x="299" y="434"/>
      <point x="225" y="434" type="curve" smooth="yes"/>
      <point x="205" y="434" type="line"/>
    </contour>
  </outline>
</glyph>
<glyph name="uni028C" format="2">
  <advance width="565"/>
  <unicode hex="028C"/>
  <outline>
    <contour>
      <point x="10" y="0" type="line"/>
      <point x="10" y="47" type="line"/>
      <point x="66" y="54" type="line"/>
      <point x="239" y="488" type="line"/>
      <point x="337" y="488" type="line"/>
      <point x="498" y="53" type="line"/>
      <point x="557" y="47" type="line"/>
      <point x="557" y="0" type="line"/>
      <point x="293" y="0" type="line"/>
      <point x="293" y="47" type="line"/>
      <point x="340" y="50" type="line"/>
      <point x="349" y="51"/>
      <point x="355" y="58"/>
      <point x="355" y="66" type="curve"/>
      <point x="355" y="68"/>
      <point x="355" y="70"/>
      <point x="354" y="72" type="curve"/>
      <point x="256" y="349" type="line"/>
      <point x="146" y="72" type="line"/>
      <point x="145" y="70"/>
      <point x="145" y="69"/>
      <point x="145" y="67" type="curve"/>
      <point x="145" y="59"/>
      <point x="153" y="51"/>
      <point x="162" y="50" type="curve"/>
      <point x="204" y="47" type="line"/>
      <point x="204" y="0" type="line"/>
    </contour>
  </outline>
</glyph>
<glyph name="uni028F" format="2">
  <advance width="544"/>
  <unicode hex="028F"/>
  <outline>
    <contour>
      <point x="10" y="441" type="line"/>
      <point x="10" y="488" type="line"/>
      <point x="248" y="488" type="line"/>
      <point x="248" y="441" type="line"/>
      <point x="200" y="437" type="line"/>
      <point x="199" y="437"/>
      <point x="198" y="436"/>
      <point x="198" y="435" type="curve"/>
      <point x="198" y="433"/>
      <point x="199" y="431"/>
      <point x="201" y="428" type="curve"/>
      <point x="297" y="268" type="line"/>
      <point x="400" y="429" type="line" smooth="yes"/>
      <point x="402" y="432"/>
      <point x="403" y="434"/>
      <point x="403" y="436" type="curve"/>
      <point x="403" y="437"/>
      <point x="403" y="438"/>
      <point x="401" y="438" type="curve"/>
      <point x="347" y="441" type="line"/>
      <point x="347" y="488" type="line"/>
      <point x="535" y="488" type="line"/>
      <point x="535" y="441" type="line"/>
      <point x="486" y="435" type="line"/>
      <point x="341" y="210" type="line"/>
      <point x="341" y="61" type="line" smooth="yes"/>
      <point x="341" y="56"/>
      <point x="345" y="52"/>
      <point x="353" y="51" type="curve"/>
      <point x="407" y="47" type="line"/>
      <point x="407" y="0" type="line"/>
      <point x="148" y="0" type="line"/>
      <point x="148" y="47" type="line"/>
      <point x="202" y="51" type="line"/>
      <point x="210" y="52"/>
      <point x="215" y="55"/>
      <point x="215" y="61" type="curve" smooth="yes"/>
      <point x="215" y="190" type="line"/>
      <point x="63" y="435" type="line"/>
    </contour>
  </outline>
</glyph>
<glyph name="uni029B" format="2">
  <advance width="705"/>
  <unicode hex="029B"/>
  <outline>
    <contour>
      <point x="32" y="245" type="curve" smooth="yes"/>
      <point x="32" y="397"/>
      <point x="147" y="500"/>
      <point x="317" y="500" type="curve" smooth="yes"/>
      <point x="373" y="500"/>
      <point x="473" y="484"/>
      <point x="500" y="470" type="curve"/>
      <point x="500" y="337" type="line"/>
      <point x="428" y="337" type="line"/>
      <point x="413" y="419" type="line"/>
      <point x="412" y="422"/>
      <point x="406" y="428"/>
      <point x="401" y="430" type="curve"/>
      <point x="384" y="438"/>
      <point x="365" y="442"/>
      <point x="347" y="442" type="curve" smooth="yes"/>
      <point x="234" y="442"/>
      <point x="165" y="368"/>
      <point x="165" y="248" type="curve" smooth="yes"/>
      <point x="165" y="125"/>
      <point x="234" y="53"/>
      <point x="350" y="53" type="curve" smooth="yes"/>
      <point x="361" y="53"/>
      <point x="369" y="53"/>
      <point x="380" y="55" type="curve"/>
      <point x="380" y="182" type="line" smooth="yes"/>
      <point x="380" y="189"/>
      <point x="373" y="196"/>
      <point x="367" y="196" type="curve"/>
      <point x="309" y="200" type="line"/>
      <point x="309" y="247" type="line"/>
      <point x="557" y="247" type="line"/>
      <point x="557" y="200" type="line"/>
      <point x="512" y="196" type="line"/>
      <point x="506" y="195"/>
      <point x="499" y="188"/>
      <point x="499" y="182" type="curve" smooth="yes"/>
      <point x="499" y="23" type="line"/>
      <point x="455" y="1"/>
      <point x="386" y="-12"/>
      <point x="312" y="-12" type="curve" smooth="yes"/>
      <point x="148" y="-12"/>
      <point x="32" y="94"/>
    </contour>
    <contour>
      <point x="424" y="448" type="line"/>
      <point x="424" y="509" type="line" smooth="yes"/>
      <point x="424" y="591"/>
      <point x="482" y="672"/>
      <point x="597" y="672" type="curve" smooth="yes"/>
      <point x="637" y="672"/>
      <point x="693" y="653"/>
      <point x="693" y="596" type="curve" smooth="yes"/>
      <point x="693" y="565"/>
      <point x="663" y="541"/>
      <point x="631" y="530" type="curve"/>
      <point x="532" y="623" type="line"/>
      <point x="512" y="597"/>
      <point x="500" y="563"/>
      <point x="500" y="490" type="curve" smooth="yes"/>
      <point x="500" y="448" type="line"/>
    </contour>
  </outline>
</glyph>
<glyph name="uni029D" format="2">
  <advance width="324"/>
  <unicode hex="029D"/>
  <outline>
    <contour>
      <point x="96" y="663" type="curve" smooth="yes"/>
      <point x="96" y="706"/>
      <point x="131" y="740"/>
      <point x="174" y="740" type="curve" smooth="yes"/>
      <point x="217" y="740"/>
      <point x="251" y="706"/>
      <point x="251" y="663" type="curve" smooth="yes"/>
      <point x="251" y="620"/>
      <point x="217" y="585"/>
      <point x="174" y="585" type="curve" smooth="yes"/>
      <point x="131" y="585"/>
      <point x="96" y="620"/>
    </contour>
    <contour>
      <point x="-21" y="-130" type="curve" smooth="yes"/>
      <point x="-21" y="-150"/>
      <point x="1" y="-170"/>
      <point x="24" y="-170" type="curve" smooth="yes"/>
      <point x="64" y="-170"/>
      <point x="93" y="-138"/>
      <point x="103" y="-83" type="curve"/>
      <point x="89" y="-77"/>
      <point x="72" y="-74"/>
      <point x="54" y="-74" type="curve" smooth="yes"/>
      <point x="12" y="-74"/>
      <point x="-21" y="-99"/>
    </contour>
    <contour>
      <point x="37" y="409" type="line"/>
      <point x="37" y="450" type="line"/>
      <point x="190" y="500" type="line"/>
      <point x="241" y="500" type="line"/>
      <point x="241" y="50" type="line" smooth="yes"/>
      <point x="241" y="1"/>
      <point x="233" y="-44"/>
      <point x="219" y="-84" type="curve"/>
      <point x="247" y="-106"/>
      <point x="281" y="-150"/>
      <point x="312" y="-204" type="curve"/>
      <point x="267" y="-242" type="line"/>
      <point x="249" y="-206"/>
      <point x="223" y="-171"/>
      <point x="191" y="-139" type="curve"/>
      <point x="147" y="-203"/>
      <point x="91" y="-231"/>
      <point x="8" y="-231" type="curve" smooth="yes"/>
      <point x="-47" y="-231"/>
      <point x="-90" y="-189"/>
      <point x="-90" y="-136" type="curve" smooth="yes"/>
      <point x="-90" y="-70"/>
      <point x="-35" y="-24"/>
      <point x="44" y="-24" type="curve" smooth="yes"/>
      <point x="61" y="-24"/>
      <point x="87" y="-27"/>
      <point x="106" y="-31" type="curve"/>
      <point x="108" y="-11"/>
      <point x="108" y="1"/>
      <point x="108" y="21" type="curve" smooth="yes"/>
      <point x="108" y="409" type="line"/>
    </contour>
  </outline>
</glyph>
<glyph name="uni029E" format="2">
  <advance width="591"/>
  <unicode hex="029E"/>
  <outline>
    <contour>
      <point x="10" y="441" type="line"/>
      <point x="10" y="488" type="line"/>
      <point x="211" y="488" type="line"/>
      <point x="211" y="447" type="line"/>
      <point x="322" y="262" type="line"/>
      <point x="369" y="262" type="line"/>
      <point x="369" y="415" type="line" smooth="yes"/>
      <point x="369" y="427"/>
      <point x="359" y="437"/>
      <point x="347" y="438" type="curve" smooth="yes"/>
      <point x="307" y="441" type="line"/>
      <point x="307" y="488" type="line"/>
      <point x="566" y="488" type="line"/>
      <point x="566" y="441" type="line"/>
      <point x="524" y="438" type="line" smooth="yes"/>
      <point x="512" y="437"/>
      <point x="502" y="427"/>
      <point x="502" y="415" type="curve" smooth="yes"/>
      <point x="502" y="-140" type="line"/>
      <point x="573" y="-140" type="line"/>
      <point x="573" y="-181" type="line"/>
      <point x="419" y="-231" type="line"/>
      <point x="369" y="-231" type="line"/>
      <point x="369" y="228" type="line"/>
      <point x="347" y="228" type="line"/>
      <point x="212" y="68" type="line"/>
      <point x="210" y="65"/>
      <point x="209" y="63"/>
      <point x="209" y="60" type="curve" smooth="yes"/>
      <point x="209" y="55"/>
      <point x="213" y="52"/>
      <point x="220" y="51" type="curve"/>
      <point x="257" y="47" type="line"/>
      <point x="257" y="0" type="line"/>
      <point x="49" y="0" type="line"/>
      <point x="49" y="47" type="line"/>
      <point x="116" y="55" type="line"/>
      <point x="223" y="177" type="line"/>
      <point x="68" y="436" type="line"/>
    </contour>
  </outline>
</glyph>
<glyph name="uni02A3" format="2">
  <advance width="887"/>
  <unicode hex="02A3"/>
  <outline>
    <contour>
      <point x="32" y="233" type="curve" smooth="yes"/>
      <point x="32" y="396"/>
      <point x="133" y="500"/>
      <point x="293" y="500" type="curve" smooth="yes"/>
      <point x="323" y="500"/>
      <point x="363" y="495"/>
      <point x="385" y="488" type="curve"/>
      <point x="385" y="649" type="line"/>
      <point x="312" y="649" type="line"/>
      <point x="312" y="690" type="line"/>
      <point x="468" y="740" type="line"/>
      <point x="519" y="740" type="line"/>
      <point x="519" y="488" type="line"/>
      <point x="841" y="488" type="line"/>
      <point x="841" y="432" type="line"/>
      <point x="579" y="59" type="line"/>
      <point x="751" y="59" type="line" smooth="yes"/>
      <point x="760" y="59"/>
      <point x="772" y="72"/>
      <point x="773" y="83" type="curve"/>
      <point x="786" y="168" type="line"/>
      <point x="855" y="168" type="line"/>
      <point x="855" y="0" type="line"/>
      <point x="385" y="0" type="line"/>
      <point x="385" y="58" type="line"/>
      <point x="334" y="13"/>
      <point x="278" y="-12"/>
      <point x="228" y="-12" type="curve" smooth="yes"/>
      <point x="111" y="-12"/>
      <point x="32" y="86"/>
    </contour>
    <contour>
      <point x="178" y="256" type="curve" smooth="yes"/>
      <point x="178" y="144"/>
      <point x="226" y="79"/>
      <point x="308" y="79" type="curve" smooth="yes"/>
      <point x="335" y="79"/>
      <point x="362" y="86"/>
      <point x="385" y="99" type="curve"/>
      <point x="385" y="422" type="line"/>
      <point x="358" y="435"/>
      <point x="337" y="440"/>
      <point x="315" y="440" type="curve" smooth="yes"/>
      <point x="230" y="440"/>
      <point x="178" y="370"/>
    </contour>
    <contour>
      <point x="519" y="187" type="line"/>
      <point x="689" y="431" type="line"/>
      <point x="519" y="431" type="line"/>
    </contour>
  </outline>
</glyph>
<glyph name="uni02A4" format="2">
  <advance width="897"/>
  <unicode hex="02A4"/>
  <outline>
    <contour>
      <point x="32" y="233" type="curve" smooth="yes"/>
      <point x="32" y="396"/>
      <point x="133" y="500"/>
      <point x="293" y="500" type="curve" smooth="yes"/>
      <point x="323" y="500"/>
      <point x="357" y="496"/>
      <point x="385" y="488" type="curve"/>
      <point x="385" y="649" type="line"/>
      <point x="312" y="649" type="line"/>
      <point x="312" y="690" type="line"/>
      <point x="468" y="740" type="line"/>
      <point x="519" y="740" type="line"/>
      <point x="519" y="488" type="line"/>
      <point x="838" y="488" type="line"/>
      <point x="838" y="442" type="line"/>
      <point x="656" y="201" type="line"/>
      <point x="787" y="201"/>
      <point x="866" y="134"/>
      <point x="866" y="24" type="curve" smooth="yes"/>
      <point x="866" y="-125"/>
      <point x="749" y="-231"/>
      <point x="585" y="-231" type="curve" smooth="yes"/>
      <point x="459" y="-231"/>
      <point x="354" y="-175"/>
      <point x="354" y="-107" type="curve" smooth="yes"/>
      <point x="354" y="-66"/>
      <point x="377" y="-42"/>
      <point x="417" y="-42" type="curve" smooth="yes"/>
      <point x="435" y="-42"/>
      <point x="452" y="-46"/>
      <point x="470" y="-54" type="curve"/>
      <point x="503" y="-156" type="line"/>
      <point x="522" y="-162"/>
      <point x="563" y="-167"/>
      <point x="594" y="-167" type="curve" smooth="yes"/>
      <point x="661" y="-167"/>
      <point x="719" y="-79"/>
      <point x="719" y="23" type="curve" smooth="yes"/>
      <point x="719" y="108"/>
      <point x="682" y="152"/>
      <point x="611" y="152" type="curve" smooth="yes"/>
      <point x="558" y="152"/>
      <point x="506" y="98"/>
      <point x="465" y="0" type="curve"/>
      <point x="385" y="0" type="line"/>
      <point x="385" y="58" type="line"/>
      <point x="335" y="15"/>
      <point x="275" y="-12"/>
      <point x="228" y="-12" type="curve" smooth="yes"/>
      <point x="111" y="-12"/>
      <point x="32" y="86"/>
    </contour>
    <contour>
      <point x="178" y="256" type="curve" smooth="yes"/>
      <point x="178" y="144"/>
      <point x="226" y="79"/>
      <point x="308" y="79" type="curve" smooth="yes"/>
      <point x="334" y="79"/>
      <point x="360" y="86"/>
      <point x="385" y="99" type="curve"/>
      <point x="385" y="422" type="line"/>
      <point x="361" y="434"/>
      <point x="337" y="440"/>
      <point x="315" y="440" type="curve" smooth="yes"/>
      <point x="230" y="440"/>
      <point x="178" y="370"/>
    </contour>
    <contour>
      <point x="519" y="180" type="line"/>
      <point x="661" y="374" type="line"/>
      <point x="519" y="374" type="line"/>
    </contour>
  </outline>
</glyph>
<glyph name="uni02A6" format="2">
  <advance width="727"/>
  <unicode hex="02A6"/>
  <outline>
    <contour>
      <point x="24" y="424" type="line"/>
      <point x="24" y="464" type="line"/>
      <point x="101" y="510" type="line"/>
      <point x="155" y="616" type="line"/>
      <point x="223" y="616" type="line"/>
      <point x="223" y="488" type="line"/>
      <point x="313" y="488" type="line"/>
      <point x="313" y="424" type="line"/>
      <point x="223" y="424" type="line"/>
      <point x="223" y="159" type="line" smooth="yes"/>
      <point x="223" y="102"/>
      <point x="247" y="72"/>
      <point x="293" y="72" type="curve" smooth="yes"/>
      <point x="300" y="72"/>
      <point x="308" y="74"/>
      <point x="313" y="76" type="curve"/>
      <point x="313" y="167" type="line"/>
      <point x="376" y="167" type="line"/>
      <point x="388" y="75" type="line"/>
      <point x="418" y="54"/>
      <point x="442" y="47"/>
      <point x="481" y="47" type="curve" smooth="yes"/>
      <point x="530" y="47"/>
      <point x="567" y="74"/>
      <point x="567" y="111" type="curve" smooth="yes"/>
      <point x="567" y="143"/>
      <point x="542" y="167"/>
      <point x="478" y="197" type="curve" smooth="yes"/>
      <point x="445" y="212" type="line" smooth="yes"/>
      <point x="355" y="254"/>
      <point x="319" y="294"/>
      <point x="319" y="351" type="curve" smooth="yes"/>
      <point x="319" y="442"/>
      <point x="397" y="500"/>
      <point x="520" y="500" type="curve" smooth="yes"/>
      <point x="620" y="500"/>
      <point x="680" y="474"/>
      <point x="680" y="474" type="curve"/>
      <point x="680" y="335" type="line"/>
      <point x="617" y="335" type="line"/>
      <point x="607" y="413" type="line"/>
      <point x="595" y="428"/>
      <point x="561" y="440"/>
      <point x="528" y="440" type="curve" smooth="yes"/>
      <point x="480" y="440"/>
      <point x="453" y="421"/>
      <point x="453" y="388" type="curve" smooth="yes"/>
      <point x="453" y="359"/>
      <point x="477" y="335"/>
      <point x="532" y="306" type="curve" smooth="yes"/>
      <point x="558" y="292" type="line" smooth="yes"/>
      <point x="659" y="239"/>
      <point x="695" y="200"/>
      <point x="695" y="146" type="curve" smooth="yes"/>
      <point x="695" y="49"/>
      <point x="616" y="-12"/>
      <point x="491" y="-12" type="curve" smooth="yes"/>
      <point x="431" y="-12"/>
      <point x="356" y="-1"/>
      <point x="322" y="12" type="curve"/>
      <point x="287" y="-3"/>
      <point x="246" y="-12"/>
      <point x="210" y="-12" type="curve" smooth="yes"/>
      <point x="127" y="-12"/>
      <point x="90" y="28"/>
      <point x="90" y="118" type="curve" smooth="yes"/>
      <point x="90" y="424" type="line"/>
    </contour>
  </outline>
</glyph>
<glyph name="uni02A8" format="2">
  <advance width="757"/>
  <unicode hex="02A8"/>
  <outline>
    <contour>
      <point x="24" y="424" type="line"/>
      <point x="24" y="464" type="line"/>
      <point x="101" y="510" type="line"/>
      <point x="155" y="616" type="line"/>
      <point x="224" y="616" type="line"/>
      <point x="224" y="488" type="line"/>
      <point x="314" y="488" type="line"/>
      <point x="314" y="424" type="line"/>
      <point x="224" y="424" type="line"/>
      <point x="224" y="119" type="line" smooth="yes"/>
      <point x="224" y="90"/>
      <point x="235" y="78"/>
      <point x="261" y="78" type="curve" smooth="yes"/>
      <point x="276" y="78"/>
      <point x="300" y="96"/>
      <point x="319" y="123" type="curve"/>
      <point x="299" y="157"/>
      <point x="288" y="196"/>
      <point x="288" y="236" type="curve" smooth="yes"/>
      <point x="288" y="387"/>
      <point x="398" y="500"/>
      <point x="545" y="500" type="curve" smooth="yes"/>
      <point x="649" y="500"/>
      <point x="719" y="456"/>
      <point x="719" y="390" type="curve" smooth="yes"/>
      <point x="719" y="348"/>
      <point x="687" y="315"/>
      <point x="647" y="315" type="curve" smooth="yes"/>
      <point x="615" y="315"/>
      <point x="600" y="320"/>
      <point x="581" y="336" type="curve"/>
      <point x="581" y="447" type="line"/>
      <point x="576" y="448"/>
      <point x="568" y="449"/>
      <point x="562" y="449" type="curve" smooth="yes"/>
      <point x="490" y="449"/>
      <point x="435" y="366"/>
      <point x="435" y="258" type="curve" smooth="yes"/>
      <point x="435" y="167"/>
      <point x="450" y="121"/>
      <point x="490" y="90" type="curve"/>
      <point x="512" y="178"/>
      <point x="558" y="219"/>
      <point x="634" y="219" type="curve" smooth="yes"/>
      <point x="691" y="219"/>
      <point x="733" y="179"/>
      <point x="733" y="125" type="curve" smooth="yes"/>
      <point x="733" y="47"/>
      <point x="660" y="-12"/>
      <point x="563" y="-12" type="curve" smooth="yes"/>
      <point x="547" y="-12"/>
      <point x="538" y="-12"/>
      <point x="532" y="-11" type="curve"/>
      <point x="525" y="-52"/>
      <point x="521" y="-93"/>
      <point x="521" y="-129" type="curve"/>
      <point x="468" y="-129" type="line"/>
      <point x="468" y="-92"/>
      <point x="472" y="-45"/>
      <point x="479" y="-1" type="curve"/>
      <point x="436" y="11"/>
      <point x="391" y="39"/>
      <point x="354" y="76" type="curve"/>
      <point x="310" y="22"/>
      <point x="255" y="-12"/>
      <point x="210" y="-12" type="curve" smooth="yes"/>
      <point x="127" y="-12"/>
      <point x="90" y="28"/>
      <point x="90" y="118" type="curve" smooth="yes"/>
      <point x="90" y="424" type="line"/>
    </contour>
    <contour>
      <point x="550" y="67" type="curve"/>
      <point x="562" y="64"/>
      <point x="567" y="64"/>
      <point x="585" y="64" type="curve" smooth="yes"/>
      <point x="625" y="64"/>
      <point x="649" y="86"/>
      <point x="649" y="123" type="curve" smooth="yes"/>
      <point x="649" y="142"/>
      <point x="637" y="153"/>
      <point x="616" y="153" type="curve" smooth="yes"/>
      <point x="586" y="153"/>
      <point x="565" y="126"/>
    </contour>
  </outline>
</glyph>
<glyph name="uni02AA" format="2">
  <advance width="688"/>
  <unicode hex="02AA"/>
  <outline>
    <contour>
      <point x="29" y="0" type="line"/>
      <point x="29" y="47" type="line"/>
      <point x="78" y="50" type="line" smooth="yes"/>
      <point x="91" y="51"/>
      <point x="100" y="60"/>
      <point x="100" y="73" type="curve" smooth="yes"/>
      <point x="100" y="649" type="line"/>
      <point x="29" y="649" type="line"/>
      <point x="29" y="690" type="line"/>
      <point x="182" y="740" type="line"/>
      <point x="233" y="740" type="line"/>
      <point x="233" y="73" type="line" smooth="yes"/>
      <point x="233" y="60"/>
      <point x="242" y="51"/>
      <point x="255" y="50" type="curve" smooth="yes"/>
      <point x="276" y="48" type="line"/>
      <point x="276" y="167" type="line"/>
      <point x="339" y="167" type="line"/>
      <point x="351" y="75" type="line"/>
      <point x="374" y="62"/>
      <point x="424" y="47"/>
      <point x="444" y="47" type="curve" smooth="yes"/>
      <point x="493" y="47"/>
      <point x="530" y="74"/>
      <point x="530" y="111" type="curve" smooth="yes"/>
      <point x="530" y="143"/>
      <point x="503" y="166"/>
      <point x="422" y="204" type="curve" smooth="yes"/>
      <point x="387" y="220" type="line" smooth="yes"/>
      <point x="315" y="254"/>
      <point x="282" y="294"/>
      <point x="282" y="348" type="curve" smooth="yes"/>
      <point x="282" y="439"/>
      <point x="363" y="500"/>
      <point x="483" y="500" type="curve" smooth="yes"/>
      <point x="548" y="500"/>
      <point x="595" y="492"/>
      <point x="642" y="473" type="curve"/>
      <point x="642" y="335" type="line"/>
      <point x="580" y="335" type="line"/>
      <point x="569" y="415" type="line"/>
      <point x="556" y="430"/>
      <point x="526" y="440"/>
      <point x="491" y="440" type="curve" smooth="yes"/>
      <point x="444" y="440"/>
      <point x="416" y="420"/>
      <point x="416" y="385" type="curve" smooth="yes"/>
      <point x="416" y="354"/>
      <point x="444" y="328"/>
      <point x="517" y="292" type="curve" smooth="yes"/>
      <point x="536" y="283" type="line" smooth="yes"/>
      <point x="622" y="240"/>
      <point x="658" y="203"/>
      <point x="658" y="156" type="curve" smooth="yes"/>
      <point x="658" y="52"/>
      <point x="580" y="-12"/>
      <point x="454" y="-12" type="curve" smooth="yes"/>
      <point x="391" y="-12"/>
      <point x="342" y="-8"/>
      <point x="310" y="0" type="curve"/>
    </contour>
  </outline>
</glyph>
<glyph name="uni02AE" format="2">
  <advance width="705"/>
  <unicode hex="02AE"/>
  <outline>
    <contour>
      <point x="-26" y="425" type="curve" smooth="yes"/>
      <point x="-26" y="467"/>
      <point x="21" y="500"/>
      <point x="80" y="500" type="curve" smooth="yes"/>
      <point x="222" y="500"/>
      <point x="303" y="412"/>
      <point x="303" y="258" type="curve" smooth="yes"/>
      <point x="303" y="179" type="line" smooth="yes"/>
      <point x="303" y="119"/>
      <point x="336" y="80"/>
      <point x="387" y="80" type="curve" smooth="yes"/>
      <point x="422" y="80"/>
      <point x="448" y="84"/>
      <point x="481" y="93" type="curve"/>
      <point x="481" y="415" type="line" smooth="yes"/>
      <point x="481" y="427"/>
      <point x="471" y="437"/>
      <point x="459" y="438" type="curve" smooth="yes"/>
      <point x="424" y="441" type="line"/>
      <point x="424" y="488" type="line"/>
      <point x="678" y="488" type="line"/>
      <point x="678" y="441" type="line"/>
      <point x="637" y="438" type="line" smooth="yes"/>
      <point x="625" y="437"/>
      <point x="615" y="427"/>
      <point x="615" y="415" type="curve" smooth="yes"/>
      <point x="615" y="-140" type="line"/>
      <point x="687" y="-140" type="line"/>
      <point x="687" y="-181" type="line"/>
      <point x="533" y="-231" type="line"/>
      <point x="481" y="-231" type="line"/>
      <point x="481" y="50" type="line"/>
      <point x="434" y="15"/>
      <point x="357" y="-12"/>
      <point x="306" y="-12" type="curve" smooth="yes"/>
      <point x="221" y="-12"/>
      <point x="169" y="47"/>
      <point x="169" y="145" type="curve" smooth="yes"/>
      <point x="169" y="334" type="line" smooth="yes"/>
      <point x="169" y="391"/>
      <point x="156" y="429"/>
      <point x="129" y="447" type="curve"/>
      <point x="45" y="348" type="line"/>
      <point x="1" y="348"/>
      <point x="-26" y="377"/>
    </contour>
  </outline>
</glyph>
<glyph name="uni02B1" format="2">
  <advance width="407"/>
  <unicode hex="02B1"/>
  <outline>
    <contour>
      <point x="18" y="383" type="line"/>
      <point x="18" y="411" type="line"/>
      <point x="44" y="413" type="line"/>
      <point x="52" y="413"/>
      <point x="59" y="419"/>
      <point x="59" y="427" type="curve" smooth="yes"/>
      <point x="59" y="683" type="line" smooth="yes"/>
      <point x="59" y="770"/>
      <point x="118" y="827"/>
      <point x="207" y="827" type="curve" smooth="yes"/>
      <point x="271" y="827"/>
      <point x="329" y="797"/>
      <point x="329" y="764" type="curve" smooth="yes"/>
      <point x="329" y="743"/>
      <point x="312" y="722"/>
      <point x="294" y="722" type="curve" smooth="yes"/>
      <point x="286" y="722"/>
      <point x="279" y="724"/>
      <point x="273" y="729" type="curve"/>
      <point x="247" y="785" type="line"/>
      <point x="242" y="788"/>
      <point x="230" y="790"/>
      <point x="222" y="790" type="curve" smooth="yes"/>
      <point x="177" y="790"/>
      <point x="146" y="746"/>
      <point x="146" y="683" type="curve" smooth="yes"/>
      <point x="146" y="646" type="line"/>
      <point x="154" y="651"/>
      <point x="205" y="683"/>
      <point x="260" y="683" type="curve" smooth="yes"/>
      <point x="315" y="683"/>
      <point x="348" y="647"/>
      <point x="348" y="588" type="curve" smooth="yes"/>
      <point x="348" y="427" type="line" smooth="yes"/>
      <point x="348" y="419"/>
      <point x="354" y="413"/>
      <point x="362" y="413" type="curve"/>
      <point x="390" y="411" type="line"/>
      <point x="390" y="383" type="line"/>
      <point x="226" y="383" type="line"/>
      <point x="226" y="411" type="line"/>
      <point x="247" y="413" type="line"/>
      <point x="255" y="413"/>
      <point x="262" y="419"/>
      <point x="262" y="427" type="curve" smooth="yes"/>
      <point x="262" y="568" type="line" smooth="yes"/>
      <point x="262" y="604"/>
      <point x="240" y="628"/>
      <point x="207" y="628" type="curve" smooth="yes"/>
      <point x="190" y="628"/>
      <point x="165" y="625"/>
      <point x="146" y="620" type="curve"/>
      <point x="146" y="427" type="line" smooth="yes"/>
      <point x="146" y="419"/>
      <point x="152" y="413"/>
      <point x="160" y="413" type="curve"/>
      <point x="183" y="411" type="line"/>
      <point x="183" y="383" type="line"/>
    </contour>
  </outline>
</glyph>
<glyph name="uni02B3" format="2">
  <advance width="280"/>
  <unicode hex="02B3"/>
  <outline>
    <contour>
      <point x="11" y="628" type="line"/>
      <point x="11" y="652" type="line"/>
      <point x="112" y="682" type="line"/>
      <point x="146" y="682" type="line"/>
      <point x="146" y="619" type="line"/>
      <point x="162" y="638"/>
      <point x="203" y="684"/>
      <point x="233" y="684" type="curve" smooth="yes"/>
      <point x="248" y="684"/>
      <point x="266" y="677"/>
      <point x="274" y="672" type="curve"/>
      <point x="274" y="581" type="line"/>
      <point x="230" y="581" type="line"/>
      <point x="225" y="589"/>
      <point x="213" y="605"/>
      <point x="188" y="605" type="curve" smooth="yes"/>
      <point x="163" y="605"/>
      <point x="150" y="597"/>
      <point x="146" y="594" type="curve"/>
      <point x="146" y="426" type="line" smooth="yes"/>
      <point x="146" y="419"/>
      <point x="152" y="412"/>
      <point x="160" y="412" type="curve"/>
      <point x="201" y="410" type="line"/>
      <point x="201" y="382" type="line"/>
      <point x="16" y="382" type="line"/>
      <point x="16" y="410" type="line"/>
      <point x="44" y="412" type="line"/>
      <point x="52" y="413"/>
      <point x="59" y="419"/>
      <point x="59" y="426" type="curve" smooth="yes"/>
      <point x="59" y="628" type="line"/>
    </contour>
  </outline>
</glyph>
<glyph name="uni02B8" format="2">
  <advance width="367"/>
  <unicode hex="02B8"/>
  <outline>
    <contour>
      <point x="6" y="648" type="line"/>
      <point x="6" y="676" type="line"/>
      <point x="177" y="676" type="line"/>
      <point x="177" y="648" type="line"/>
      <point x="147" y="646" type="line"/>
      <point x="140" y="646"/>
      <point x="137" y="642"/>
      <point x="137" y="638" type="curve"/>
      <point x="137" y="636"/>
      <point x="137" y="635"/>
      <point x="138" y="633" type="curve"/>
      <point x="205" y="479" type="line"/>
      <point x="273" y="633" type="line"/>
      <point x="274" y="634"/>
      <point x="274" y="636"/>
      <point x="274" y="637" type="curve"/>
      <point x="274" y="642"/>
      <point x="270" y="646"/>
      <point x="264" y="646" type="curve"/>
      <point x="235" y="648" type="line"/>
      <point x="235" y="676" type="line"/>
      <point x="362" y="676" type="line"/>
      <point x="362" y="648" type="line"/>
      <point x="328" y="644" type="line"/>
      <point x="215" y="389" type="line" smooth="yes"/>
      <point x="193" y="339"/>
      <point x="151" y="245"/>
      <point x="77" y="245" type="curve" smooth="yes"/>
      <point x="52" y="245"/>
      <point x="20" y="264"/>
      <point x="20" y="293" type="curve" smooth="yes"/>
      <point x="20" y="315"/>
      <point x="38" y="330"/>
      <point x="57" y="337" type="curve"/>
      <point x="112" y="298" type="line"/>
      <point x="135" y="319"/>
      <point x="155" y="357"/>
      <point x="161" y="378" type="curve"/>
      <point x="45" y="645" type="line"/>
    </contour>
  </outline>
</glyph>
<glyph name="uni02B9" format="2">
  <advance width="284"/>
  <unicode hex="02B9"/>
  <outline>
    <contour>
      <point x="22" y="560" type="line"/>
      <point x="133" y="805" type="line" smooth="yes"/>
      <point x="145" y="831"/>
      <point x="171" y="840"/>
      <point x="213" y="840" type="curve" smooth="yes"/>
      <point x="254" y="840"/>
      <point x="284" y="819"/>
      <point x="284" y="796" type="curve" smooth="yes"/>
      <point x="284" y="784"/>
      <point x="279" y="775"/>
      <point x="274" y="769" type="curve" smooth="yes"/>
      <point x="104" y="560" type="line"/>
    </contour>
  </outline>
</glyph>
<glyph name="uni02BA" format="2">
  <advance width="472"/>
  <unicode hex="02BA"/>
  <outline>
    <contour>
      <point x="0" y="560" type="line"/>
      <point x="137" y="711" type="line" smooth="yes"/>
      <point x="160" y="736"/>
      <point x="173" y="743"/>
      <point x="200" y="743" type="curve" smooth="yes"/>
      <point x="243" y="743"/>
      <point x="257" y="714"/>
      <point x="257" y="690" type="curve" smooth="yes"/>
      <point x="257" y="677"/>
      <point x="247" y="657"/>
      <point x="231" y="648" type="curve" smooth="yes"/>
      <point x="70" y="560" type="line"/>
    </contour>
    <contour>
      <point x="215" y="560" type="line"/>
      <point x="352" y="711" type="line" smooth="yes"/>
      <point x="375" y="736"/>
      <point x="388" y="743"/>
      <point x="415" y="743" type="curve" smooth="yes"/>
      <point x="458" y="743"/>
      <point x="472" y="714"/>
      <point x="472" y="690" type="curve" smooth="yes"/>
      <point x="472" y="677"/>
      <point x="462" y="657"/>
      <point x="446" y="648" type="curve" smooth="yes"/>
      <point x="285" y="560" type="line"/>
    </contour>
  </outline>
</glyph>
<glyph name="uni02BB" format="2">
  <advance width="274"/>
  <unicode hex="02BB"/>
  <outline>
    <contour>
      <point x="37" y="498" type="curve" smooth="yes"/>
      <point x="37" y="661"/>
      <point x="185" y="702"/>
      <point x="201" y="706" type="curve"/>
      <point x="216" y="668" type="line"/>
      <point x="202" y="663"/>
      <point x="121" y="615"/>
      <point x="121" y="532" type="curve" smooth="yes"/>
      <point x="121" y="521" type="line"/>
      <point x="180" y="521" type="line"/>
      <point x="191" y="507"/>
      <point x="200" y="483"/>
      <point x="200" y="466" type="curve" smooth="yes"/>
      <point x="200" y="420"/>
      <point x="167" y="394"/>
      <point x="127" y="394" type="curve" smooth="yes"/>
      <point x="71" y="394"/>
      <point x="37" y="440"/>
    </contour>
  </outline>
</glyph>
<glyph name="uni02BC" format="2">
  <advance width="232"/>
  <unicode hex="02BC"/>
  <anchor x="0" y="706" name="_t.r.caron"/>
  <outline>
    <contour>
      <point x="19" y="432" type="line"/>
      <point x="96" y="475"/>
      <point x="114" y="519"/>
      <point x="114" y="568" type="curve" smooth="yes"/>
      <point x="114" y="578" type="line"/>
      <point x="55" y="578" type="line"/>
      <point x="50" y="584"/>
      <point x="35" y="602"/>
      <point x="35" y="633" type="curve" smooth="yes"/>
      <point x="35" y="675"/>
      <point x="58" y="706"/>
      <point x="108" y="706" type="curve" smooth="yes"/>
      <point x="161" y="706"/>
      <point x="198" y="661"/>
      <point x="198" y="602" type="curve" smooth="yes"/>
      <point x="198" y="454"/>
      <point x="83" y="405"/>
      <point x="34" y="394" type="curve"/>
    </contour>
  </outline>
</glyph>
<glyph name="uni02BE" format="2">
  <advance width="272"/>
  <unicode hex="02BE"/>
  <outline>
    <contour>
      <point x="44" y="346" type="curve"/>
      <point x="44" y="413" type="line"/>
      <point x="122" y="413"/>
      <point x="159" y="446"/>
      <point x="159" y="526" type="curve" smooth="yes"/>
      <point x="159" y="607"/>
      <point x="122" y="640"/>
      <point x="44" y="640" type="curve"/>
      <point x="44" y="707" type="line"/>
      <point x="161" y="707"/>
      <point x="229" y="643"/>
      <point x="229" y="526" type="curve" smooth="yes"/>
      <point x="229" y="408"/>
      <point x="158" y="346"/>
    </contour>
  </outline>
</glyph>
<glyph name="uni02BF" format="2">
  <advance width="271"/>
  <unicode hex="02BF"/>
  <outline>
    <contour>
      <point x="43" y="526" type="curve" smooth="yes"/>
      <point x="43" y="643"/>
      <point x="112" y="707"/>
      <point x="228" y="707" type="curve"/>
      <point x="228" y="640" type="line"/>
      <point x="150" y="640"/>
      <point x="114" y="607"/>
      <point x="114" y="526" type="curve" smooth="yes"/>
      <point x="114" y="446"/>
      <point x="150" y="413"/>
      <point x="228" y="413" type="curve"/>
      <point x="228" y="346" type="line"/>
      <point x="114" y="346"/>
      <point x="43" y="408"/>
    </contour>
  </outline>
</glyph>
<glyph name="uni02C1" format="2">
  <advance width="316"/>
  <unicode hex="02C1"/>
  <outline>
    <contour>
      <point x="24" y="603" type="curve" smooth="yes"/>
      <point x="24" y="665"/>
      <point x="80" y="707"/>
      <point x="161" y="707" type="curve" smooth="yes"/>
      <point x="233" y="707"/>
      <point x="278" y="681"/>
      <point x="278" y="640" type="curve" smooth="yes"/>
      <point x="278" y="621"/>
      <point x="264" y="608"/>
      <point x="242" y="608" type="curve" smooth="yes"/>
      <point x="229" y="608"/>
      <point x="220" y="610"/>
      <point x="214" y="613" type="curve"/>
      <point x="191" y="664" type="line"/>
      <point x="183" y="670"/>
      <point x="177" y="671"/>
      <point x="161" y="671" type="curve" smooth="yes"/>
      <point x="133" y="671"/>
      <point x="113" y="642"/>
      <point x="113" y="604" type="curve" smooth="yes"/>
      <point x="113" y="533"/>
      <point x="215" y="507"/>
      <point x="215" y="507" type="curve"/>
      <point x="215" y="442" type="line"/>
      <point x="128" y="442" type="line"/>
      <point x="128" y="498" type="line"/>
      <point x="68" y="508"/>
      <point x="24" y="549"/>
    </contour>
  </outline>
</glyph>
<glyph name="circumflex" format="2">
  <advance width="340"/>
  <unicode hex="02C6"/>
  <outline>
    <contour>
      <point x="0" y="560" type="line"/>
      <point x="111" y="731" type="line"/>
      <point x="229" y="731" type="line"/>
      <point x="340" y="560" type="line"/>
      <point x="257" y="560" type="line"/>
      <point x="170" y="655" type="line"/>
      <point x="83" y="560" type="line"/>
    </contour>
  </outline>
</glyph>
<glyph name="caron" format="2">
  <advance width="340"/>
  <unicode hex="02C7"/>
  <outline>
    <contour>
      <point x="0" y="731" type="line"/>
      <point x="83" y="731" type="line"/>
      <point x="170" y="637" type="line"/>
      <point x="257" y="731" type="line"/>
      <point x="340" y="731" type="line"/>
      <point x="229" y="560" type="line"/>
      <point x="111" y="560" type="line"/>
    </contour>
  </outline>
</glyph>
<glyph name="uni02CE" format="2">
  <advance width="256"/>
  <unicode hex="02CE"/>
  <outline>
    <contour>
      <point x="0" y="-115" type="curve" smooth="yes"/>
      <point x="0" y="-91"/>
      <point x="14" y="-62"/>
      <point x="57" y="-62" type="curve" smooth="yes"/>
      <point x="84" y="-62"/>
      <point x="97" y="-68"/>
      <point x="120" y="-94" type="curve" smooth="yes"/>
      <point x="257" y="-245" type="line"/>
      <point x="187" y="-245" type="line"/>
      <point x="25" y="-157" type="line" smooth="yes"/>
      <point x="10" y="-149"/>
      <point x="0" y="-127"/>
    </contour>
  </outline>
</glyph>
<glyph name="uni02CF" format="2">
  <advance width="256"/>
  <unicode hex="02CF"/>
  <outline>
    <contour>
      <point x="0" y="-245" type="line"/>
      <point x="137" y="-93" type="line" smooth="yes"/>
      <point x="159" y="-68"/>
      <point x="173" y="-61"/>
      <point x="200" y="-61" type="curve" smooth="yes"/>
      <point x="243" y="-61"/>
      <point x="257" y="-90"/>
      <point x="257" y="-115" type="curve" smooth="yes"/>
      <point x="257" y="-127"/>
      <point x="246" y="-148"/>
      <point x="231" y="-156" type="curve" smooth="yes"/>
      <point x="70" y="-245" type="line"/>
    </contour>
  </outline>
</glyph>
<glyph name="uni02D0" format="2">
  <advance width="283"/>
  <unicode hex="02D0"/>
  <outline>
    <contour>
      <point x="37" y="0" type="line"/>
      <point x="96" y="188" type="line"/>
      <point x="187" y="188" type="line"/>
      <point x="246" y="0" type="line"/>
    </contour>
    <contour>
      <point x="37" y="496" type="line"/>
      <point x="246" y="496" type="line"/>
      <point x="187" y="307" type="line"/>
      <point x="96" y="307" type="line"/>
    </contour>
  </outline>
</glyph>
<glyph name="uni02D2" format="2">
  <advance width="272"/>
  <unicode hex="02D2"/>
  <outline>
    <contour>
      <point x="44" y="0" type="curve"/>
      <point x="44" y="67" type="line"/>
      <point x="122" y="67"/>
      <point x="159" y="100"/>
      <point x="159" y="180" type="curve" smooth="yes"/>
      <point x="159" y="261"/>
      <point x="122" y="294"/>
      <point x="44" y="294" type="curve"/>
      <point x="44" y="361" type="line"/>
      <point x="161" y="361"/>
      <point x="229" y="297"/>
      <point x="229" y="180" type="curve" smooth="yes"/>
      <point x="229" y="62"/>
      <point x="158" y="0"/>
    </contour>
  </outline>
</glyph>
<glyph name="uni02D6" format="2">
  <advance width="243"/>
  <unicode hex="02D6"/>
  <outline>
    <contour>
      <point x="0" y="216" type="line"/>
      <point x="0" y="273" type="line"/>
      <point x="93" y="273" type="line"/>
      <point x="93" y="365" type="line"/>
      <point x="150" y="365" type="line"/>
      <point x="150" y="273" type="line"/>
      <point x="243" y="273" type="line"/>
      <point x="243" y="216" type="line"/>
      <point x="150" y="216" type="line"/>
      <point x="150" y="122" type="line"/>
      <point x="93" y="122" type="line"/>
      <point x="93" y="216" type="line"/>
    </contour>
  </outline>
</glyph>
<glyph name="breve" format="2">
  <advance width="313"/>
  <unicode hex="02D8"/>
  <outline>
    <contour>
      <point x="0" y="723" type="curve"/>
      <point x="52" y="723" type="line"/>
      <point x="63" y="672"/>
      <point x="102" y="641"/>
      <point x="156" y="641" type="curve" smooth="yes"/>
      <point x="210" y="641"/>
      <point x="249" y="671"/>
      <point x="260" y="723" type="curve"/>
      <point x="313" y="723" type="line"/>
      <point x="313" y="623"/>
      <point x="252" y="560"/>
      <point x="156" y="560" type="curve" smooth="yes"/>
      <point x="60" y="560"/>
      <point x="0" y="623"/>
    </contour>
  </outline>
</glyph>
<glyph name="dotaccent" format="2">
  <advance width="136"/>
  <unicode hex="02D9"/>
  <outline>
    <contour>
      <point x="0" y="628" type="curve" smooth="yes"/>
      <point x="0" y="665"/>
      <point x="28" y="696"/>
      <point x="68" y="696" type="curve" smooth="yes"/>
      <point x="106" y="696"/>
      <point x="136" y="666"/>
      <point x="136" y="628" type="curve" smooth="yes"/>
      <point x="136" y="591"/>
      <point x="107" y="560"/>
      <point x="68" y="560" type="curve" smooth="yes"/>
      <point x="29" y="560"/>
      <point x="0" y="589"/>
    </contour>
  </outline>
</glyph>
<glyph name="ring" format="2">
  <advance width="253"/>
  <unicode hex="02DA"/>
  <outline>
    <contour>
      <point x="0" y="676" type="curve" smooth="yes"/>
      <point x="0" y="746"/>
      <point x="57" y="802"/>
      <point x="126" y="802" type="curve" smooth="yes"/>
      <point x="196" y="802"/>
      <point x="253" y="746"/>
      <point x="253" y="676" type="curve" smooth="yes"/>
      <point x="253" y="606"/>
      <point x="196" y="550"/>
      <point x="126" y="550" type="curve" smooth="yes"/>
      <point x="57" y="550"/>
      <point x="0" y="606"/>
    </contour>
    <contour>
      <point x="63" y="676" type="curve" smooth="yes"/>
      <point x="63" y="641"/>
      <point x="92" y="613"/>
      <point x="126" y="613" type="curve" smooth="yes"/>
      <point x="161" y="613"/>
      <point x="189" y="641"/>
      <point x="189" y="676" type="curve" smooth="yes"/>
      <point x="189" y="711"/>
      <point x="161" y="739"/>
      <point x="126" y="739" type="curve" smooth="yes"/>
      <point x="92" y="739"/>
      <point x="63" y="711"/>
    </contour>
  </outline>
</glyph>
<glyph name="ogonek" format="2">
  <advance width="225"/>
  <unicode hex="02DB"/>
  <outline>
    <contour>
      <point x="10" y="-115" type="curve" smooth="yes"/>
      <point x="10" y="-73"/>
      <point x="41" y="-25"/>
      <point x="91" y="10" type="curve"/>
      <point x="154" y="10" type="line"/>
      <point x="112" y="-22"/>
      <point x="91" y="-54"/>
      <point x="91" y="-89" type="curve" smooth="yes"/>
      <point x="91" y="-121"/>
      <point x="111" y="-141"/>
      <point x="141" y="-141" type="curve" smooth="yes"/>
      <point x="157" y="-141"/>
      <point x="178" y="-132"/>
      <point x="188" y="-122" type="curve"/>
      <point x="216" y="-168" type="line"/>
      <point x="188" y="-189"/>
      <point x="158" y="-199"/>
      <point x="121" y="-199" type="curve" smooth="yes"/>
      <point x="54" y="-199"/>
      <point x="10" y="-165"/>
    </contour>
  </outline>
</glyph>
<glyph name="tilde" format="2">
  <advance width="351"/>
  <unicode hex="02DC"/>
  <outline>
    <contour>
      <point x="0" y="560" type="line"/>
      <point x="17" y="629"/>
      <point x="53" y="684"/>
      <point x="120" y="684" type="curve" smooth="yes"/>
      <point x="146" y="684"/>
      <point x="164" y="673"/>
      <point x="183" y="661" type="curve"/>
      <point x="202" y="648"/>
      <point x="223" y="637"/>
      <point x="253" y="637" type="curve" smooth="yes"/>
      <point x="274" y="637"/>
      <point x="294" y="658"/>
      <point x="297" y="684" type="curve"/>
      <point x="351" y="684" type="line"/>
      <point x="334" y="615"/>
      <point x="298" y="560"/>
      <point x="230" y="560" type="curve" smooth="yes"/>
      <point x="205" y="560"/>
      <point x="186" y="571"/>
      <point x="168" y="583" type="curve" smooth="yes"/>
      <point x="148" y="596"/>
      <point x="128" y="608"/>
      <point x="98" y="608" type="curve" smooth="yes"/>
      <point x="76" y="608"/>
      <point x="57" y="587"/>
      <point x="54" y="560" type="curve"/>
    </contour>
  </outline>
</glyph>
<glyph name="uni02E1" format="2">
  <advance width="215"/>
  <unicode hex="02E1"/>
  <outline>
    <contour>
      <point x="19" y="383" type="line"/>
      <point x="19" y="411" type="line"/>
      <point x="50" y="413" type="line"/>
      <point x="59" y="413"/>
      <point x="64" y="419"/>
      <point x="64" y="427" type="curve" smooth="yes"/>
      <point x="64" y="772" type="line"/>
      <point x="19" y="772" type="line"/>
      <point x="19" y="797" type="line"/>
      <point x="118" y="827" type="line"/>
      <point x="151" y="827" type="line"/>
      <point x="151" y="427" type="line" smooth="yes"/>
      <point x="151" y="419"/>
      <point x="157" y="413"/>
      <point x="166" y="413" type="curve"/>
      <point x="198" y="411" type="line"/>
      <point x="198" y="383" type="line"/>
    </contour>
  </outline>
</glyph>
<glyph name="uni02E2" format="2">
  <advance width="290"/>
  <unicode hex="02E2"/>
  <outline>
    <contour>
      <point x="21" y="392" type="curve"/>
      <point x="21" y="483" type="line"/>
      <point x="62" y="483" type="line"/>
      <point x="70" y="428" type="line"/>
      <point x="85" y="418"/>
      <point x="111" y="411"/>
      <point x="130" y="411" type="curve" smooth="yes"/>
      <point x="162" y="411"/>
      <point x="186" y="428"/>
      <point x="186" y="450" type="curve" smooth="yes"/>
      <point x="186" y="469"/>
      <point x="169" y="483"/>
      <point x="118" y="504" type="curve" smooth="yes"/>
      <point x="93" y="515" type="line" smooth="yes"/>
      <point x="45" y="537"/>
      <point x="25" y="560"/>
      <point x="25" y="592" type="curve" smooth="yes"/>
      <point x="25" y="646"/>
      <point x="78" y="683"/>
      <point x="155" y="683" type="curve" smooth="yes"/>
      <point x="192" y="683"/>
      <point x="230" y="677"/>
      <point x="259" y="667" type="curve"/>
      <point x="259" y="584" type="line"/>
      <point x="218" y="584" type="line"/>
      <point x="211" y="632" type="line"/>
      <point x="194" y="643"/>
      <point x="179" y="647"/>
      <point x="160" y="647" type="curve" smooth="yes"/>
      <point x="130" y="647"/>
      <point x="112" y="635"/>
      <point x="112" y="614" type="curve" smooth="yes"/>
      <point x="112" y="595"/>
      <point x="130" y="580"/>
      <point x="178" y="558" type="curve" smooth="yes"/>
      <point x="204" y="546" type="line"/>
      <point x="249" y="523"/>
      <point x="269" y="502"/>
      <point x="269" y="476" type="curve" smooth="yes"/>
      <point x="269" y="414"/>
      <point x="218" y="376"/>
      <point x="136" y="376" type="curve" smooth="yes"/>
      <point x="93" y="376"/>
      <point x="52" y="382"/>
    </contour>
  </outline>
</glyph>
<glyph name="uni02E4" format="2">
  <advance width="312"/>
  <unicode hex="02E4"/>
  <outline>
    <contour>
      <point x="24" y="681" type="curve" smooth="yes"/>
      <point x="24" y="751"/>
      <point x="87" y="795"/>
      <point x="171" y="795" type="curve" smooth="yes"/>
      <point x="224" y="795"/>
      <point x="288" y="780"/>
      <point x="288" y="728" type="curve" smooth="yes"/>
      <point x="288" y="702"/>
      <point x="266" y="696"/>
      <point x="252" y="696" type="curve" smooth="yes"/>
      <point x="240" y="696"/>
      <point x="230" y="699"/>
      <point x="224" y="701" type="curve"/>
      <point x="201" y="752" type="line"/>
      <point x="191" y="758"/>
      <point x="184" y="759"/>
      <point x="171" y="759" type="curve" smooth="yes"/>
      <point x="130" y="759"/>
      <point x="113" y="716"/>
      <point x="113" y="682" type="curve" smooth="yes"/>
      <point x="113" y="596"/>
      <point x="212" y="568"/>
      <point x="225" y="565" type="curve"/>
      <point x="225" y="430" type="line" smooth="yes"/>
      <point x="225" y="422"/>
      <point x="230" y="418"/>
      <point x="239" y="417" type="curve"/>
      <point x="281" y="414" type="line"/>
      <point x="281" y="383" type="line"/>
      <point x="82" y="383" type="line"/>
      <point x="82" y="414" type="line"/>
      <point x="124" y="417" type="line"/>
      <point x="132" y="418"/>
      <point x="138" y="422"/>
      <point x="138" y="430" type="curve" smooth="yes"/>
      <point x="138" y="556" type="line"/>
      <point x="115" y="560"/>
      <point x="24" y="577"/>
    </contour>
  </outline>
</glyph>
<glyph name="uni02E9" format="2">
  <advance width="418"/>
  <unicode hex="02E9"/>
  <outline>
    <contour>
      <point x="39" y="0" type="line"/>
      <point x="39" y="75" type="line"/>
      <point x="273" y="75" type="line"/>
      <point x="273" y="723" type="line"/>
      <point x="348" y="723" type="line"/>
      <point x="348" y="0" type="line"/>
    </contour>
  </outline>
</glyph>
<glyph name="uni02ED" format="2">
  <advance width="458"/>
  <unicode hex="02ED"/>
  <outline>
    <contour>
      <point x="24" y="388" type="line"/>
      <point x="24" y="469" type="line"/>
      <point x="435" y="469" type="line"/>
      <point x="435" y="388" type="line"/>
    </contour>
    <contour>
      <point x="24" y="522" type="line"/>
      <point x="24" y="603" type="line"/>
      <point x="435" y="603" type="line"/>
      <point x="435" y="522" type="line"/>
    </contour>
  </outline>
</glyph>
<glyph name="uni02EE" format="2">
  <advance width="501"/>
  <unicode hex="02EE"/>
  <outline>
    <contour>
      <point x="59" y="421" type="line"/>
      <point x="116" y="441"/>
      <point x="155" y="493"/>
      <point x="155" y="551" type="curve" smooth="yes"/>
      <point x="155" y="568" type="line"/>
      <point x="95" y="568" type="line"/>
      <point x="83" y="582"/>
      <point x="75" y="603"/>
      <point x="75" y="619" type="curve" smooth="yes"/>
      <point x="75" y="664"/>
      <point x="106" y="695"/>
      <point x="149" y="695" type="curve" smooth="yes"/>
      <point x="202" y="695"/>
      <point x="239" y="650"/>
      <point x="239" y="585" type="curve" smooth="yes"/>
      <point x="239" y="496"/>
      <point x="169" y="410"/>
      <point x="75" y="383" type="curve"/>
    </contour>
    <contour>
      <point x="284" y="421" type="line"/>
      <point x="352" y="458"/>
      <point x="381" y="499"/>
      <point x="381" y="557" type="curve" smooth="yes"/>
      <point x="381" y="568" type="line"/>
      <point x="321" y="568" type="line"/>
      <point x="307" y="584"/>
      <point x="301" y="600"/>
      <point x="301" y="624" type="curve" smooth="yes"/>
      <point x="301" y="666"/>
      <point x="330" y="695"/>
      <point x="374" y="695" type="curve" smooth="yes"/>
      <point x="427" y="695"/>
      <point x="465" y="652"/>
      <point x="465" y="592" type="curve" smooth="yes"/>
      <point x="465" y="496"/>
      <point x="396" y="408"/>
      <point x="301" y="384" type="curve"/>
    </contour>
  </outline>
</glyph>
<glyph name="uni02F3" format="2">
  <advance width="301"/>
  <unicode hex="02F3"/>
  <outline>
    <contour>
      <point x="24" y="-188" type="curve" smooth="yes"/>
      <point x="24" y="-118"/>
      <point x="81" y="-61"/>
      <point x="150" y="-61" type="curve" smooth="yes"/>
      <point x="220" y="-61"/>
      <point x="277" y="-118"/>
      <point x="277" y="-187" type="curve" smooth="yes"/>
      <point x="277" y="-257"/>
      <point x="220" y="-313"/>
      <point x="150" y="-313" type="curve" smooth="yes"/>
      <point x="81" y="-313"/>
      <point x="24" y="-257"/>
    </contour>
    <contour>
      <point x="87" y="-187" type="curve" smooth="yes"/>
      <point x="87" y="-222"/>
      <point x="116" y="-250"/>
      <point x="150" y="-250" type="curve" smooth="yes"/>
      <point x="185" y="-250"/>
      <point x="213" y="-222"/>
      <point x="213" y="-188" type="curve" smooth="yes"/>
      <point x="213" y="-153"/>
      <point x="185" y="-124"/>
      <point x="150" y="-124" type="curve" smooth="yes"/>
      <point x="116" y="-124"/>
      <point x="87" y="-153"/>
    </contour>
  </outline>
</glyph>
<glyph name="uni02F4" format="2">
  <advance width="374"/>
  <unicode hex="02F4"/>
  <outline>
    <contour>
      <point x="0" y="442" type="curve" smooth="yes"/>
      <point x="0" y="474"/>
      <point x="23" y="495"/>
      <point x="57" y="495" type="curve" smooth="yes"/>
      <point x="84" y="495"/>
      <point x="97" y="488"/>
      <point x="120" y="463" type="curve" smooth="yes"/>
      <point x="257" y="312" type="line"/>
      <point x="187" y="312" type="line"/>
      <point x="25" y="400" type="line" smooth="yes"/>
      <point x="12" y="407"/>
      <point x="0" y="428"/>
    </contour>
  </outline>
</glyph>
<glyph name="uni02F5" format="2">
  <advance width="472"/>
  <unicode hex="02F5"/>
  <outline>
    <contour>
      <point x="0" y="442" type="curve" smooth="yes"/>
      <point x="0" y="474"/>
      <point x="23" y="495"/>
      <point x="57" y="495" type="curve" smooth="yes"/>
      <point x="84" y="495"/>
      <point x="98" y="488"/>
      <point x="121" y="463" type="curve" smooth="yes"/>
      <point x="257" y="312" type="line"/>
      <point x="188" y="312" type="line"/>
      <point x="26" y="400" type="line"/>
      <point x="13" y="408"/>
      <point x="0" y="428"/>
    </contour>
    <contour>
      <point x="215" y="442" type="curve" smooth="yes"/>
      <point x="215" y="474"/>
      <point x="238" y="495"/>
      <point x="272" y="495" type="curve" smooth="yes"/>
      <point x="299" y="495"/>
      <point x="313" y="488"/>
      <point x="335" y="463" type="curve" smooth="yes"/>
      <point x="472" y="312" type="line"/>
      <point x="402" y="312" type="line"/>
      <point x="241" y="400" type="line"/>
      <point x="227" y="407"/>
      <point x="215" y="427"/>
    </contour>
  </outline>
</glyph>
<glyph name="uni02F8" format="2">
  <advance width="317"/>
  <unicode hex="02F8"/>
  <outline>
    <contour>
      <point x="63" y="318" type="curve" smooth="yes"/>
      <point x="63" y="364"/>
      <point x="101" y="402"/>
      <point x="147" y="402" type="curve" smooth="yes"/>
      <point x="194" y="402"/>
      <point x="230" y="364"/>
      <point x="230" y="318" type="curve" smooth="yes"/>
      <point x="230" y="272"/>
      <point x="194" y="235"/>
      <point x="147" y="235" type="curve" smooth="yes"/>
      <point x="101" y="235"/>
      <point x="63" y="272"/>
    </contour>
    <contour>
      <point x="63" y="663" type="curve" smooth="yes"/>
      <point x="63" y="709"/>
      <point x="101" y="747"/>
      <point x="147" y="747" type="curve" smooth="yes"/>
      <point x="194" y="747"/>
      <point x="230" y="709"/>
      <point x="230" y="663" type="curve" smooth="yes"/>
      <point x="230" y="616"/>
      <point x="194" y="580"/>
      <point x="147" y="580" type="curve" smooth="yes"/>
      <point x="101" y="580"/>
      <point x="63" y="616"/>
    </contour>
  </outline>
</glyph>
<glyph name="uni0309" format="2">
  <unicode hex="0309"/>
  <anchor x="-292" y="560" name="_top"/>
  <outline>
    <contour>
      <point x="-373" y="724" type="curve" smooth="yes"/>
      <point x="-373" y="749"/>
      <point x="-333" y="775"/>
      <point x="-294" y="775" type="curve" smooth="yes"/>
      <point x="-245" y="775"/>
      <point x="-211" y="743"/>
      <point x="-211" y="698" type="curve" smooth="yes"/>
      <point x="-211" y="666"/>
      <point x="-237" y="639"/>
      <point x="-287" y="618" type="curve"/>
      <point x="-287" y="560" type="line"/>
      <point x="-318" y="560" type="line"/>
      <point x="-318" y="638" type="line"/>
      <point x="-281" y="648"/>
      <point x="-262" y="667"/>
      <point x="-262" y="695" type="curve" smooth="yes"/>
      <point x="-262" y="723"/>
      <point x="-277" y="747"/>
      <point x="-293" y="747" type="curve" smooth="yes"/>
      <point x="-304" y="747"/>
      <point x="-310" y="744"/>
      <point x="-312" y="739" type="curve"/>
      <point x="-324" y="701" type="line"/>
      <point x="-329" y="697"/>
      <point x="-336" y="695"/>
      <point x="-346" y="695" type="curve" smooth="yes"/>
      <point x="-362" y="695"/>
      <point x="-373" y="707"/>
    </contour>
  </outline>
</glyph>
<glyph name="uni030D" format="2">
  <unicode hex="030D"/>
  <anchor x="-292" y="550" name="_top"/>
  <outline>
    <contour>
      <point x="-323" y="550" type="line"/>
      <point x="-323" y="734" type="line"/>
      <point x="-261" y="734" type="line"/>
      <point x="-261" y="550" type="line"/>
    </contour>
  </outline>
</glyph>
<glyph name="uni030E" format="2">
  <unicode hex="030E"/>
  <anchor x="-292" y="550" name="_top"/>
  <outline>
    <contour>
      <point x="-391" y="550" type="line"/>
      <point x="-391" y="734" type="line"/>
      <point x="-329" y="734" type="line"/>
      <point x="-329" y="550" type="line"/>
    </contour>
    <contour>
      <point x="-254" y="550" type="line"/>
      <point x="-254" y="734" type="line"/>
      <point x="-193" y="734" type="line"/>
      <point x="-193" y="550" type="line"/>
    </contour>
  </outline>
</glyph>
<glyph name="uni0313" format="2">
  <unicode hex="0313"/>
  <outline>
    <contour>
      <point x="-369" y="709" type="curve" smooth="yes"/>
      <point x="-369" y="744"/>
      <point x="-342" y="767"/>
      <point x="-301" y="767" type="curve" smooth="yes"/>
      <point x="-251" y="767"/>
      <point x="-215" y="731"/>
      <point x="-215" y="683" type="curve" smooth="yes"/>
      <point x="-215" y="620"/>
      <point x="-271" y="568"/>
      <point x="-356" y="551" type="curve"/>
      <point x="-356" y="591" type="line"/>
      <point x="-316" y="602"/>
      <point x="-286" y="634"/>
      <point x="-286" y="665" type="curve"/>
      <point x="-349" y="665" type="line"/>
      <point x="-362" y="677"/>
      <point x="-369" y="693"/>
    </contour>
  </outline>
</glyph>
<glyph name="uni0314" format="2">
  <unicode hex="0314"/>
  <outline>
    <contour>
      <point x="-369" y="683" type="curve" smooth="yes"/>
      <point x="-369" y="731"/>
      <point x="-333" y="767"/>
      <point x="-283" y="767" type="curve" smooth="yes"/>
      <point x="-242" y="767"/>
      <point x="-215" y="744"/>
      <point x="-215" y="709" type="curve" smooth="yes"/>
      <point x="-215" y="693"/>
      <point x="-222" y="677"/>
      <point x="-235" y="665" type="curve"/>
      <point x="-298" y="665" type="line"/>
      <point x="-298" y="634"/>
      <point x="-268" y="602"/>
      <point x="-228" y="591" type="curve"/>
      <point x="-228" y="551" type="line"/>
      <point x="-313" y="568"/>
      <point x="-369" y="620"/>
    </contour>
  </outline>
</glyph>
<glyph name="uni0315" format="2">
  <unicode hex="0315"/>
  <outline>
    <contour>
      <point x="-200" y="807" type="curve" smooth="yes"/>
      <point x="-200" y="842"/>
      <point x="-173" y="865"/>
      <point x="-132" y="865" type="curve" smooth="yes"/>
      <point x="-82" y="865"/>
      <point x="-46" y="829"/>
      <point x="-46" y="781" type="curve" smooth="yes"/>
      <point x="-46" y="718"/>
      <point x="-103" y="665"/>
      <point x="-188" y="648" type="curve"/>
      <point x="-188" y="688" type="line"/>
      <point x="-148" y="699"/>
      <point x="-117" y="732"/>
      <point x="-117" y="763" type="curve"/>
      <point x="-180" y="763" type="line"/>
      <point x="-193" y="775"/>
      <point x="-200" y="791"/>
    </contour>
  </outline>
</glyph>
